SeanSlab-NormalRegular.ufo
<glyph name="exclam" format="1">
  <advance width="255"/>
  <unicode hex="0021"/>
  <outline>
    <contour>
      <point x="163" y="229" type="line"/>
      <point x="171" y="722" type="line"/>
      <point x="85" y="722" type="line"/>
      <point x="94" y="229" type="line"/>
    </contour>
    <contour>
      <point x="175" y="34" type="curve"/>
      <point x="175" y="61"/>
      <point x="155" y="75"/>
      <point x="128" y="75" type="curve"/>
      <point x="100" y="75"/>
      <point x="82" y="60"/>
      <point x="82" y="34" type="curve"/>
      <point x="167" y="34"/>
      <point x="90" y="34"/>
      <point x="175" y="34" type="curve"/>
      <point x="175" y="6"/>
      <point x="155" y="-7"/>
      <point x="127" y="-7" type="curve"/>
      <point x="100" y="-7"/>
      <point x="82" y="7"/>
      <point x="82" y="34" type="curve"/>
      <point x="167" y="34"/>
      <point x="90" y="34"/>
    </contour>
  </outline>
</glyph>
<glyph name="quotedbl" format="1">
  <advance width="439"/>
  <unicode hex="0022"/>
  <outline>
    <contour>
      <point x="158" y="608" type="line"/>
      <point x="164" y="812" type="line"/>
      <point x="78" y="812" type="line"/>
      <point x="84" y="608" type="line"/>
    </contour>
    <contour>
      <point x="355" y="608" type="line"/>
      <point x="361" y="812" type="line"/>
      <point x="275" y="812" type="line"/>
      <point x="281" y="608" type="line"/>
    </contour>
  </outline>
</glyph>
<glyph name="numbersign" format="1">
  <advance width="712"/>
  <unicode hex="0023"/>
  <outline>
    <contour>
      <point x="47" y="234" type="curve"/>
      <point x="570" y="234" type="curve"/>
      <point x="590" y="294" type="curve"/>
      <point x="67" y="294" type="curve"/>
    </contour>
    <contour>
      <point x="119" y="465" type="curve"/>
      <point x="645" y="465" type="curve"/>
      <point x="664" y="525" type="curve"/>
      <point x="139" y="525" type="curve"/>
    </contour>
    <contour>
      <point x="429" y="39" type="curve"/>
      <point x="655" y="722" type="curve"/>
      <point x="577" y="722" type="curve"/>
      <point x="351" y="39" type="curve"/>
    </contour>
    <contour>
      <point x="147" y="46" type="curve"/>
      <point x="370" y="722" type="curve"/>
      <point x="292" y="722" type="curve"/>
      <point x="72" y="46" type="curve"/>
    </contour>
  </outline>
</glyph>
<glyph name="dollar" format="1">
  <advance width="596"/>
  <unicode hex="0024"/>
  <outline>
    <contour>
      <point x="124" y="96" type="curve"/>
      <point x="124" y="216"/>
      <point x="124" y="102"/>
      <point x="124" y="222" type="curve"/>
      <point x="62" y="222"/>
      <point x="124" y="222"/>
      <point x="62" y="222" type="curve"/>
      <point x="62" y="102"/>
      <point x="62" y="216"/>
      <point x="62" y="96" type="curve"/>
      <point x="124" y="96"/>
      <point x="62" y="96"/>
    </contour>
    <contour>
      <point x="452" y="633" type="curve"/>
      <point x="452" y="513"/>
      <point x="452" y="626"/>
      <point x="452" y="506" type="curve"/>
      <point x="514" y="506"/>
      <point x="452" y="506"/>
      <point x="514" y="506" type="curve"/>
      <point x="514" y="626"/>
      <point x="514" y="513"/>
      <point x="514" y="633" type="curve"/>
      <point x="452" y="633"/>
      <point x="514" y="633"/>
    </contour>
    <contour>
      <point x="320" y="-42" type="curve"/>
      <point x="320" y="-10"/>
      <point x="320" y="43"/>
      <point x="320" y="76" type="curve"/>
      <point x="242" y="76"/>
      <point x="320" y="76"/>
      <point x="242" y="76" type="curve"/>
      <point x="242" y="43"/>
      <point x="242" y="-10"/>
      <point x="242" y="-42" type="curve"/>
      <point x="320" y="-42"/>
      <point x="242" y="-42"/>
    </contour>
    <contour>
      <point x="332" y="654" type="curve"/>
      <point x="332" y="686"/>
      <point x="332" y="741"/>
      <point x="332" y="773" type="curve"/>
      <point x="255" y="773"/>
      <point x="332" y="773"/>
      <point x="255" y="773" type="curve"/>
      <point x="255" y="741"/>
      <point x="255" y="686"/>
      <point x="255" y="654" type="curve"/>
      <point x="332" y="654"/>
      <point x="255" y="654"/>
    </contour>
    <contour>
      <point x="62" y="96" type="curve"/>
      <point x="122" y="68"/>
      <point x="195" y="45"/>
      <point x="277" y="45" type="curve"/>
      <point x="424" y="45"/>
      <point x="544" y="91"/>
      <point x="544" y="208" type="curve"/>
      <point x="544" y="316"/>
      <point x="434" y="356"/>
      <point x="319" y="402" type="curve"/>
      <point x="231" y="436"/>
      <point x="154" y="460"/>
      <point x="154" y="533" type="curve"/>
      <point x="154" y="597"/>
      <point x="217" y="625"/>
      <point x="297" y="625" type="curve"/>
      <point x="366" y="625"/>
      <point x="414" y="611"/>
      <point x="475" y="582" type="curve"/>
      <point x="514" y="633"/>
      <point x="475" y="582"/>
      <point x="514" y="633" type="curve"/>
      <point x="442" y="667"/>
      <point x="383" y="685"/>
      <point x="301" y="685" type="curve"/>
      <point x="173" y="685"/>
      <point x="76" y="638"/>
      <point x="76" y="533" type="curve"/>
      <point x="76" y="430"/>
      <point x="163" y="390"/>
      <point x="273" y="347" type="curve"/>
      <point x="367" y="311"/>
      <point x="466" y="285"/>
      <point x="466" y="205" type="curve"/>
      <point x="466" y="130"/>
      <point x="383" y="105"/>
      <point x="285" y="105" type="curve"/>
      <point x="215" y="105"/>
      <point x="155" y="128"/>
      <point x="105" y="149" type="curve"/>
      <point x="62" y="95"/>
      <point x="105" y="150"/>
    </contour>
  </outline>
</glyph>
<glyph name="percent" format="1">
  <advance width="1122"/>
  <unicode hex="0025"/>
  <outline>
    <contour>
      <point x="387" y="-68" type="line"/>
      <point x="832" y="735" type="line"/>
      <point x="758" y="735" type="line"/>
      <point x="313" y="-68" type="line"/>
    </contour>
    <contour>
      <point x="112" y="526" type="curve"/>
      <point x="112" y="617"/>
      <point x="152" y="681"/>
      <point x="238" y="681" type="curve"/>
      <point x="325" y="682"/>
      <point x="366" y="618"/>
      <point x="366" y="525" type="curve"/>
      <point x="366" y="434"/>
      <point x="329" y="368"/>
      <point x="243" y="368" type="curve"/>
      <point x="154" y="368"/>
      <point x="112" y="432"/>
      <point x="112" y="526" type="curve"/>
      <point x="85" y="526"/>
      <point x="67" y="526"/>
      <point x="41" y="526" type="curve"/>
      <point x="41" y="395"/>
      <point x="111" y="310"/>
      <point x="239" y="310" type="curve"/>
      <point x="368" y="310"/>
      <point x="440" y="396"/>
      <point x="440" y="528" type="curve"/>
      <point x="440" y="657"/>
      <point x="368" y="739"/>
      <point x="242" y="739" type="curve"/>
      <point x="113" y="739"/>
      <point x="41" y="656"/>
      <point x="41" y="526" type="curve"/>
      <point x="67" y="526"/>
      <point x="85" y="526"/>
    </contour>
    <contour>
      <point x="753" y="143" type="curve"/>
      <point x="753" y="234"/>
      <point x="793" y="298"/>
      <point x="880" y="298" type="curve"/>
      <point x="967" y="299"/>
      <point x="1007" y="234"/>
      <point x="1007" y="142" type="curve"/>
      <point x="1007" y="51"/>
      <point x="970" y="-16"/>
      <point x="884" y="-16" type="curve"/>
      <point x="795" y="-16"/>
      <point x="753" y="49"/>
      <point x="753" y="143" type="curve"/>
      <point x="726" y="143"/>
      <point x="709" y="143"/>
      <point x="682" y="143" type="curve"/>
      <point x="682" y="12"/>
      <point x="753" y="-73"/>
      <point x="881" y="-73" type="curve"/>
      <point x="1010" y="-73"/>
      <point x="1081" y="13"/>
      <point x="1081" y="145" type="curve"/>
      <point x="1081" y="274"/>
      <point x="1010" y="356"/>
      <point x="883" y="356" type="curve"/>
      <point x="754" y="356"/>
      <point x="682" y="273"/>
      <point x="682" y="143" type="curve"/>
      <point x="709" y="143"/>
      <point x="726" y="143"/>
    </contour>
  </outline>
</glyph>
<glyph name="ampersand" format="1">
  <advance width="718"/>
  <unicode hex="0026"/>
  <outline>
    <contour>
      <point x="694" y="33" type="line"/>
      <point x="582" y="138"/>
      <point x="466" y="254"/>
      <point x="352" y="362" type="curve"/>
      <point x="288" y="426"/>
      <point x="208" y="472"/>
      <point x="208" y="565" type="curve"/>
      <point x="208" y="625"/>
      <point x="245" y="666"/>
      <point x="304" y="666" type="curve"/>
      <point x="369" y="666"/>
      <point x="413" y="630"/>
      <point x="413" y="567" type="curve"/>
      <point x="413" y="479"/>
      <point x="342" y="444"/>
      <point x="262" y="402" type="curve"/>
      <point x="158" y="346"/>
      <point x="61" y="303"/>
      <point x="61" y="187" type="curve"/>
      <point x="61" y="61"/>
      <point x="163" y="-5"/>
      <point x="298" y="-5" type="curve"/>
      <point x="492" y="-5"/>
      <point x="601" y="127"/>
      <point x="667" y="315" type="curve"/>
      <point x="600" y="330"/>
      <point x="667" y="315"/>
      <point x="600" y="330" type="curve"/>
      <point x="544" y="172"/>
      <point x="460" y="56"/>
      <point x="301" y="56" type="curve"/>
      <point x="208" y="56"/>
      <point x="139" y="99"/>
      <point x="139" y="187" type="curve"/>
      <point x="139" y="278"/>
      <point x="214" y="309"/>
      <point x="296" y="353" type="curve"/>
      <point x="397" y="408"/>
      <point x="490" y="454"/>
      <point x="491" y="567" type="curve"/>
      <point x="491" y="670"/>
      <point x="414" y="727"/>
      <point x="307" y="727" type="curve"/>
      <point x="203" y="727"/>
      <point x="132" y="666"/>
      <point x="132" y="565" type="curve"/>
      <point x="132" y="456"/>
      <point x="220" y="399"/>
      <point x="297" y="325" type="curve"/>
      <point x="408" y="219"/>
      <point x="538" y="94"/>
      <point x="647" y="-11" type="curve"/>
    </contour>
  </outline>
</glyph>
<glyph name="parenright" format="1">
  <advance width="386"/>
  <unicode hex="0029"/>
  <outline>
    <contour>
      <point x="53" y="-279" type="curve"/>
      <point x="235" y="-97"/>
      <point x="335" y="67"/>
      <point x="335" y="328" type="curve"/>
      <point x="335" y="582"/>
      <point x="242" y="745"/>
      <point x="57" y="916" type="curve"/>
      <point x="10" y="874"/>
      <point x="57" y="916"/>
      <point x="10" y="874" type="curve"/>
      <point x="178" y="713"/>
      <point x="257" y="559"/>
      <point x="257" y="325" type="curve"/>
      <point x="257" y="86"/>
      <point x="169" y="-68"/>
      <point x="5" y="-240" type="curve"/>
      <point x="53" y="-279"/>
      <point x="5" y="-240"/>
    </contour>
  </outline>
</glyph>
<glyph name="asterisk" format="1">
  <advance width="623"/>
  <unicode hex="002A"/>
  <outline>
    <contour>
      <point x="338" y="587" type="line"/>
      <point x="342" y="792" type="line"/>
      <point x="277" y="792" type="line"/>
      <point x="282" y="587" type="line"/>
    </contour>
    <contour>
      <point x="357" y="537" type="line"/>
      <point x="553" y="599" type="line"/>
      <point x="531" y="660" type="line"/>
      <point x="339" y="589" type="line"/>
    </contour>
    <contour>
      <point x="316" y="502" type="line"/>
      <point x="438" y="338" type="line"/>
      <point x="488" y="379" type="line"/>
      <point x="359" y="537" type="line"/>
    </contour>
    <contour>
      <point x="270" y="534" type="line"/>
      <point x="141" y="375" type="line"/>
      <point x="192" y="334" type="line"/>
      <point x="314" y="499" type="line"/>
    </contour>
    <contour>
      <point x="284" y="584" type="line"/>
      <point x="93" y="655" type="line"/>
      <point x="71" y="594" type="line"/>
      <point x="266" y="532" type="line"/>
    </contour>
  </outline>
</glyph>
<glyph name="plus" format="1">
  <advance width="672"/>
  <unicode hex="002B"/>
  <outline>
    <contour>
      <point x="51" y="278" type="curve"/>
      <point x="621" y="278" type="line"/>
      <point x="621" y="344"/>
      <point x="621" y="278"/>
      <point x="621" y="344" type="curve"/>
      <point x="51" y="344" type="line"/>
      <point x="51" y="278"/>
      <point x="51" y="344"/>
    </contour>
    <contour>
      <point x="372" y="26" type="curve"/>
      <point x="372" y="586" type="line"/>
      <point x="294" y="586"/>
      <point x="376" y="586"/>
      <point x="299" y="586" type="curve"/>
      <point x="299" y="26" type="line"/>
      <point x="376" y="26"/>
      <point x="294" y="26"/>
    </contour>
  </outline>
</glyph>
<glyph name="comma" format="1">
  <advance width="248"/>
  <unicode hex="002C"/>
  <outline>
    <contour>
      <point x="46" y="-119" type="line"/>
      <point x="123" y="-119"/>
      <point x="165" y="-60"/>
      <point x="165" y="12" type="curve"/>
      <point x="165" y="65"/>
      <point x="146" y="104"/>
      <point x="110" y="104" type="curve"/>
      <point x="82" y="104"/>
      <point x="64" y="89"/>
      <point x="64" y="62" type="curve"/>
      <point x="64" y="37"/>
      <point x="79" y="22"/>
      <point x="106" y="19" type="curve"/>
      <point x="106" y="-11"/>
      <point x="103" y="-68"/>
      <point x="46" y="-72" type="curve"/>
    </contour>
  </outline>
</glyph>
<glyph name="hyphen" format="1">
  <advance width="466"/>
  <unicode hex="002D"/>
  <outline>
    <contour>
      <point x="81" y="244" type="curve"/>
      <point x="182" y="244"/>
      <point x="284" y="244"/>
      <point x="385" y="244" type="curve"/>
      <point x="385" y="310"/>
      <point x="385" y="244"/>
      <point x="385" y="310" type="curve"/>
      <point x="284" y="310"/>
      <point x="182" y="310"/>
      <point x="81" y="310" type="curve"/>
      <point x="81" y="244"/>
      <point x="81" y="310"/>
    </contour>
  </outline>
</glyph>
<glyph name="slash" format="1">
  <advance width="590"/>
  <unicode hex="002F"/>
  <outline>
    <contour>
      <point x="112" y="-43" type="curve"/>
      <point x="260" y="243"/>
      <point x="408" y="530"/>
      <point x="556" y="816" type="curve"/>
      <point x="478" y="816"/>
      <point x="556" y="816"/>
      <point x="478" y="816" type="curve"/>
      <point x="330" y="530"/>
      <point x="182" y="243"/>
      <point x="34" y="-43" type="curve"/>
      <point x="112" y="-43"/>
      <point x="34" y="-43"/>
    </contour>
  </outline>
</glyph>
<glyph name="zero" format="1">
  <advance width="764"/>
  <unicode hex="0030"/>
  <outline>
    <contour>
      <point x="142" y="360" type="curve"/>
      <point x="142" y="539"/>
      <point x="213" y="663"/>
      <point x="380" y="663" type="curve"/>
      <point x="547" y="663"/>
      <point x="621" y="541"/>
      <point x="621" y="363" type="curve"/>
      <point x="621" y="184"/>
      <point x="550" y="59"/>
      <point x="387" y="59" type="curve"/>
      <point x="219" y="59"/>
      <point x="142" y="181"/>
      <point x="142" y="360" type="curve"/>
      <point x="65" y="360"/>
      <point x="141" y="360"/>
      <point x="64" y="360" type="curve"/>
      <point x="64" y="140"/>
      <point x="170" y="-5"/>
      <point x="383" y="-5" type="curve"/>
      <point x="596" y="-5"/>
      <point x="699" y="141"/>
      <point x="699" y="363" type="curve"/>
      <point x="699" y="582"/>
      <point x="597" y="727"/>
      <point x="387" y="727" type="curve"/>
      <point x="172" y="727"/>
      <point x="64" y="582"/>
      <point x="64" y="360" type="curve"/>
      <point x="141" y="360"/>
      <point x="65" y="360"/>
    </contour>
  </outline>
</glyph>
<glyph name="one" format="1">
  <advance width="469"/>
  <unicode hex="0031"/>
  <outline>
    <contour>
      <point x="282" y="0" type="curve"/>
      <point x="333" y="0"/>
      <point x="384" y="0"/>
      <point x="435" y="0" type="curve"/>
      <point x="435" y="61"/>
      <point x="435" y="0"/>
      <point x="435" y="61" type="curve"/>
      <point x="282" y="61"/>
      <point x="435" y="61"/>
      <point x="282" y="61" type="curve"/>
      <point x="282" y="0"/>
      <point x="282" y="61"/>
    </contour>
    <contour>
      <point x="282" y="61" type="curve"/>
      <point x="126" y="61"/>
      <point x="282" y="61"/>
      <point x="126" y="61" type="curve"/>
      <point x="126" y="0"/>
      <point x="126" y="61"/>
      <point x="126" y="0" type="curve"/>
      <point x="178" y="0"/>
      <point x="230" y="0"/>
      <point x="282" y="0" type="curve"/>
      <point x="282" y="61"/>
      <point x="282" y="0"/>
    </contour>
    <contour>
      <point x="75" y="508" type="curve"/>
      <point x="300" y="682"/>
      <point x="75" y="508"/>
      <point x="300" y="682" type="curve"/>
      <point x="241" y="722"/>
      <point x="300" y="682"/>
      <point x="241" y="722" type="curve"/>
      <point x="35" y="559"/>
      <point x="241" y="722"/>
      <point x="35" y="559" type="curve"/>
      <point x="75" y="508"/>
      <point x="35" y="559"/>
    </contour>
    <contour>
      <point x="319" y="0" type="curve"/>
      <point x="319" y="241"/>
      <point x="319" y="481"/>
      <point x="319" y="722" type="curve"/>
      <point x="241" y="722"/>
      <point x="319" y="722"/>
      <point x="241" y="722" type="curve"/>
      <point x="241" y="481"/>
      <point x="241" y="241"/>
      <point x="241" y="0" type="curve"/>
      <point x="319" y="0"/>
      <point x="241" y="0"/>
    </contour>
  </outline>
</glyph>
<glyph name="two" format="1">
  <advance width="626"/>
  <unicode hex="0032"/>
  <outline>
    <contour>
      <point x="557" y="61" type="curve"/>
      <point x="557" y="176"/>
      <point x="557" y="57"/>
      <point x="557" y="173" type="curve"/>
      <point x="495" y="173"/>
      <point x="557" y="173"/>
      <point x="495" y="173" type="curve"/>
      <point x="495" y="57"/>
      <point x="495" y="176"/>
      <point x="495" y="61" type="curve"/>
      <point x="557" y="61"/>
      <point x="495" y="61"/>
    </contour>
    <contour>
      <point x="51" y="0" type="curve"/>
      <point x="241" y="0"/>
      <point x="401" y="0"/>
      <point x="557" y="0" type="curve"/>
      <point x="557" y="61"/>
      <point x="557" y="0"/>
      <point x="557" y="61" type="curve"/>
      <point x="388" y="61"/>
      <point x="220" y="61"/>
      <point x="51" y="61" type="curve"/>
      <point x="51" y="0"/>
      <point x="51" y="61"/>
    </contour>
    <contour>
      <point x="119" y="541" type="curve"/>
      <point x="170" y="615"/>
      <point x="216" y="663"/>
      <point x="301" y="663" type="curve"/>
      <point x="395" y="663"/>
      <point x="451" y="612"/>
      <point x="451" y="516" type="curve"/>
      <point x="451" y="401"/>
      <point x="369" y="325"/>
      <point x="285" y="258" type="curve"/>
      <point x="207" y="192"/>
      <point x="130" y="127"/>
      <point x="51" y="61" type="curve"/>
      <point x="57" y="0"/>
      <point x="51" y="61"/>
      <point x="57" y="0" type="curve"/>
      <point x="171" y="68"/>
      <point x="251" y="141"/>
      <point x="334" y="212" type="curve"/>
      <point x="435" y="291"/>
      <point x="524" y="375"/>
      <point x="524" y="519" type="curve"/>
      <point x="524" y="655"/>
      <point x="441" y="727"/>
      <point x="305" y="727" type="curve"/>
      <point x="193" y="727"/>
      <point x="117" y="671"/>
      <point x="65" y="575" type="curve"/>
      <point x="119" y="541"/>
      <point x="65" y="575"/>
    </contour>
  </outline>
</glyph>
<glyph name="three" format="1">
  <advance width="576"/>
  <unicode hex="0033"/>
  <outline>
    <contour>
      <point x="54" y="56" type="curve"/>
      <point x="114" y="19"/>
      <point x="174" y="-5"/>
      <point x="255" y="-5" type="curve"/>
      <point x="409" y="-5"/>
      <point x="515" y="54"/>
      <point x="515" y="205" type="curve"/>
      <point x="515" y="342"/>
      <point x="368" y="400"/>
      <point x="166" y="400" type="curve"/>
      <point x="166" y="352"/>
      <point x="166" y="397"/>
      <point x="166" y="349" type="curve"/>
      <point x="308" y="349"/>
      <point x="440" y="306"/>
      <point x="440" y="202" type="curve"/>
      <point x="440" y="96"/>
      <point x="354" y="60"/>
      <point x="257" y="60" type="curve"/>
      <point x="199" y="60"/>
      <point x="150" y="76"/>
      <point x="91" y="106" type="curve"/>
      <point x="54" y="56"/>
      <point x="91" y="106"/>
    </contour>
    <contour>
      <point x="102" y="597" type="curve"/>
      <point x="136" y="630"/>
      <point x="190" y="663"/>
      <point x="251" y="663" type="curve"/>
      <point x="343" y="663"/>
      <point x="405" y="628"/>
      <point x="405" y="541" type="curve"/>
      <point x="405" y="449"/>
      <point x="293" y="409"/>
      <point x="166" y="409" type="curve"/>
      <point x="166" y="361"/>
      <point x="166" y="406"/>
      <point x="166" y="358" type="curve"/>
      <point x="341" y="358"/>
      <point x="480" y="412"/>
      <point x="480" y="543" type="curve"/>
      <point x="480" y="669"/>
      <point x="390" y="727"/>
      <point x="258" y="727" type="curve"/>
      <point x="172" y="727"/>
      <point x="98" y="686"/>
      <point x="58" y="640" type="curve"/>
      <point x="102" y="597"/>
      <point x="58" y="640"/>
    </contour>
  </outline>
</glyph>
<glyph name="four" format="1">
  <advance width="652"/>
  <unicode hex="0034"/>
  <outline>
    <contour>
      <point x="400" y="61" type="line"/>
      <point x="258" y="61" type="line"/>
      <point x="258" y="0" type="line"/>
      <point x="400" y="0" type="line"/>
    </contour>
    <contour>
      <point x="400" y="0" type="line"/>
      <point x="539" y="0" type="line"/>
      <point x="539" y="61" type="line"/>
      <point x="400" y="61" type="line"/>
    </contour>
    <contour>
      <point x="67" y="258" type="line"/>
      <point x="424" y="693" type="line"/>
      <point x="362" y="711" type="line"/>
      <point x="34" y="314" type="line"/>
    </contour>
    <contour>
      <point x="606" y="314" type="line"/>
      <point x="34" y="314" type="line"/>
      <point x="34" y="248" type="line"/>
      <point x="606" y="248" type="line"/>
    </contour>
    <contour>
      <point x="440" y="21" type="line"/>
      <point x="440" y="711" type="line"/>
      <point x="363" y="711" type="line"/>
      <point x="363" y="21" type="line"/>
    </contour>
  </outline>
</glyph>
<glyph name="five" format="1">
  <advance width="564"/>
  <unicode hex="0035"/>
  <outline>
    <contour>
      <point x="94" y="722" type="curve"/>
      <point x="94" y="622"/>
      <point x="94" y="513"/>
      <point x="94" y="391" type="curve"/>
      <point x="168" y="370"/>
      <point x="94" y="391"/>
      <point x="168" y="370" type="curve"/>
      <point x="168" y="466"/>
      <point x="168" y="567"/>
      <point x="168" y="661" type="curve"/>
      <point x="94" y="722"/>
      <point x="168" y="661"/>
    </contour>
    <contour>
      <point x="168" y="370" type="curve"/>
      <point x="190" y="386"/>
      <point x="236" y="398"/>
      <point x="269" y="398" type="curve"/>
      <point x="371" y="398"/>
      <point x="430" y="334"/>
      <point x="430" y="232" type="curve"/>
      <point x="430" y="129"/>
      <point x="356" y="59"/>
      <point x="251" y="59" type="curve"/>
      <point x="192" y="59"/>
      <point x="147" y="72"/>
      <point x="90" y="99" type="curve"/>
      <point x="53" y="44"/>
      <point x="90" y="99"/>
      <point x="53" y="44" type="curve"/>
      <point x="116" y="11"/>
      <point x="175" y="-5"/>
      <point x="248" y="-5" type="curve"/>
      <point x="398" y="-5"/>
      <point x="508" y="86"/>
      <point x="508" y="232" type="curve"/>
      <point x="508" y="372"/>
      <point x="417" y="462"/>
      <point x="275" y="462" type="curve"/>
      <point x="214" y="462"/>
      <point x="141" y="443"/>
      <point x="94" y="394" type="curve"/>
      <point x="168" y="370"/>
      <point x="94" y="394"/>
    </contour>
    <contour>
      <point x="482" y="722" type="curve"/>
      <point x="348" y="722"/>
      <point x="221" y="722"/>
      <point x="94" y="722" type="curve"/>
      <point x="168" y="661"/>
      <point x="94" y="722"/>
      <point x="168" y="661" type="curve"/>
      <point x="271" y="661"/>
      <point x="373" y="661"/>
      <point x="482" y="661" type="curve"/>
      <point x="482" y="722"/>
      <point x="482" y="661"/>
    </contour>
  </outline>
</glyph>
<glyph name="six" format="1">
  <advance width="626"/>
  <unicode hex="0036"/>
  <outline>
    <contour>
      <point x="123" y="224" type="curve"/>
      <point x="160" y="311"/>
      <point x="228" y="363"/>
      <point x="323" y="363" type="curve"/>
      <point x="424" y="363"/>
      <point x="484" y="311"/>
      <point x="484" y="212" type="curve"/>
      <point x="484" y="119"/>
      <point x="423" y="63"/>
      <point x="326" y="63" type="curve"/>
      <point x="206" y="63"/>
      <point x="134" y="132"/>
      <point x="134" y="250" type="curve"/>
      <point x="134" y="493"/>
      <point x="312" y="605"/>
      <point x="555" y="674" type="curve"/>
      <point x="535" y="732"/>
      <point x="555" y="674"/>
      <point x="535" y="732" type="curve"/>
      <point x="266" y="661"/>
      <point x="58" y="528"/>
      <point x="58" y="247" type="curve"/>
      <point x="58" y="85"/>
      <point x="160" y="-8"/>
      <point x="324" y="-8" type="curve"/>
      <point x="470" y="-8"/>
      <point x="563" y="71"/>
      <point x="563" y="213" type="curve"/>
      <point x="563" y="353"/>
      <point x="472" y="427"/>
      <point x="332" y="427" type="curve"/>
      <point x="204" y="427"/>
      <point x="117" y="348"/>
      <point x="75" y="249" type="curve"/>
      <point x="122" y="224"/>
      <point x="75" y="249"/>
    </contour>
  </outline>
</glyph>
<glyph name="seven" format="1">
  <advance width="581"/>
  <unicode hex="0037"/>
  <outline>
    <contour>
      <point x="117" y="555" type="line"/>
      <point x="117" y="667" type="line"/>
      <point x="55" y="667" type="line"/>
      <point x="55" y="555" type="line"/>
    </contour>
    <contour>
      <point x="55" y="661" type="line"/>
      <point x="560" y="661" type="line"/>
      <point x="560" y="722" type="line"/>
      <point x="55" y="722" type="line"/>
    </contour>
    <contour>
      <point x="514" y="722" type="line"/>
      <point x="86" y="0" type="line"/>
      <point x="172" y="0" type="line"/>
      <point x="560" y="661" type="line"/>
    </contour>
  </outline>
</glyph>
<glyph name="nine" format="1">
  <advance width="626"/>
  <unicode hex="0039"/>
  <outline>
    <contour>
      <point x="506" y="489" type="curve"/>
      <point x="465" y="405"/>
      <point x="406" y="358"/>
      <point x="308" y="358" type="curve"/>
      <point x="205" y="358"/>
      <point x="141" y="412"/>
      <point x="141" y="512" type="curve"/>
      <point x="141" y="607"/>
      <point x="203" y="659"/>
      <point x="299" y="659" type="curve"/>
      <point x="420" y="659"/>
      <point x="492" y="591"/>
      <point x="492" y="472" type="curve"/>
      <point x="492" y="230"/>
      <point x="322" y="112"/>
      <point x="75" y="50" type="curve"/>
      <point x="98" y="-13"/>
      <point x="75" y="50"/>
      <point x="97" y="-13" type="curve"/>
      <point x="371" y="50"/>
      <point x="567" y="194"/>
      <point x="567" y="475" type="curve"/>
      <point x="567" y="637"/>
      <point x="467" y="730"/>
      <point x="302" y="730" type="curve"/>
      <point x="156" y="730"/>
      <point x="64" y="651"/>
      <point x="64" y="509" type="curve"/>
      <point x="64" y="369"/>
      <point x="157" y="295"/>
      <point x="301" y="295" type="curve"/>
      <point x="426" y="295"/>
      <point x="502" y="363"/>
      <point x="545" y="471" type="curve"/>
      <point x="506" y="489"/>
      <point x="545" y="471"/>
    </contour>
  </outline>
</glyph>
<glyph name="colon" format="1">
  <advance width="256"/>
  <unicode hex="003A"/>
  <outline>
    <contour>
      <point x="174" y="399" type="curve"/>
      <point x="174" y="426"/>
      <point x="154" y="440"/>
      <point x="127" y="440" type="curve"/>
      <point x="99" y="440"/>
      <point x="82" y="425"/>
      <point x="82" y="399" type="curve"/>
      <point x="167" y="399"/>
      <point x="89" y="399"/>
      <point x="174" y="399" type="curve"/>
      <point x="174" y="371"/>
      <point x="155" y="358"/>
      <point x="127" y="358" type="curve"/>
      <point x="99" y="358"/>
      <point x="82" y="372"/>
      <point x="82" y="399" type="curve"/>
      <point x="167" y="399"/>
      <point x="89" y="399"/>
    </contour>
    <contour>
      <point x="174" y="35" type="curve"/>
      <point x="174" y="62"/>
      <point x="154" y="76"/>
      <point x="127" y="76" type="curve"/>
      <point x="99" y="76"/>
      <point x="81" y="61"/>
      <point x="81" y="35" type="curve"/>
      <point x="166" y="35"/>
      <point x="89" y="35"/>
      <point x="174" y="35" type="curve"/>
      <point x="174" y="7"/>
      <point x="154" y="-6"/>
      <point x="126" y="-6" type="curve"/>
      <point x="99" y="-6"/>
      <point x="81" y="8"/>
      <point x="81" y="35" type="curve"/>
      <point x="166" y="35"/>
      <point x="89" y="35"/>
    </contour>
  </outline>
</glyph>
<glyph name="semicolon" format="1">
  <advance width="287"/>
  <unicode hex="003B"/>
  <outline>
    <contour>
      <point x="76" y="-133" type="line"/>
      <point x="155" y="-133"/>
      <point x="198" y="-74"/>
      <point x="198" y="-2" type="curve"/>
      <point x="198" y="51"/>
      <point x="178" y="89"/>
      <point x="141" y="89" type="curve"/>
      <point x="113" y="89"/>
      <point x="93" y="75"/>
      <point x="93" y="48" type="curve"/>
      <point x="93" y="23"/>
      <point x="110" y="8"/>
      <point x="137" y="5" type="curve"/>
      <point x="137" y="-25"/>
      <point x="134" y="-82"/>
      <point x="76" y="-86" type="curve"/>
    </contour>
    <contour>
      <point x="188" y="406" type="curve"/>
      <point x="188" y="433"/>
      <point x="168" y="447"/>
      <point x="141" y="447" type="curve"/>
      <point x="114" y="447"/>
      <point x="96" y="432"/>
      <point x="96" y="406" type="curve"/>
      <point x="181" y="406"/>
      <point x="103" y="406"/>
      <point x="188" y="406" type="curve"/>
      <point x="188" y="378"/>
      <point x="168" y="365"/>
      <point x="141" y="365" type="curve"/>
      <point x="113" y="365"/>
      <point x="96" y="379"/>
      <point x="96" y="406" type="curve"/>
      <point x="181" y="406"/>
      <point x="103" y="406"/>
    </contour>
  </outline>
</glyph>
<glyph name="less" format="1">
  <advance width="748"/>
  <unicode hex="003C"/>
  <outline>
    <contour>
      <point x="676" y="603" type="curve"/>
      <point x="464" y="513"/>
      <point x="252" y="423"/>
      <point x="41" y="333" type="curve"/>
      <point x="41" y="267"/>
      <point x="41" y="333"/>
      <point x="41" y="267" type="curve"/>
      <point x="252" y="357"/>
      <point x="464" y="447"/>
      <point x="676" y="537" type="curve"/>
      <point x="676" y="603"/>
      <point x="676" y="537"/>
    </contour>
    <contour>
      <point x="686" y="69" type="curve"/>
      <point x="471" y="157"/>
      <point x="256" y="245"/>
      <point x="41" y="333" type="curve"/>
      <point x="41" y="267"/>
      <point x="41" y="333"/>
      <point x="41" y="267" type="curve"/>
      <point x="256" y="179"/>
      <point x="471" y="91"/>
      <point x="686" y="3" type="curve"/>
      <point x="686" y="69"/>
      <point x="686" y="3"/>
    </contour>
  </outline>
</glyph>
<glyph name="equal" format="1">
  <advance width="825"/>
  <unicode hex="003D"/>
  <outline>
    <contour>
      <point x="84" y="186" type="curve"/>
      <point x="303" y="186"/>
      <point x="522" y="186"/>
      <point x="740" y="186" type="curve"/>
      <point x="740" y="249"/>
      <point x="740" y="186"/>
      <point x="740" y="249" type="curve"/>
      <point x="522" y="249"/>
      <point x="303" y="249"/>
      <point x="84" y="249" type="curve"/>
      <point x="84" y="186"/>
      <point x="84" y="249"/>
    </contour>
    <contour>
      <point x="84" y="408" type="curve"/>
      <point x="303" y="408"/>
      <point x="522" y="408"/>
      <point x="740" y="408" type="curve"/>
      <point x="740" y="471"/>
      <point x="740" y="408"/>
      <point x="740" y="471" type="curve"/>
      <point x="522" y="471"/>
      <point x="303" y="471"/>
      <point x="84" y="471" type="curve"/>
      <point x="84" y="408"/>
      <point x="84" y="471"/>
    </contour>
  </outline>
</glyph>
<glyph name="greater" format="1">
  <advance width="748"/>
  <unicode hex="003E"/>
  <outline>
    <contour>
      <point x="72" y="3" type="curve"/>
      <point x="284" y="93"/>
      <point x="496" y="183"/>
      <point x="708" y="273" type="curve"/>
      <point x="708" y="339"/>
      <point x="708" y="273"/>
      <point x="708" y="339" type="curve"/>
      <point x="496" y="249"/>
      <point x="284" y="159"/>
      <point x="72" y="69" type="curve"/>
      <point x="72" y="3"/>
      <point x="72" y="69"/>
    </contour>
    <contour>
      <point x="62" y="537" type="curve"/>
      <point x="277" y="449"/>
      <point x="493" y="361"/>
      <point x="708" y="273" type="curve"/>
      <point x="708" y="339"/>
      <point x="708" y="273"/>
      <point x="708" y="339" type="curve"/>
      <point x="493" y="427"/>
      <point x="277" y="515"/>
      <point x="62" y="603" type="curve"/>
      <point x="62" y="537"/>
      <point x="62" y="603"/>
    </contour>
  </outline>
</glyph>
<glyph name="question" format="1">
  <advance width="534"/>
  <unicode hex="003F"/>
  <outline>
    <contour>
      <point x="198" y="354" type="curve"/>
      <point x="198" y="317"/>
      <point x="198" y="258"/>
      <point x="198" y="221" type="curve"/>
      <point x="274" y="221"/>
      <point x="198" y="221"/>
      <point x="274" y="221" type="curve"/>
      <point x="274" y="258"/>
      <point x="274" y="317"/>
      <point x="274" y="354" type="curve"/>
      <point x="198" y="354"/>
      <point x="274" y="354"/>
    </contour>
    <contour>
      <point x="95" y="602" type="line"/>
      <point x="129" y="637"/>
      <point x="178" y="665"/>
      <point x="240" y="665" type="curve"/>
      <point x="336" y="665"/>
      <point x="400" y="613"/>
      <point x="400" y="519" type="curve"/>
      <point x="400" y="414"/>
      <point x="321" y="354"/>
      <point x="206" y="354" type="curve"/>
      <point x="206" y="328"/>
      <point x="206" y="320"/>
      <point x="206" y="294" type="curve"/>
      <point x="364" y="294"/>
      <point x="475" y="375"/>
      <point x="475" y="519" type="curve"/>
      <point x="475" y="652"/>
      <point x="380" y="729"/>
      <point x="244" y="729" type="curve"/>
      <point x="162" y="729"/>
      <point x="101" y="698"/>
      <point x="53" y="649" type="curve"/>
    </contour>
    <contour>
      <point x="281" y="23" type="curve"/>
      <point x="281" y="50"/>
      <point x="263" y="63"/>
      <point x="236" y="63" type="curve"/>
      <point x="209" y="63"/>
      <point x="192" y="48"/>
      <point x="192" y="23" type="curve"/>
      <point x="281" y="23"/>
      <point x="192" y="23"/>
      <point x="281" y="23" type="curve"/>
      <point x="281" y="-4"/>
      <point x="263" y="-16"/>
      <point x="236" y="-16" type="curve"/>
      <point x="209" y="-16"/>
      <point x="192" y="-3"/>
      <point x="192" y="23" type="curve"/>
      <point x="281" y="23"/>
      <point x="192" y="23"/>
    </contour>
  </outline>
</glyph>
<glyph name="at" format="1">
  <advance width="877"/>
  <unicode hex="0040"/>
  <outline>
    <contour>
      <point x="608" y="-50" type="curve"/>
      <point x="553" y="-77"/>
      <point x="513" y="-84"/>
      <point x="453" y="-84" type="curve"/>
      <point x="254" y="-84"/>
      <point x="130" y="16"/>
      <point x="130" y="209" type="curve"/>
      <point x="130" y="397"/>
      <point x="254" y="495"/>
      <point x="447" y="495" type="curve"/>
      <point x="630" y="495"/>
      <point x="744" y="394"/>
      <point x="744" y="215" type="curve"/>
      <point x="744" y="146"/>
      <point x="733" y="89"/>
      <point x="682" y="89" type="curve"/>
      <point x="628" y="89"/>
      <point x="613" y="144"/>
      <point x="613" y="214" type="curve"/>
      <point x="613" y="327"/>
      <point x="548" y="396"/>
      <point x="436" y="396" type="curve"/>
      <point x="315" y="396"/>
      <point x="247" y="330"/>
      <point x="247" y="212" type="curve"/>
      <point x="247" y="92"/>
      <point x="309" y="20"/>
      <point x="428" y="20" type="curve"/>
      <point x="533" y="20"/>
      <point x="583" y="90"/>
      <point x="601" y="199" type="curve"/>
      <point x="552" y="211"/>
      <point x="601" y="199"/>
      <point x="552" y="211" type="curve"/>
      <point x="533" y="137"/>
      <point x="508" y="80"/>
      <point x="438" y="80" type="curve"/>
      <point x="358" y="80"/>
      <point x="319" y="133"/>
      <point x="319" y="216" type="curve"/>
      <point x="319" y="291"/>
      <point x="357" y="335"/>
      <point x="430" y="335" type="curve"/>
      <point x="506" y="335"/>
      <point x="542" y="288"/>
      <point x="542" y="211" type="curve"/>
      <point x="542" y="107"/>
      <point x="579" y="32"/>
      <point x="676" y="32" type="curve"/>
      <point x="777" y="32"/>
      <point x="816" y="109"/>
      <point x="816" y="218" type="curve"/>
      <point x="816" y="438"/>
      <point x="676" y="558"/>
      <point x="451" y="558" type="curve"/>
      <point x="210" y="558"/>
      <point x="57" y="439"/>
      <point x="57" y="206" type="curve"/>
      <point x="57" y="-25"/>
      <point x="209" y="-145"/>
      <point x="449" y="-145" type="curve"/>
      <point x="524" y="-145"/>
      <point x="576" y="-133"/>
      <point x="637" y="-102" type="curve"/>
      <point x="608" y="-50"/>
      <point x="637" y="-102"/>
    </contour>
  </outline>
</glyph>
<glyph name="A" format="1">
  <advance width="838"/>
  <unicode hex="0041"/>
  <outline>
    <contour>
      <point x="119" y="61" type="curve"/>
      <point x="-23" y="61"/>
      <point x="127" y="61"/>
      <point x="-15" y="61" type="curve"/>
      <point x="-15" y="0"/>
      <point x="-15" y="61"/>
      <point x="-15" y="0" type="curve"/>
      <point x="32" y="0"/>
      <point x="72" y="0"/>
      <point x="119" y="0" type="curve"/>
      <point x="119" y="61"/>
      <point x="119" y="0"/>
    </contour>
    <contour>
      <point x="119" y="0" type="curve"/>
      <point x="175" y="0"/>
      <point x="114" y="0"/>
      <point x="280" y="0" type="curve"/>
      <point x="280" y="61"/>
      <point x="280" y="0"/>
      <point x="280" y="61" type="curve"/>
      <point x="114" y="61"/>
      <point x="285" y="61"/>
      <point x="119" y="61" type="curve"/>
      <point x="119" y="0"/>
      <point x="119" y="61"/>
    </contour>
    <contour>
      <point x="690" y="0" type="curve"/>
      <point x="737" y="0"/>
      <point x="777" y="0"/>
      <point x="824" y="0" type="curve"/>
      <point x="824" y="61"/>
      <point x="824" y="0"/>
      <point x="824" y="61" type="curve"/>
      <point x="682" y="61"/>
      <point x="831" y="61"/>
      <point x="690" y="61" type="curve"/>
      <point x="690" y="0"/>
      <point x="690" y="61"/>
    </contour>
    <contour>
      <point x="690" y="61" type="curve"/>
      <point x="524" y="61"/>
      <point x="695" y="61"/>
      <point x="529" y="61" type="curve"/>
      <point x="529" y="0"/>
      <point x="529" y="61"/>
      <point x="529" y="0" type="curve"/>
      <point x="585" y="0"/>
      <point x="634" y="0"/>
      <point x="690" y="0" type="curve"/>
      <point x="690" y="61"/>
      <point x="690" y="0"/>
    </contour>
    <contour>
      <point x="587" y="289" type="curve"/>
      <point x="472" y="289"/>
      <point x="356" y="289"/>
      <point x="241" y="289" type="curve"/>
      <point x="209" y="225"/>
      <point x="241" y="289"/>
      <point x="209" y="225" type="curve"/>
      <point x="343" y="225"/>
      <point x="478" y="225"/>
      <point x="612" y="225" type="curve"/>
      <point x="587" y="289"/>
      <point x="612" y="225"/>
    </contour>
    <contour>
      <point x="743" y="0" type="curve"/>
      <point x="648" y="241"/>
      <point x="551" y="481"/>
      <point x="457" y="722" type="curve"/>
      <point x="386" y="722"/>
      <point x="457" y="722"/>
      <point x="386" y="722" type="curve"/>
      <point x="479" y="482"/>
      <point x="568" y="240"/>
      <point x="661" y="0" type="curve"/>
      <point x="743" y="0"/>
      <point x="661" y="0"/>
    </contour>
    <contour>
      <point x="149" y="0" type="curve"/>
      <point x="253" y="240"/>
      <point x="351" y="482"/>
      <point x="455" y="722" type="curve"/>
      <point x="384" y="722"/>
      <point x="455" y="722"/>
      <point x="384" y="722" type="curve"/>
      <point x="279" y="481"/>
      <point x="169" y="241"/>
      <point x="64" y="0" type="curve"/>
      <point x="149" y="0"/>
      <point x="64" y="0"/>
    </contour>
    <contour>
      <point x="419" y="806" type="move" name="top"/>
    </contour>
    <contour>
      <point x="726" y="2" type="move" name="bottom"/>
    </contour>
  </outline>
</glyph>
<glyph name="D" format="1">
  <advance width="825"/>
  <unicode hex="0044"/>
  <outline>
    <contour>
      <point x="201" y="61" type="curve"/>
      <point x="49" y="61"/>
      <point x="206" y="61"/>
      <point x="54" y="61" type="curve"/>
      <point x="54" y="0"/>
      <point x="54" y="61"/>
      <point x="54" y="0" type="curve"/>
      <point x="105" y="0"/>
      <point x="150" y="0"/>
      <point x="201" y="0" type="curve"/>
      <point x="201" y="61"/>
      <point x="201" y="0"/>
    </contour>
    <contour>
      <point x="201" y="722" type="curve"/>
      <point x="150" y="722"/>
      <point x="105" y="722"/>
      <point x="54" y="722" type="curve"/>
      <point x="54" y="661"/>
      <point x="54" y="722"/>
      <point x="54" y="661" type="curve"/>
      <point x="206" y="661"/>
      <point x="49" y="661"/>
      <point x="201" y="661" type="curve"/>
      <point x="201" y="722"/>
      <point x="201" y="661"/>
    </contour>
    <contour>
      <point x="159" y="722" type="curve"/>
      <point x="159" y="481"/>
      <point x="159" y="241"/>
      <point x="159" y="0" type="curve"/>
      <point x="238" y="0"/>
      <point x="159" y="0"/>
      <point x="238" y="0" type="curve"/>
      <point x="238" y="241"/>
      <point x="238" y="481"/>
      <point x="238" y="722" type="curve"/>
      <point x="159" y="722"/>
      <point x="238" y="722"/>
    </contour>
    <contour>
      <point x="201" y="0" type="curve"/>
      <point x="269" y="0"/>
      <point x="332" y="0"/>
      <point x="401" y="0" type="curve"/>
      <point x="636" y="0"/>
      <point x="764" y="121"/>
      <point x="764" y="353" type="curve"/>
      <point x="764" y="595"/>
      <point x="633" y="722"/>
      <point x="391" y="722" type="curve"/>
      <point x="326" y="722"/>
      <point x="265" y="722"/>
      <point x="201" y="722" type="curve"/>
      <point x="201" y="665"/>
      <point x="201" y="718"/>
      <point x="201" y="661" type="curve"/>
      <point x="264" y="661"/>
      <point x="324" y="661"/>
      <point x="387" y="661" type="curve"/>
      <point x="586" y="661"/>
      <point x="687" y="551"/>
      <point x="687" y="352" type="curve"/>
      <point x="687" y="165"/>
      <point x="593" y="61"/>
      <point x="408" y="61" type="curve"/>
      <point x="337" y="61"/>
      <point x="271" y="61"/>
      <point x="201" y="61" type="curve"/>
      <point x="201" y="4"/>
      <point x="201" y="57"/>
    </contour>
    <contour>
      <point x="374" y="806" type="move" name="top"/>
    </contour>
  </outline>
</glyph>
<glyph name="F" format="1">
  <advance width="657"/>
  <unicode hex="0046"/>
  <outline>
    <contour>
      <point x="199" y="0" type="curve"/>
      <point x="250" y="0"/>
      <point x="199" y="0"/>
      <point x="351" y="0" type="curve"/>
      <point x="351" y="61"/>
      <point x="351" y="0"/>
      <point x="351" y="61" type="curve"/>
      <point x="199" y="61"/>
      <point x="351" y="61"/>
      <point x="199" y="61" type="curve"/>
      <point x="199" y="0"/>
      <point x="199" y="61"/>
    </contour>
    <contour>
      <point x="199" y="722" type="curve"/>
      <point x="149" y="722"/>
      <point x="104" y="722"/>
      <point x="53" y="722" type="curve"/>
      <point x="53" y="661"/>
      <point x="53" y="722"/>
      <point x="53" y="661" type="curve"/>
      <point x="205" y="661"/>
      <point x="48" y="661"/>
      <point x="199" y="661" type="curve"/>
      <point x="199" y="722"/>
      <point x="199" y="661"/>
    </contour>
    <contour>
      <point x="199" y="61" type="curve"/>
      <point x="48" y="61"/>
      <point x="205" y="61"/>
      <point x="53" y="61" type="curve"/>
      <point x="53" y="0"/>
      <point x="53" y="61"/>
      <point x="53" y="0" type="curve"/>
      <point x="104" y="0"/>
      <point x="149" y="0"/>
      <point x="199" y="0" type="curve"/>
      <point x="199" y="61"/>
      <point x="199" y="0"/>
    </contour>
    <contour>
      <point x="553" y="692" type="curve"/>
      <point x="553" y="572"/>
      <point x="553" y="695"/>
      <point x="553" y="575" type="curve"/>
      <point x="616" y="575"/>
      <point x="553" y="575"/>
      <point x="616" y="575" type="curve"/>
      <point x="616" y="695"/>
      <point x="616" y="572"/>
      <point x="616" y="692" type="curve"/>
      <point x="553" y="692"/>
      <point x="616" y="692"/>
    </contour>
    <contour>
      <point x="203" y="343" type="curve"/>
      <point x="315" y="343"/>
      <point x="427" y="343"/>
      <point x="539" y="343" type="curve"/>
      <point x="539" y="404"/>
      <point x="539" y="343"/>
      <point x="539" y="404" type="curve"/>
      <point x="427" y="404"/>
      <point x="315" y="404"/>
      <point x="203" y="404" type="curve"/>
      <point x="203" y="343"/>
      <point x="203" y="404"/>
    </contour>
    <contour>
      <point x="238" y="0" type="curve"/>
      <point x="238" y="722" type="line"/>
      <point x="160" y="722"/>
      <point x="238" y="722"/>
      <point x="160" y="722" type="curve"/>
      <point x="160" y="481"/>
      <point x="160" y="241"/>
      <point x="160" y="0" type="curve"/>
      <point x="238" y="0"/>
      <point x="160" y="0"/>
    </contour>
    <contour>
      <point x="188" y="661" type="curve"/>
      <point x="330" y="661"/>
      <point x="473" y="661"/>
      <point x="616" y="661" type="curve"/>
      <point x="616" y="722"/>
      <point x="616" y="661"/>
      <point x="616" y="722" type="curve"/>
      <point x="473" y="722"/>
      <point x="330" y="722"/>
      <point x="188" y="722" type="curve"/>
      <point x="188" y="661"/>
      <point x="188" y="722"/>
    </contour>
  </outline>
</glyph>
<glyph name="G" format="1">
  <advance width="820"/>
  <unicode hex="0047"/>
  <outline>
    <contour>
      <point x="671" y="643" type="curve"/>
      <point x="671" y="520"/>
      <point x="671" y="637"/>
      <point x="671" y="513" type="curve"/>
      <point x="732" y="513"/>
      <point x="671" y="513"/>
      <point x="732" y="513" type="curve"/>
      <point x="732" y="637"/>
      <point x="732" y="520"/>
      <point x="732" y="643" type="curve"/>
      <point x="671" y="643"/>
      <point x="732" y="643"/>
    </contour>
    <contour>
      <point x="728" y="341" type="curve"/>
      <point x="652" y="341"/>
      <point x="575" y="341"/>
      <point x="499" y="341" type="curve"/>
      <point x="499" y="281"/>
      <point x="499" y="341"/>
      <point x="499" y="281" type="curve"/>
      <point x="575" y="281"/>
      <point x="652" y="281"/>
      <point x="728" y="281" type="curve"/>
      <point x="728" y="341"/>
      <point x="728" y="281"/>
    </contour>
    <contour>
      <point x="750" y="78" type="curve"/>
      <point x="750" y="166"/>
      <point x="750" y="253"/>
      <point x="750" y="341" type="curve"/>
      <point x="679" y="341"/>
      <point x="750" y="341"/>
      <point x="679" y="341" type="curve"/>
      <point x="679" y="253"/>
      <point x="679" y="166"/>
      <point x="679" y="78" type="curve"/>
      <point x="750" y="78"/>
      <point x="679" y="78"/>
    </contour>
    <contour>
      <point x="732" y="643" type="curve"/>
      <point x="634" y="701"/>
      <point x="545" y="727"/>
      <point x="431" y="727" type="curve"/>
      <point x="198" y="727"/>
      <point x="61" y="596"/>
      <point x="61" y="363" type="curve"/>
      <point x="61" y="125"/>
      <point x="204" y="-5"/>
      <point x="442" y="-5" type="curve"/>
      <point x="565" y="-5"/>
      <point x="642" y="22"/>
      <point x="750" y="78" type="curve"/>
      <point x="710" y="124"/>
      <point x="750" y="78"/>
      <point x="710" y="124" type="curve"/>
      <point x="622" y="79"/>
      <point x="547" y="59"/>
      <point x="442" y="59" type="curve"/>
      <point x="247" y="59"/>
      <point x="139" y="172"/>
      <point x="139" y="369" type="curve"/>
      <point x="139" y="555"/>
      <point x="245" y="664"/>
      <point x="431" y="664" type="curve"/>
      <point x="530" y="664"/>
      <point x="608" y="642"/>
      <point x="693" y="592" type="curve"/>
      <point x="732" y="643"/>
      <point x="693" y="592"/>
    </contour>
    <contour>
      <point x="430" y="806" type="move" name="top"/>
    </contour>
    <contour>
      <point x="465" y="-17" type="move" name="bottom"/>
    </contour>
  </outline>
</glyph>
<glyph name="H" format="1">
  <advance width="901"/>
  <unicode hex="0048"/>
  <outline>
    <contour>
      <point x="714" y="661" type="curve"/>
      <point x="872" y="661"/>
      <point x="702" y="661"/>
      <point x="860" y="661" type="curve"/>
      <point x="860" y="722"/>
      <point x="860" y="661"/>
      <point x="860" y="722" type="curve"/>
      <point x="807" y="722"/>
      <point x="766" y="722"/>
      <point x="714" y="722" type="curve"/>
      <point x="714" y="661"/>
      <point x="714" y="722"/>
    </contour>
    <contour>
      <point x="714" y="0" type="curve"/>
      <point x="766" y="0"/>
      <point x="807" y="0"/>
      <point x="860" y="0" type="curve"/>
      <point x="860" y="61"/>
      <point x="860" y="0"/>
      <point x="860" y="61" type="curve"/>
      <point x="702" y="61"/>
      <point x="872" y="61"/>
      <point x="714" y="61" type="curve"/>
      <point x="714" y="0"/>
      <point x="714" y="61"/>
    </contour>
    <contour>
      <point x="714" y="61" type="curve"/>
      <point x="556" y="61"/>
      <point x="726" y="61"/>
      <point x="568" y="61" type="curve"/>
      <point x="568" y="0"/>
      <point x="568" y="61"/>
      <point x="568" y="0" type="curve"/>
      <point x="620" y="0"/>
      <point x="661" y="0"/>
      <point x="714" y="0" type="curve"/>
      <point x="714" y="61"/>
      <point x="714" y="0"/>
    </contour>
    <contour>
      <point x="714" y="722" type="curve"/>
      <point x="661" y="722"/>
      <point x="620" y="722"/>
      <point x="568" y="722" type="curve"/>
      <point x="568" y="661"/>
      <point x="568" y="722"/>
      <point x="568" y="661" type="curve"/>
      <point x="726" y="661"/>
      <point x="556" y="661"/>
      <point x="714" y="661" type="curve"/>
      <point x="714" y="722"/>
      <point x="714" y="661"/>
    </contour>
    <contour>
      <point x="188" y="661" type="curve"/>
      <point x="346" y="661"/>
      <point x="176" y="661"/>
      <point x="334" y="661" type="curve"/>
      <point x="334" y="722"/>
      <point x="334" y="661"/>
      <point x="334" y="722" type="curve"/>
      <point x="282" y="722"/>
      <point x="241" y="722"/>
      <point x="188" y="722" type="curve"/>
      <point x="188" y="661"/>
      <point x="188" y="722"/>
    </contour>
    <contour>
      <point x="188" y="722" type="curve"/>
      <point x="135" y="722"/>
      <point x="95" y="722"/>
      <point x="42" y="722" type="curve"/>
      <point x="42" y="661"/>
      <point x="42" y="722"/>
      <point x="42" y="661" type="curve"/>
      <point x="200" y="661"/>
      <point x="30" y="661"/>
      <point x="188" y="661" type="curve"/>
      <point x="188" y="722"/>
      <point x="188" y="661"/>
    </contour>
    <contour>
      <point x="188" y="0" type="curve"/>
      <point x="241" y="0"/>
      <point x="176" y="0"/>
      <point x="334" y="0" type="curve"/>
      <point x="334" y="61"/>
      <point x="334" y="0"/>
      <point x="334" y="61" type="curve"/>
      <point x="176" y="61"/>
      <point x="346" y="61"/>
      <point x="188" y="61" type="curve"/>
      <point x="188" y="0"/>
      <point x="188" y="61"/>
    </contour>
    <contour>
      <point x="188" y="61" type="curve"/>
      <point x="30" y="61"/>
      <point x="200" y="61"/>
      <point x="42" y="61" type="curve"/>
      <point x="42" y="0"/>
      <point x="42" y="61"/>
      <point x="42" y="0" type="curve"/>
      <point x="95" y="0"/>
      <point x="135" y="0"/>
      <point x="188" y="0" type="curve"/>
      <point x="188" y="61"/>
      <point x="188" y="0"/>
    </contour>
    <contour>
      <point x="227" y="0" type="curve"/>
      <point x="227" y="722" type="line"/>
      <point x="149" y="722"/>
      <point x="227" y="722"/>
      <point x="149" y="722" type="curve"/>
      <point x="149" y="481"/>
      <point x="149" y="241"/>
      <point x="149" y="0" type="curve"/>
      <point x="227" y="0"/>
      <point x="149" y="0"/>
    </contour>
    <contour>
      <point x="711" y="393" type="curve"/>
      <point x="536" y="393"/>
      <point x="362" y="393"/>
      <point x="188" y="393" type="curve"/>
      <point x="188" y="332"/>
      <point x="188" y="393"/>
      <point x="188" y="332" type="curve"/>
      <point x="362" y="332"/>
      <point x="536" y="332"/>
      <point x="711" y="332" type="curve"/>
      <point x="711" y="393"/>
      <point x="711" y="332"/>
    </contour>
    <contour>
      <point x="752" y="21" type="curve"/>
      <point x="752" y="248"/>
      <point x="752" y="474"/>
      <point x="752" y="701" type="curve"/>
      <point x="674" y="701"/>
      <point x="752" y="701"/>
      <point x="674" y="701" type="curve"/>
      <point x="674" y="21" type="line"/>
      <point x="752" y="21"/>
      <point x="674" y="21"/>
    </contour>
  </outline>
</glyph>
<glyph name="J" format="1">
  <advance width="499"/>
  <unicode hex="004A"/>
  <outline>
    <contour>
      <point x="333" y="722" type="curve"/>
      <point x="282" y="722"/>
      <point x="243" y="722"/>
      <point x="191" y="722" type="curve"/>
      <point x="191" y="661"/>
      <point x="191" y="722"/>
      <point x="191" y="661" type="curve"/>
      <point x="345" y="661"/>
      <point x="179" y="661"/>
      <point x="333" y="661" type="curve"/>
      <point x="333" y="722"/>
      <point x="333" y="661"/>
    </contour>
    <contour>
      <point x="333" y="661" type="curve"/>
      <point x="485" y="661"/>
      <point x="321" y="661"/>
      <point x="473" y="661" type="curve"/>
      <point x="473" y="722"/>
      <point x="473" y="661"/>
      <point x="473" y="722" type="curve"/>
      <point x="423" y="722"/>
      <point x="384" y="722"/>
      <point x="333" y="722" type="curve"/>
      <point x="333" y="661"/>
      <point x="333" y="722"/>
    </contour>
    <contour>
      <point x="17" y="42" type="curve"/>
      <point x="50" y="20"/>
      <point x="96" y="-3"/>
      <point x="153" y="-3" type="curve"/>
      <point x="296" y="-3"/>
      <point x="371" y="78"/>
      <point x="371" y="229" type="curve"/>
      <point x="371" y="399"/>
      <point x="371" y="552"/>
      <point x="371" y="722" type="curve"/>
      <point x="297" y="722"/>
      <point x="367" y="722"/>
      <point x="293" y="722" type="curve"/>
      <point x="293" y="552"/>
      <point x="293" y="399"/>
      <point x="293" y="229" type="curve"/>
      <point x="293" y="126"/>
      <point x="251" y="58"/>
      <point x="153" y="58" type="curve"/>
      <point x="112" y="58"/>
      <point x="85" y="73"/>
      <point x="53" y="90" type="curve"/>
      <point x="19" y="45"/>
      <point x="50" y="87"/>
    </contour>
  </outline>
</glyph>
<glyph name="K" format="1">
  <advance width="761"/>
  <unicode hex="004B"/>
  <outline>
    <contour>
      <point x="592" y="722" type="curve"/>
      <point x="539" y="722"/>
      <point x="473" y="722"/>
      <point x="420" y="722" type="curve"/>
      <point x="420" y="661"/>
      <point x="420" y="722"/>
      <point x="420" y="661" type="curve"/>
      <point x="579" y="661"/>
      <point x="432" y="661"/>
      <point x="592" y="661" type="curve"/>
      <point x="592" y="722"/>
      <point x="592" y="661"/>
    </contour>
    <contour>
      <point x="609" y="0" type="curve"/>
      <point x="665" y="0"/>
      <point x="687" y="0"/>
      <point x="743" y="0" type="curve"/>
      <point x="743" y="61"/>
      <point x="743" y="0"/>
      <point x="743" y="61" type="curve"/>
      <point x="576" y="61"/>
      <point x="776" y="61"/>
      <point x="609" y="61" type="curve"/>
      <point x="609" y="0"/>
      <point x="609" y="61"/>
    </contour>
    <contour>
      <point x="587" y="661" type="curve"/>
      <point x="740" y="661"/>
      <point x="559" y="661"/>
      <point x="712" y="661" type="curve"/>
      <point x="712" y="722"/>
      <point x="712" y="661"/>
      <point x="712" y="722" type="curve"/>
      <point x="660" y="722"/>
      <point x="637" y="722"/>
      <point x="587" y="722" type="curve"/>
      <point x="587" y="661"/>
      <point x="587" y="722"/>
    </contour>
    <contour>
      <point x="187" y="722" type="curve"/>
      <point x="135" y="722"/>
      <point x="94" y="722"/>
      <point x="42" y="722" type="curve"/>
      <point x="42" y="661"/>
      <point x="42" y="722"/>
      <point x="42" y="661" type="curve"/>
      <point x="199" y="661"/>
      <point x="30" y="661"/>
      <point x="187" y="661" type="curve"/>
      <point x="187" y="722"/>
      <point x="187" y="661"/>
    </contour>
    <contour>
      <point x="187" y="661" type="curve"/>
      <point x="340" y="661"/>
      <point x="168" y="661"/>
      <point x="321" y="661" type="curve"/>
      <point x="321" y="722"/>
      <point x="321" y="661"/>
      <point x="321" y="722" type="curve"/>
      <point x="270" y="722"/>
      <point x="238" y="722"/>
      <point x="187" y="722" type="curve"/>
      <point x="187" y="661"/>
      <point x="187" y="722"/>
    </contour>
    <contour>
      <point x="187" y="0" type="curve"/>
      <point x="241" y="0"/>
      <point x="165" y="0"/>
      <point x="326" y="0" type="curve"/>
      <point x="326" y="61"/>
      <point x="326" y="0"/>
      <point x="326" y="61" type="curve"/>
      <point x="165" y="61"/>
      <point x="348" y="61"/>
      <point x="187" y="61" type="curve"/>
      <point x="187" y="0"/>
      <point x="187" y="61"/>
    </contour>
    <contour>
      <point x="187" y="61" type="curve"/>
      <point x="30" y="61"/>
      <point x="199" y="61"/>
      <point x="42" y="61" type="curve"/>
      <point x="42" y="0"/>
      <point x="42" y="61"/>
      <point x="42" y="0" type="curve"/>
      <point x="94" y="0"/>
      <point x="135" y="0"/>
      <point x="187" y="0" type="curve"/>
      <point x="187" y="61"/>
      <point x="187" y="0"/>
    </contour>
    <contour>
      <point x="570" y="722" type="curve"/>
      <point x="203" y="380" type="line"/>
      <point x="300" y="380"/>
      <point x="202" y="380"/>
      <point x="299" y="380" type="curve"/>
      <point x="645" y="698" type="line"/>
      <point x="549" y="698"/>
      <point x="665" y="722"/>
    </contour>
    <contour>
      <point x="226" y="0" type="curve"/>
      <point x="226" y="722" type="line"/>
      <point x="148" y="722"/>
      <point x="226" y="722"/>
      <point x="148" y="722" type="curve"/>
      <point x="148" y="481"/>
      <point x="148" y="241"/>
      <point x="148" y="0" type="curve"/>
      <point x="226" y="0"/>
      <point x="148" y="0"/>
    </contour>
    <contour>
      <point x="675" y="22" type="curve"/>
      <point x="299" y="380" type="line"/>
      <point x="202" y="380"/>
      <point x="300" y="380"/>
      <point x="203" y="380" type="curve"/>
      <point x="593" y="0" type="line"/>
      <point x="694" y="0"/>
      <point x="573" y="22"/>
    </contour>
    <contour>
      <point x="428" y="-20" type="move" name="bottom"/>
    </contour>
  </outline>
</glyph>
<glyph name="M" format="1">
  <advance width="1049"/>
  <unicode hex="004D"/>
  <outline>
    <contour>
      <point x="882" y="0" type="curve"/>
      <point x="935" y="0"/>
      <point x="975" y="0"/>
      <point x="1026" y="0" type="curve"/>
      <point x="1026" y="61"/>
      <point x="1026" y="0"/>
      <point x="1026" y="61" type="curve"/>
      <point x="870" y="61"/>
      <point x="1038" y="61"/>
      <point x="882" y="61" type="curve"/>
      <point x="882" y="0"/>
      <point x="882" y="61"/>
    </contour>
    <contour>
      <point x="882" y="61" type="curve"/>
      <point x="728" y="61"/>
      <point x="894" y="61"/>
      <point x="740" y="61" type="curve"/>
      <point x="740" y="0"/>
      <point x="740" y="61"/>
      <point x="740" y="0" type="curve"/>
      <point x="792" y="0"/>
      <point x="831" y="0"/>
      <point x="882" y="0" type="curve"/>
      <point x="882" y="61"/>
      <point x="882" y="0"/>
    </contour>
    <contour>
      <point x="168" y="61" type="curve"/>
      <point x="12" y="61"/>
      <point x="180" y="61"/>
      <point x="24" y="61" type="curve"/>
      <point x="24" y="0"/>
      <point x="24" y="61"/>
      <point x="24" y="0" type="curve"/>
      <point x="76" y="0"/>
      <point x="116" y="0"/>
      <point x="168" y="0" type="curve"/>
      <point x="168" y="61"/>
      <point x="168" y="0"/>
    </contour>
    <contour>
      <point x="228" y="722" type="curve"/>
      <point x="175" y="722"/>
      <point x="135" y="722"/>
      <point x="83" y="722" type="curve"/>
      <point x="83" y="661"/>
      <point x="83" y="722"/>
      <point x="83" y="661" type="curve"/>
      <point x="240" y="661"/>
      <point x="71" y="661"/>
      <point x="228" y="661" type="curve"/>
      <point x="228" y="722"/>
      <point x="228" y="661"/>
    </contour>
    <contour>
      <point x="821" y="661" type="curve"/>
      <point x="977" y="661"/>
      <point x="809" y="661"/>
      <point x="965" y="661" type="curve"/>
      <point x="965" y="722"/>
      <point x="965" y="661"/>
      <point x="965" y="722" type="curve"/>
      <point x="913" y="722"/>
      <point x="873" y="722"/>
      <point x="821" y="722" type="curve"/>
      <point x="821" y="661"/>
      <point x="821" y="722"/>
    </contour>
    <contour>
      <point x="168" y="0" type="curve"/>
      <point x="219" y="0"/>
      <point x="156" y="0"/>
      <point x="310" y="0" type="curve"/>
      <point x="310" y="61"/>
      <point x="310" y="0"/>
      <point x="310" y="61" type="curve"/>
      <point x="156" y="61"/>
      <point x="323" y="61"/>
      <point x="168" y="61" type="curve"/>
      <point x="168" y="0"/>
      <point x="168" y="61"/>
    </contour>
    <contour>
      <point x="925" y="0" type="curve"/>
      <point x="903" y="241"/>
      <point x="879" y="481"/>
      <point x="857" y="722" type="curve"/>
      <point x="786" y="722"/>
      <point x="857" y="722"/>
      <point x="786" y="722" type="curve"/>
      <point x="807" y="481"/>
      <point x="826" y="241"/>
      <point x="847" y="0" type="curve"/>
      <point x="925" y="0"/>
      <point x="847" y="0"/>
    </contour>
    <contour>
      <point x="202" y="0" type="curve"/>
      <point x="222" y="241"/>
      <point x="241" y="481"/>
      <point x="261" y="722" type="curve"/>
      <point x="189" y="722"/>
      <point x="261" y="722"/>
      <point x="189" y="722" type="curve"/>
      <point x="169" y="481"/>
      <point x="148" y="241"/>
      <point x="128" y="0" type="curve"/>
      <point x="202" y="0"/>
      <point x="128" y="0"/>
    </contour>
    <contour>
      <point x="558" y="0" type="curve"/>
      <point x="460" y="241"/>
      <point x="363" y="481"/>
      <point x="264" y="722" type="curve"/>
      <point x="192" y="722"/>
      <point x="264" y="722"/>
      <point x="191" y="722" type="curve"/>
      <point x="289" y="481"/>
      <point x="386" y="241"/>
      <point x="484" y="0" type="curve"/>
      <point x="557" y="0"/>
      <point x="484" y="0"/>
    </contour>
    <contour>
      <point x="567" y="0" type="curve"/>
      <point x="663" y="241"/>
      <point x="758" y="481"/>
      <point x="854" y="722" type="curve"/>
      <point x="782" y="722"/>
      <point x="853" y="722"/>
      <point x="781" y="722" type="curve"/>
      <point x="684" y="481"/>
      <point x="588" y="241"/>
      <point x="492" y="0" type="curve"/>
      <point x="566" y="0"/>
      <point x="492" y="0"/>
    </contour>
  </outline>
</glyph>
<glyph name="P" format="1">
  <advance width="665"/>
  <unicode hex="0050"/>
  <outline>
    <contour>
      <point x="200" y="722" type="curve"/>
      <point x="150" y="722"/>
      <point x="105" y="722"/>
      <point x="54" y="722" type="curve"/>
      <point x="54" y="661"/>
      <point x="54" y="722"/>
      <point x="54" y="661" type="curve"/>
      <point x="206" y="661"/>
      <point x="49" y="661"/>
      <point x="200" y="661" type="curve"/>
      <point x="200" y="722"/>
      <point x="200" y="661"/>
    </contour>
    <contour>
      <point x="200" y="61" type="curve"/>
      <point x="49" y="61"/>
      <point x="206" y="61"/>
      <point x="54" y="61" type="curve"/>
      <point x="54" y="0"/>
      <point x="54" y="61"/>
      <point x="54" y="0" type="curve"/>
      <point x="105" y="0"/>
      <point x="150" y="0"/>
      <point x="200" y="0" type="curve"/>
      <point x="200" y="61"/>
      <point x="200" y="0"/>
    </contour>
    <contour>
      <point x="200" y="0" type="curve"/>
      <point x="250" y="0"/>
      <point x="195" y="0"/>
      <point x="346" y="0" type="curve"/>
      <point x="346" y="61"/>
      <point x="346" y="0"/>
      <point x="346" y="61" type="curve"/>
      <point x="195" y="61"/>
      <point x="351" y="61"/>
      <point x="200" y="61" type="curve"/>
      <point x="200" y="0"/>
      <point x="200" y="61"/>
    </contour>
    <contour>
      <point x="189" y="312" type="curve"/>
      <point x="246" y="285"/>
      <point x="307" y="266"/>
      <point x="372" y="266" type="curve"/>
      <point x="519" y="269"/>
      <point x="617" y="342"/>
      <point x="617" y="488" type="curve"/>
      <point x="617" y="640"/>
      <point x="501" y="722"/>
      <point x="340" y="722" type="curve"/>
      <point x="295" y="722"/>
      <point x="249" y="722"/>
      <point x="203" y="722" type="curve"/>
      <point x="203" y="661"/>
      <point x="203" y="722"/>
      <point x="203" y="661" type="curve"/>
      <point x="245" y="661"/>
      <point x="288" y="661"/>
      <point x="330" y="661" type="curve"/>
      <point x="452" y="661"/>
      <point x="539" y="602"/>
      <point x="539" y="489" type="curve"/>
      <point x="539" y="385"/>
      <point x="469" y="326"/>
      <point x="366" y="326" type="curve"/>
      <point x="307" y="326"/>
      <point x="267" y="340"/>
      <point x="214" y="365" type="curve"/>
      <point x="190" y="312"/>
      <point x="214" y="364"/>
    </contour>
    <contour>
      <point x="238" y="0" type="curve"/>
      <point x="238" y="241"/>
      <point x="238" y="481"/>
      <point x="238" y="722" type="curve"/>
      <point x="160" y="722"/>
      <point x="238" y="722"/>
      <point x="160" y="722" type="curve"/>
      <point x="160" y="481"/>
      <point x="160" y="241"/>
      <point x="160" y="0" type="curve"/>
      <point x="238" y="0"/>
      <point x="160" y="0"/>
    </contour>
  </outline>
</glyph>
<glyph name="Q" format="1">
  <advance width="826"/>
  <unicode hex="0051"/>
  <outline>
    <contour>
      <point x="377" y="14" type="curve"/>
      <point x="490" y="-168"/>
      <point x="619" y="-227"/>
      <point x="822" y="-227" type="curve"/>
      <point x="822" y="-164"/>
      <point x="822" y="-227"/>
      <point x="822" y="-164" type="curve"/>
      <point x="650" y="-164"/>
      <point x="542" y="-112"/>
      <point x="444" y="44" type="curve"/>
      <point x="377" y="14"/>
      <point x="444" y="44"/>
    </contour>
    <contour>
      <point x="140" y="360" type="curve"/>
      <point x="140" y="538"/>
      <point x="229" y="661"/>
      <point x="400" y="661" type="curve"/>
      <point x="572" y="661"/>
      <point x="663" y="540"/>
      <point x="663" y="362" type="curve"/>
      <point x="663" y="184"/>
      <point x="576" y="59"/>
      <point x="405" y="59" type="curve"/>
      <point x="231" y="59"/>
      <point x="140" y="181"/>
      <point x="140" y="360" type="curve"/>
      <point x="62" y="360"/>
      <point x="140" y="360"/>
      <point x="62" y="360" type="curve"/>
      <point x="62" y="140"/>
      <point x="187" y="-5"/>
      <point x="401" y="-5" type="curve"/>
      <point x="618" y="-5"/>
      <point x="741" y="143"/>
      <point x="741" y="365" type="curve"/>
      <point x="741" y="584"/>
      <point x="619" y="729"/>
      <point x="405" y="729" type="curve"/>
      <point x="188" y="729"/>
      <point x="62" y="582"/>
      <point x="62" y="360" type="curve"/>
      <point x="140" y="360"/>
      <point x="62" y="360"/>
    </contour>
  </outline>
</glyph>
<glyph name="S" format="1">
  <advance width="628"/>
  <unicode hex="0053"/>
  <outline>
    <contour>
      <point x="464" y="662" type="curve"/>
      <point x="464" y="542"/>
      <point x="464" y="653"/>
      <point x="464" y="533" type="curve"/>
      <point x="526" y="533"/>
      <point x="464" y="533"/>
      <point x="526" y="533" type="curve"/>
      <point x="526" y="653"/>
      <point x="526" y="542"/>
      <point x="526" y="662" type="curve"/>
      <point x="464" y="662"/>
      <point x="526" y="662"/>
    </contour>
    <contour>
      <point x="135" y="56" type="curve"/>
      <point x="135" y="176"/>
      <point x="135" y="69"/>
      <point x="135" y="189" type="curve"/>
      <point x="73" y="189"/>
      <point x="135" y="189"/>
      <point x="73" y="189" type="curve"/>
      <point x="73" y="69"/>
      <point x="73" y="176"/>
      <point x="73" y="56" type="curve"/>
      <point x="135" y="56"/>
      <point x="73" y="56"/>
    </contour>
    <contour>
      <point x="73" y="56" type="curve"/>
      <point x="145" y="16"/>
      <point x="216" y="-5"/>
      <point x="302" y="-5" type="curve"/>
      <point x="451" y="-5"/>
      <point x="564" y="45"/>
      <point x="564" y="180" type="curve"/>
      <point x="564" y="303"/>
      <point x="464" y="347"/>
      <point x="348" y="400" type="curve" smooth="yes"/>
      <point x="255" y="440"/>
      <point x="165" y="473"/>
      <point x="165" y="554" type="curve"/>
      <point x="164" y="629"/>
      <point x="228" y="667"/>
      <point x="312" y="667" type="curve"/>
      <point x="381" y="667"/>
      <point x="436" y="642"/>
      <point x="491" y="613" type="curve"/>
      <point x="525" y="659"/>
      <point x="492" y="616"/>
      <point x="526" y="662" type="curve"/>
      <point x="457" y="701"/>
      <point x="397" y="725"/>
      <point x="315" y="725" type="curve"/>
      <point x="185" y="725"/>
      <point x="87" y="668"/>
      <point x="87" y="550" type="curve"/>
      <point x="87" y="433"/>
      <point x="185" y="393"/>
      <point x="296" y="344" type="curve" smooth="yes"/>
      <point x="393" y="301"/>
      <point x="486" y="265"/>
      <point x="486" y="179" type="curve"/>
      <point x="486" y="96"/>
      <point x="406" y="58"/>
      <point x="306" y="58" type="curve"/>
      <point x="234" y="58"/>
      <point x="175" y="81"/>
      <point x="115" y="113" type="curve"/>
      <point x="75" y="59"/>
      <point x="113" y="109"/>
    </contour>
    <contour>
      <point x="315" y="806" type="move" name="top"/>
    </contour>
    <contour>
      <point x="330" y="-18" type="move" name="bottom"/>
    </contour>
  </outline>
</glyph>
<glyph name="T" format="1">
  <advance width="724"/>
  <unicode hex="0054"/>
  <outline>
    <contour>
      <point x="39" y="691" type="curve"/>
      <point x="39" y="571"/>
      <point x="39" y="694"/>
      <point x="39" y="574" type="curve"/>
      <point x="101" y="574"/>
      <point x="39" y="574"/>
      <point x="101" y="574" type="curve"/>
      <point x="101" y="694"/>
      <point x="101" y="571"/>
      <point x="101" y="691" type="curve"/>
      <point x="39" y="691"/>
      <point x="101" y="691"/>
    </contour>
    <contour>
      <point x="623" y="691" type="curve"/>
      <point x="623" y="571"/>
      <point x="623" y="694"/>
      <point x="623" y="574" type="curve"/>
      <point x="686" y="574"/>
      <point x="623" y="574"/>
      <point x="686" y="574" type="curve"/>
      <point x="686" y="694"/>
      <point x="686" y="571"/>
      <point x="686" y="691" type="curve"/>
      <point x="623" y="691"/>
      <point x="686" y="691"/>
    </contour>
    <contour>
      <point x="361" y="0" type="curve"/>
      <point x="411" y="0"/>
      <point x="458" y="0"/>
      <point x="507" y="0" type="curve"/>
      <point x="507" y="61"/>
      <point x="507" y="0"/>
      <point x="507" y="61" type="curve"/>
      <point x="359" y="61"/>
      <point x="510" y="61"/>
      <point x="361" y="61" type="curve"/>
      <point x="361" y="0"/>
      <point x="361" y="61"/>
    </contour>
    <contour>
      <point x="361" y="61" type="curve"/>
      <point x="212" y="61"/>
      <point x="364" y="61"/>
      <point x="215" y="61" type="curve"/>
      <point x="215" y="0"/>
      <point x="215" y="61"/>
      <point x="215" y="0" type="curve"/>
      <point x="265" y="0"/>
      <point x="312" y="0"/>
      <point x="361" y="0" type="curve"/>
      <point x="361" y="61"/>
      <point x="361" y="0"/>
    </contour>
    <contour>
      <point x="401" y="0" type="curve"/>
      <point x="401" y="237"/>
      <point x="401" y="473"/>
      <point x="401" y="710" type="curve"/>
      <point x="323" y="710"/>
      <point x="401" y="710"/>
      <point x="323" y="710" type="curve"/>
      <point x="323" y="473"/>
      <point x="323" y="237"/>
      <point x="323" y="0" type="curve"/>
      <point x="401" y="0"/>
      <point x="323" y="0"/>
    </contour>
    <contour>
      <point x="39" y="657" type="curve"/>
      <point x="254" y="657"/>
      <point x="470" y="657"/>
      <point x="686" y="657" type="curve"/>
      <point x="686" y="724"/>
      <point x="686" y="655"/>
      <point x="686" y="722" type="curve"/>
      <point x="470" y="722"/>
      <point x="254" y="722"/>
      <point x="39" y="722" type="curve"/>
      <point x="39" y="655"/>
      <point x="39" y="724"/>
    </contour>
    <contour>
      <point x="360" y="806" type="move" name="top"/>
    </contour>
    <contour>
      <point x="387" y="-20" type="move" name="bottom"/>
    </contour>
  </outline>
</glyph>
<glyph name="U" format="1">
  <advance width="881"/>
  <unicode hex="0055"/>
  <outline>
    <contour>
      <point x="702" y="661" type="curve"/>
      <point x="850" y="661"/>
      <point x="699" y="661"/>
      <point x="848" y="661" type="curve"/>
      <point x="848" y="722"/>
      <point x="848" y="661"/>
      <point x="848" y="722" type="curve"/>
      <point x="799" y="722"/>
      <point x="751" y="722"/>
      <point x="702" y="722" type="curve"/>
      <point x="702" y="661"/>
      <point x="702" y="722"/>
    </contour>
    <contour>
      <point x="702" y="722" type="curve"/>
      <point x="653" y="722"/>
      <point x="606" y="722"/>
      <point x="557" y="722" type="curve"/>
      <point x="557" y="661"/>
      <point x="557" y="722"/>
      <point x="557" y="661" type="curve"/>
      <point x="704" y="661"/>
      <point x="554" y="661"/>
      <point x="702" y="661" type="curve"/>
      <point x="702" y="722"/>
      <point x="702" y="661"/>
    </contour>
    <contour>
      <point x="180" y="722" type="curve"/>
      <point x="131" y="722"/>
      <point x="84" y="722"/>
      <point x="35" y="722" type="curve"/>
      <point x="35" y="661"/>
      <point x="35" y="722"/>
      <point x="35" y="661" type="curve"/>
      <point x="183" y="661"/>
      <point x="32" y="661"/>
      <point x="180" y="661" type="curve"/>
      <point x="180" y="722"/>
      <point x="180" y="661"/>
    </contour>
    <contour>
      <point x="180" y="661" type="curve"/>
      <point x="328" y="661"/>
      <point x="178" y="661"/>
      <point x="326" y="661" type="curve"/>
      <point x="326" y="722"/>
      <point x="326" y="661"/>
      <point x="326" y="722" type="curve"/>
      <point x="277" y="722"/>
      <point x="230" y="722"/>
      <point x="180" y="722" type="curve"/>
      <point x="180" y="661"/>
      <point x="180" y="722"/>
    </contour>
    <contour>
      <point x="142" y="701" type="curve"/>
      <point x="142" y="548"/>
      <point x="142" y="427"/>
      <point x="142" y="274" type="curve"/>
      <point x="142" y="83"/>
      <point x="244" y="-5"/>
      <point x="440" y="-5" type="curve"/>
      <point x="635" y="-5"/>
      <point x="738" y="84"/>
      <point x="738" y="275" type="curve"/>
      <point x="738" y="427"/>
      <point x="738" y="549"/>
      <point x="738" y="701" type="curve"/>
      <point x="671" y="701"/>
      <point x="733" y="701"/>
      <point x="666" y="701" type="curve"/>
      <point x="666" y="545"/>
      <point x="666" y="423"/>
      <point x="666" y="267" type="curve"/>
      <point x="666" y="129"/>
      <point x="589" y="62"/>
      <point x="446" y="62" type="curve"/>
      <point x="291" y="62"/>
      <point x="214" y="133"/>
      <point x="214" y="285" type="curve"/>
      <point x="214" y="434"/>
      <point x="214" y="553"/>
      <point x="214" y="701" type="curve"/>
      <point x="147" y="701"/>
      <point x="209" y="701"/>
    </contour>
    <contour>
      <point x="444" y="806" type="move" name="top"/>
    </contour>
    <contour>
      <point x="469" y="-17" type="move" name="bottom"/>
    </contour>
  </outline>
</glyph>
<glyph name="W" format="1">
  <advance width="1055"/>
  <unicode hex="0057"/>
  <outline>
    <contour>
      <point x="145" y="661" type="curve"/>
      <point x="285" y="661"/>
      <point x="142" y="661"/>
      <point x="283" y="661" type="curve"/>
      <point x="283" y="722"/>
      <point x="283" y="661"/>
      <point x="283" y="722" type="curve"/>
      <point x="236" y="722"/>
      <point x="192" y="722"/>
      <point x="145" y="722" type="curve"/>
      <point x="145" y="661"/>
      <point x="145" y="722"/>
    </contour>
    <contour>
      <point x="143" y="722" type="curve"/>
      <point x="95" y="722"/>
      <point x="48" y="722"/>
      <point x="1" y="722" type="curve"/>
      <point x="1" y="661"/>
      <point x="1" y="722"/>
      <point x="1" y="661" type="curve"/>
      <point x="145" y="661"/>
      <point x="-2" y="661"/>
      <point x="143" y="661" type="curve"/>
      <point x="143" y="722"/>
      <point x="143" y="661"/>
    </contour>
    <contour>
      <point x="901" y="722" type="curve"/>
      <point x="854" y="722"/>
      <point x="809" y="722"/>
      <point x="763" y="722" type="curve"/>
      <point x="763" y="661"/>
      <point x="763" y="722"/>
      <point x="763" y="661" type="curve"/>
      <point x="903" y="661"/>
      <point x="761" y="661"/>
      <point x="901" y="661" type="curve"/>
      <point x="901" y="722"/>
      <point x="901" y="661"/>
    </contour>
    <contour>
      <point x="902" y="661" type="curve"/>
      <point x="1046" y="661"/>
      <point x="899" y="661"/>
      <point x="1044" y="661" type="curve"/>
      <point x="1044" y="722"/>
      <point x="1044" y="661"/>
      <point x="1044" y="722" type="curve"/>
      <point x="996" y="722"/>
      <point x="950" y="722"/>
      <point x="902" y="722" type="curve"/>
      <point x="902" y="661"/>
      <point x="902" y="722"/>
    </contour>
    <contour>
      <point x="352" y="0" type="curve"/>
      <point x="421" y="241"/>
      <point x="490" y="481"/>
      <point x="560" y="722" type="curve"/>
      <point x="487" y="722"/>
      <point x="561" y="722"/>
      <point x="488" y="722" type="curve"/>
      <point x="422" y="481"/>
      <point x="355" y="241"/>
      <point x="287" y="0" type="curve"/>
      <point x="355" y="0"/>
      <point x="284" y="0"/>
    </contour>
    <contour>
      <point x="498" y="722" type="curve"/>
      <point x="561" y="481"/>
      <point x="622" y="241"/>
      <point x="685" y="0" type="curve"/>
      <point x="752" y="0"/>
      <point x="680" y="0"/>
      <point x="748" y="0" type="curve"/>
      <point x="689" y="242"/>
      <point x="629" y="481"/>
      <point x="568" y="722" type="curve"/>
      <point x="496" y="722"/>
      <point x="570" y="722"/>
    </contour>
    <contour>
      <point x="88" y="722" type="curve"/>
      <point x="151" y="481"/>
      <point x="215" y="241"/>
      <point x="278" y="0" type="curve"/>
      <point x="346" y="0"/>
      <point x="278" y="0"/>
      <point x="346" y="0" type="curve"/>
      <point x="284" y="241"/>
      <point x="224" y="481"/>
      <point x="163" y="722" type="curve"/>
      <point x="88" y="722"/>
      <point x="163" y="722"/>
    </contour>
    <contour>
      <point x="882" y="722" type="curve"/>
      <point x="818" y="481"/>
      <point x="755" y="241"/>
      <point x="692" y="0" type="curve"/>
      <point x="760" y="0"/>
      <point x="691" y="0"/>
      <point x="759" y="0" type="curve"/>
      <point x="825" y="241"/>
      <point x="890" y="481"/>
      <point x="956" y="722" type="curve"/>
      <point x="882" y="722"/>
      <point x="956" y="722"/>
    </contour>
  </outline>
</glyph>
<glyph name="X" format="1">
  <advance width="784"/>
  <unicode hex="0058"/>
  <outline>
    <contour>
      <point x="154" y="0" type="curve"/>
      <point x="206" y="0"/>
      <point x="152" y="0"/>
      <point x="305" y="0" type="curve"/>
      <point x="305" y="61"/>
      <point x="305" y="0"/>
      <point x="305" y="61" type="curve"/>
      <point x="152" y="61"/>
      <point x="308" y="61"/>
      <point x="154" y="61" type="curve"/>
      <point x="154" y="0"/>
      <point x="154" y="61"/>
    </contour>
    <contour>
      <point x="151" y="61" type="curve"/>
      <point x="4" y="61"/>
      <point x="153" y="61"/>
      <point x="6" y="61" type="curve"/>
      <point x="6" y="0"/>
      <point x="6" y="61"/>
      <point x="6" y="0" type="curve"/>
      <point x="55" y="0"/>
      <point x="102" y="0"/>
      <point x="151" y="0" type="curve"/>
      <point x="151" y="61"/>
      <point x="151" y="0"/>
    </contour>
    <contour>
      <point x="630" y="0" type="curve"/>
      <point x="679" y="0"/>
      <point x="726" y="0"/>
      <point x="775" y="0" type="curve"/>
      <point x="775" y="61"/>
      <point x="775" y="0"/>
      <point x="775" y="61" type="curve"/>
      <point x="628" y="61"/>
      <point x="777" y="61"/>
      <point x="630" y="61" type="curve"/>
      <point x="630" y="0"/>
      <point x="630" y="61"/>
    </contour>
    <contour>
      <point x="626" y="61" type="curve"/>
      <point x="473" y="61"/>
      <point x="629" y="61"/>
      <point x="476" y="61" type="curve"/>
      <point x="476" y="0"/>
      <point x="476" y="61"/>
      <point x="476" y="0" type="curve"/>
      <point x="527" y="0"/>
      <point x="575" y="0"/>
      <point x="626" y="0" type="curve"/>
      <point x="626" y="61"/>
      <point x="626" y="0"/>
    </contour>
    <contour>
      <point x="604" y="661" type="curve"/>
      <point x="751" y="661"/>
      <point x="602" y="661"/>
      <point x="748" y="661" type="curve"/>
      <point x="748" y="722"/>
      <point x="748" y="661"/>
      <point x="748" y="722" type="curve"/>
      <point x="700" y="722"/>
      <point x="652" y="722"/>
      <point x="604" y="722" type="curve"/>
      <point x="604" y="661"/>
      <point x="604" y="722"/>
    </contour>
    <contour>
      <point x="607" y="722" type="curve"/>
      <point x="555" y="722"/>
      <point x="506" y="722"/>
      <point x="454" y="722" type="curve"/>
      <point x="454" y="661"/>
      <point x="454" y="722"/>
      <point x="454" y="661" type="curve"/>
      <point x="609" y="661"/>
      <point x="452" y="661"/>
      <point x="607" y="661" type="curve"/>
      <point x="607" y="722"/>
      <point x="607" y="661"/>
    </contour>
    <contour>
      <point x="183" y="722" type="curve"/>
      <point x="135" y="722"/>
      <point x="88" y="722"/>
      <point x="39" y="722" type="curve"/>
      <point x="39" y="661"/>
      <point x="39" y="722"/>
      <point x="39" y="661" type="curve"/>
      <point x="186" y="661"/>
      <point x="36" y="661"/>
      <point x="183" y="661" type="curve"/>
      <point x="183" y="722"/>
      <point x="183" y="661"/>
    </contour>
    <contour>
      <point x="180" y="661" type="curve"/>
      <point x="336" y="661"/>
      <point x="178" y="661"/>
      <point x="333" y="661" type="curve"/>
      <point x="333" y="722"/>
      <point x="333" y="661"/>
      <point x="333" y="722" type="curve"/>
      <point x="282" y="722"/>
      <point x="232" y="722"/>
      <point x="180" y="722" type="curve"/>
      <point x="180" y="661"/>
      <point x="180" y="722"/>
    </contour>
    <contour>
      <point x="598" y="722" type="curve"/>
      <point x="427" y="485"/>
      <point x="255" y="249"/>
      <point x="85" y="11" type="curve"/>
      <point x="166" y="11"/>
      <point x="85" y="0"/>
      <point x="166" y="0" type="curve"/>
      <point x="335" y="237"/>
      <point x="504" y="475"/>
      <point x="673" y="712" type="curve"/>
      <point x="598" y="712"/>
      <point x="673" y="722"/>
    </contour>
    <contour>
      <point x="116" y="712" type="curve"/>
      <point x="284" y="475"/>
      <point x="451" y="237"/>
      <point x="619" y="0" type="curve"/>
      <point x="700" y="0"/>
      <point x="619" y="8"/>
      <point x="700" y="8" type="curve"/>
      <point x="530" y="246"/>
      <point x="360" y="483"/>
      <point x="191" y="722" type="curve"/>
      <point x="116" y="722"/>
      <point x="191" y="712"/>
    </contour>
  </outline>
</glyph>
<glyph name="Z" format="1">
  <advance width="714"/>
  <unicode hex="005A"/>
  <outline>
    <contour>
      <point x="79" y="692" type="curve"/>
      <point x="79" y="572"/>
      <point x="79" y="695"/>
      <point x="79" y="575" type="curve"/>
      <point x="141" y="575"/>
      <point x="79" y="575"/>
      <point x="141" y="575" type="curve"/>
      <point x="141" y="695"/>
      <point x="141" y="572"/>
      <point x="141" y="692" type="curve"/>
      <point x="79" y="692"/>
      <point x="141" y="692"/>
    </contour>
    <contour>
      <point x="667" y="30" type="curve"/>
      <point x="667" y="150"/>
      <point x="667" y="27"/>
      <point x="667" y="147" type="curve"/>
      <point x="605" y="147"/>
      <point x="667" y="147"/>
      <point x="605" y="147" type="curve"/>
      <point x="605" y="27"/>
      <point x="605" y="150"/>
      <point x="605" y="30" type="curve"/>
      <point x="667" y="30"/>
      <point x="605" y="30"/>
    </contour>
    <contour>
      <point x="79" y="661" type="curve"/>
      <point x="247" y="661"/>
      <point x="438" y="661"/>
      <point x="606" y="661" type="curve"/>
      <point x="600" y="668"/>
      <point x="589" y="667"/>
      <point x="583" y="674" type="curve"/>
      <point x="578" y="679"/>
      <point x="577" y="687"/>
      <point x="572" y="693" type="curve"/>
      <point x="567" y="687"/>
      <point x="558" y="689"/>
      <point x="554" y="682" type="curve"/>
      <point x="39" y="61" type="line"/>
      <point x="39" y="29"/>
      <point x="39" y="61"/>
      <point x="39" y="29" type="curve"/>
      <point x="39" y="0"/>
      <point x="39" y="29"/>
      <point x="39" y="0" type="curve"/>
      <point x="66" y="0"/>
      <point x="39" y="0"/>
      <point x="66" y="0" type="curve"/>
      <point x="667" y="0"/>
      <point x="467" y="0"/>
      <point x="667" y="0" type="curve"/>
      <point x="667" y="61"/>
      <point x="667" y="0"/>
      <point x="667" y="61" type="curve"/>
      <point x="467" y="61"/>
      <point x="266" y="61"/>
      <point x="66" y="61" type="curve"/>
      <point x="72" y="56"/>
      <point x="80" y="55"/>
      <point x="86" y="50" type="curve"/>
      <point x="91" y="44"/>
      <point x="94" y="35"/>
      <point x="100" y="29" type="curve"/>
      <point x="105" y="36"/>
      <point x="117" y="33"/>
      <point x="123" y="40" type="curve"/>
      <point x="638" y="661" type="line"/>
      <point x="638" y="693"/>
      <point x="638" y="661"/>
      <point x="638" y="693" type="curve"/>
      <point x="638" y="722"/>
      <point x="638" y="693"/>
      <point x="638" y="722" type="curve"/>
      <point x="602" y="722"/>
      <point x="638" y="722"/>
      <point x="602" y="722" type="curve"/>
      <point x="435" y="722"/>
      <point x="245" y="722"/>
      <point x="79" y="722" type="curve"/>
      <point x="79" y="661"/>
      <point x="79" y="722"/>
    </contour>
    <contour>
      <point x="358" y="806" type="move" name="top"/>
    </contour>
  </outline>
</glyph>
<glyph name="bracketleft" format="1">
  <advance width="316"/>
  <unicode hex="005B"/>
  <outline>
    <contour>
      <point x="272" y="770" type="curve"/>
      <point x="218" y="770"/>
      <point x="165" y="770"/>
      <point x="112" y="770" type="curve"/>
      <point x="103" y="770"/>
      <point x="89" y="770"/>
      <point x="80" y="770" type="curve"/>
      <point x="80" y="762"/>
      <point x="80" y="751"/>
      <point x="80" y="743" type="curve"/>
      <point x="80" y="464"/>
      <point x="80" y="185"/>
      <point x="80" y="-93" type="curve"/>
      <point x="80" y="-101"/>
      <point x="80" y="-110"/>
      <point x="80" y="-119" type="curve"/>
      <point x="88" y="-119"/>
      <point x="102" y="-119"/>
      <point x="111" y="-119" type="curve"/>
      <point x="164" y="-119"/>
      <point x="218" y="-119"/>
      <point x="272" y="-119" type="curve"/>
      <point x="272" y="-52"/>
      <point x="272" y="-119"/>
      <point x="272" y="-52" type="curve"/>
      <point x="218" y="-52"/>
      <point x="164" y="-52"/>
      <point x="111" y="-52" type="curve"/>
      <point x="158" y="-52"/>
      <point x="111" y="-52"/>
      <point x="158" y="-52" type="curve"/>
      <point x="158" y="-93"/>
      <point x="158" y="-52"/>
      <point x="158" y="-93" type="curve"/>
      <point x="158" y="185"/>
      <point x="158" y="464"/>
      <point x="158" y="743" type="curve"/>
      <point x="158" y="704"/>
      <point x="158" y="743"/>
      <point x="158" y="704" type="curve"/>
      <point x="112" y="704"/>
      <point x="158" y="704"/>
      <point x="112" y="704" type="curve"/>
      <point x="165" y="704"/>
      <point x="218" y="704"/>
      <point x="272" y="704" type="curve"/>
      <point x="272" y="770"/>
      <point x="272" y="704"/>
    </contour>
  </outline>
</glyph>
<glyph name="backslash" format="1">
  <advance width="562"/>
  <unicode hex="005C"/>
  <outline>
    <contour>
      <point x="526" y="-68" type="curve"/>
      <point x="390" y="236"/>
      <point x="254" y="540"/>
      <point x="118" y="844" type="curve"/>
      <point x="36" y="844"/>
      <point x="118" y="844"/>
      <point x="36" y="844" type="curve"/>
      <point x="172" y="540"/>
      <point x="309" y="236"/>
      <point x="445" y="-68" type="curve"/>
      <point x="526" y="-68"/>
      <point x="445" y="-68"/>
    </contour>
  </outline>
</glyph>
<glyph name="bracketright" format="1">
  <advance width="316"/>
  <unicode hex="005D"/>
  <outline>
    <contour>
      <point x="44" y="704" type="curve"/>
      <point x="98" y="704"/>
      <point x="150" y="704"/>
      <point x="204" y="704" type="curve"/>
      <point x="196" y="710"/>
      <point x="186" y="713"/>
      <point x="178" y="720" type="curve"/>
      <point x="171" y="727"/>
      <point x="165" y="736"/>
      <point x="158" y="743" type="curve"/>
      <point x="158" y="464"/>
      <point x="157" y="185"/>
      <point x="158" y="-93" type="curve"/>
      <point x="165" y="-86"/>
      <point x="173" y="-78"/>
      <point x="181" y="-70" type="curve"/>
      <point x="188" y="-64"/>
      <point x="197" y="-59"/>
      <point x="205" y="-52" type="curve"/>
      <point x="151" y="-52"/>
      <point x="98" y="-52"/>
      <point x="44" y="-52" type="curve"/>
      <point x="44" y="-119"/>
      <point x="44" y="-52"/>
      <point x="44" y="-119" type="curve"/>
      <point x="98" y="-119"/>
      <point x="151" y="-119"/>
      <point x="205" y="-119" type="curve"/>
      <point x="236" y="-119"/>
      <point x="205" y="-119"/>
      <point x="236" y="-119" type="curve"/>
      <point x="236" y="-93"/>
      <point x="236" y="-119"/>
      <point x="236" y="-93" type="curve"/>
      <point x="236" y="185"/>
      <point x="236" y="464"/>
      <point x="236" y="743" type="curve"/>
      <point x="236" y="770"/>
      <point x="236" y="743"/>
      <point x="236" y="770" type="curve"/>
      <point x="204" y="770"/>
      <point x="236" y="770"/>
      <point x="204" y="770" type="curve"/>
      <point x="150" y="770"/>
      <point x="98" y="770"/>
      <point x="44" y="770" type="curve"/>
      <point x="44" y="704"/>
      <point x="44" y="770"/>
    </contour>
  </outline>
</glyph>
<glyph name="asciicircum" format="1">
  <advance width="570"/>
  <unicode hex="005E"/>
  <outline>
    <contour>
      <point x="142" y="460" type="curve"/>
      <point x="202" y="569"/>
      <point x="263" y="677"/>
      <point x="323" y="785" type="curve"/>
      <point x="246" y="785"/>
      <point x="323" y="785"/>
      <point x="245" y="785" type="curve"/>
      <point x="184" y="677"/>
      <point x="124" y="569"/>
      <point x="63" y="460" type="curve"/>
      <point x="141" y="460"/>
      <point x="64" y="460"/>
    </contour>
    <contour>
      <point x="507" y="460" type="curve"/>
      <point x="448" y="566"/>
      <point x="384" y="679"/>
      <point x="324" y="785" type="curve"/>
      <point x="246" y="785"/>
      <point x="323" y="785"/>
      <point x="246" y="785" type="curve"/>
      <point x="305" y="679"/>
      <point x="369" y="566"/>
      <point x="429" y="460" type="curve"/>
      <point x="507" y="460"/>
      <point x="430" y="460"/>
    </contour>
  </outline>
</glyph>
<glyph name="b" format="1">
  <advance width="696"/>
  <unicode hex="0062"/>
  <outline>
    <contour>
      <point x="166" y="800" type="curve"/>
      <point x="114" y="800"/>
      <point x="71" y="800"/>
      <point x="19" y="800" type="curve"/>
      <point x="19" y="756"/>
      <point x="19" y="784"/>
      <point x="19" y="739" type="curve"/>
      <point x="145" y="739"/>
      <point x="39" y="739"/>
      <point x="166" y="739" type="curve"/>
      <point x="166" y="784"/>
      <point x="166" y="755"/>
    </contour>
    <contour>
      <point x="182" y="372" type="curve"/>
      <point x="223" y="423"/>
      <point x="292" y="475"/>
      <point x="382" y="475" type="curve"/>
      <point x="498" y="475"/>
      <point x="561" y="388"/>
      <point x="561" y="264" type="curve"/>
      <point x="562" y="145"/>
      <point x="495" y="57"/>
      <point x="382" y="58" type="curve"/>
      <point x="301" y="58"/>
      <point x="239" y="93"/>
      <point x="188" y="150" type="curve"/>
      <point x="156" y="128"/>
      <point x="176" y="140"/>
      <point x="144" y="117" type="curve"/>
      <point x="211" y="42"/>
      <point x="284" y="-5"/>
      <point x="392" y="-5" type="curve"/>
      <point x="547" y="-5"/>
      <point x="640" y="103"/>
      <point x="640" y="266" type="curve"/>
      <point x="640" y="429"/>
      <point x="548" y="538"/>
      <point x="392" y="538" type="curve"/>
      <point x="281" y="538"/>
      <point x="201" y="479"/>
      <point x="147" y="413" type="curve"/>
      <point x="173" y="387"/>
      <point x="156" y="398"/>
    </contour>
    <contour>
      <point x="202" y="0" type="curve"/>
      <point x="202" y="276"/>
      <point x="202" y="524"/>
      <point x="202" y="800" type="curve"/>
      <point x="147" y="800"/>
      <point x="180" y="800"/>
      <point x="125" y="800" type="curve"/>
      <point x="125" y="524"/>
      <point x="125" y="276"/>
      <point x="125" y="0" type="curve"/>
      <point x="180" y="0"/>
      <point x="147" y="0"/>
    </contour>
    <contour>
      <point x="166" y="60" type="curve"/>
      <point x="40" y="60"/>
      <point x="145" y="61"/>
      <point x="19" y="61" type="curve"/>
      <point x="19" y="16"/>
      <point x="19" y="44"/>
      <point x="19" y="0" type="curve"/>
      <point x="71" y="0"/>
      <point x="114" y="0"/>
      <point x="166" y="0" type="curve"/>
      <point x="166" y="44"/>
      <point x="166" y="16"/>
    </contour>
  </outline>
</glyph>
<glyph name="c" format="1">
  <advance width="572"/>
  <unicode hex="0063"/>
  <outline>
    <contour>
      <point x="450" y="471" type="curve"/>
      <point x="450" y="342"/>
      <point x="450" y="474"/>
      <point x="450" y="344" type="curve"/>
      <point x="512" y="344"/>
      <point x="450" y="344"/>
      <point x="512" y="344" type="curve"/>
      <point x="512" y="474"/>
      <point x="512" y="342"/>
      <point x="512" y="471" type="curve"/>
      <point x="450" y="471"/>
      <point x="512" y="471"/>
    </contour>
    <contour>
      <point x="512" y="471" type="curve"/>
      <point x="461" y="509"/>
      <point x="395" y="538"/>
      <point x="327" y="538" type="curve"/>
      <point x="155" y="538"/>
      <point x="55" y="443"/>
      <point x="55" y="267" type="curve"/>
      <point x="55" y="92"/>
      <point x="152" y="-5"/>
      <point x="325" y="-5" type="curve"/>
      <point x="401" y="-5"/>
      <point x="473" y="26"/>
      <point x="520" y="83" type="curve"/>
      <point x="473" y="126"/>
      <point x="520" y="83"/>
      <point x="473" y="126" type="curve"/>
      <point x="435" y="87"/>
      <point x="384" y="58"/>
      <point x="328" y="58" type="curve"/>
      <point x="201" y="58"/>
      <point x="133" y="134"/>
      <point x="133" y="267" type="curve"/>
      <point x="133" y="399"/>
      <point x="200" y="475"/>
      <point x="325" y="475" type="curve"/>
      <point x="376" y="475"/>
      <point x="426" y="457"/>
      <point x="466" y="429" type="curve"/>
      <point x="512" y="471"/>
      <point x="466" y="429"/>
    </contour>
    <contour>
      <point x="318" y="645" type="move" name="top"/>
    </contour>
    <contour>
      <point x="333" y="2" type="move" name="bottom"/>
    </contour>
  </outline>
</glyph>
<glyph name="g" format="1">
  <advance width="589"/>
  <unicode hex="0067"/>
  <outline>
    <contour>
      <point x="408" y="471" type="curve"/>
      <point x="569" y="545" type="line"/>
      <point x="565" y="550"/>
      <point x="541" y="598"/>
      <point x="537" y="603" type="curve"/>
      <point x="367" y="517" type="line"/>
      <point x="407" y="471"/>
      <point x="368" y="517"/>
    </contour>
    <contour>
      <point x="159" y="349" type="curve"/>
      <point x="159" y="429"/>
      <point x="218" y="478"/>
      <point x="303" y="478" type="curve"/>
      <point x="387" y="478"/>
      <point x="442" y="430"/>
      <point x="442" y="350" type="curve"/>
      <point x="442" y="273"/>
      <point x="386" y="228"/>
      <point x="302" y="228" type="curve"/>
      <point x="220" y="228"/>
      <point x="159" y="270"/>
      <point x="159" y="349" type="curve"/>
      <point x="80" y="346"/>
      <point x="159" y="349"/>
      <point x="80" y="346" type="curve"/>
      <point x="80" y="230"/>
      <point x="174" y="168"/>
      <point x="297" y="168" type="curve"/>
      <point x="424" y="168"/>
      <point x="520" y="232"/>
      <point x="520" y="352" type="curve"/>
      <point x="520" y="472"/>
      <point x="428" y="538"/>
      <point x="303" y="538" type="curve"/>
      <point x="174" y="538"/>
      <point x="80" y="468"/>
      <point x="80" y="346" type="curve"/>
      <point x="159" y="349"/>
      <point x="80" y="346"/>
    </contour>
    <contour>
      <point x="179" y="236" type="curve"/>
      <point x="124" y="208"/>
      <point x="85" y="172"/>
      <point x="85" y="111" type="curve"/>
      <point x="85" y="12"/>
      <point x="182" y="-13"/>
      <point x="290" y="-22" type="curve"/>
      <point x="397" y="-30"/>
      <point x="502" y="-40"/>
      <point x="502" y="-133" type="curve"/>
      <point x="502" y="-219"/>
      <point x="407" y="-244"/>
      <point x="301" y="-244" type="curve"/>
      <point x="201" y="-244"/>
      <point x="117" y="-209"/>
      <point x="117" y="-120" type="curve"/>
      <point x="117" y="-55"/>
      <point x="156" y="-16"/>
      <point x="213" y="7" type="curve"/>
      <point x="175" y="44"/>
      <point x="213" y="7"/>
      <point x="175" y="44" type="curve"/>
      <point x="96" y="14"/>
      <point x="39" y="-36"/>
      <point x="39" y="-123" type="curve"/>
      <point x="39" y="-254"/>
      <point x="156" y="-304"/>
      <point x="298" y="-304" type="curve"/>
      <point x="446" y="-304"/>
      <point x="575" y="-263"/>
      <point x="573" y="-127" type="curve"/>
      <point x="573" y="3"/>
      <point x="444" y="25"/>
      <point x="305" y="36" type="curve"/>
      <point x="231" y="40"/>
      <point x="163" y="54"/>
      <point x="163" y="117" type="curve"/>
      <point x="163" y="155"/>
      <point x="183" y="179"/>
      <point x="217" y="198" type="curve"/>
      <point x="179" y="236"/>
      <point x="217" y="198"/>
    </contour>
    <contour>
      <point x="300" y="645" type="move" name="top"/>
    </contour>
  </outline>
</glyph>
<glyph name="h" format="1">
  <advance width="691"/>
  <unicode hex="0068"/>
  <outline>
    <contour>
      <point x="541" y="0" type="curve"/>
      <point x="592" y="0"/>
      <point x="635" y="0"/>
      <point x="687" y="0" type="curve"/>
      <point x="687" y="61"/>
      <point x="687" y="0"/>
      <point x="687" y="61" type="curve"/>
      <point x="532" y="60"/>
      <point x="696" y="61"/>
      <point x="541" y="60" type="curve"/>
      <point x="541" y="0"/>
      <point x="541" y="60"/>
    </contour>
    <contour>
      <point x="154" y="0" type="curve"/>
      <point x="200" y="0"/>
      <point x="145" y="0"/>
      <point x="284" y="0" type="curve"/>
      <point x="284" y="61"/>
      <point x="284" y="0"/>
      <point x="284" y="61" type="curve"/>
      <point x="145" y="60"/>
      <point x="293" y="61"/>
      <point x="154" y="60" type="curve"/>
      <point x="154" y="0"/>
      <point x="154" y="60"/>
    </contour>
    <contour>
      <point x="154" y="800" type="curve"/>
      <point x="102" y="800"/>
      <point x="59" y="800"/>
      <point x="8" y="800" type="curve"/>
      <point x="7" y="739"/>
      <point x="8" y="800"/>
      <point x="7" y="739" type="curve"/>
      <point x="163" y="739"/>
      <point x="-2" y="739"/>
      <point x="154" y="739" type="curve"/>
      <point x="154" y="800"/>
      <point x="154" y="739"/>
    </contour>
    <contour>
      <point x="154" y="60" type="curve"/>
      <point x="-1" y="61"/>
      <point x="163" y="60"/>
      <point x="8" y="61" type="curve"/>
      <point x="7" y="0"/>
      <point x="8" y="61"/>
      <point x="7" y="0" type="curve"/>
      <point x="59" y="0"/>
      <point x="102" y="0"/>
      <point x="154" y="0" type="curve"/>
      <point x="154" y="60"/>
      <point x="154" y="0"/>
    </contour>
    <contour>
      <point x="175" y="324" type="curve"/>
      <point x="206" y="410"/>
      <point x="281" y="476"/>
      <point x="368" y="476" type="curve"/>
      <point x="460" y="476"/>
      <point x="503" y="417"/>
      <point x="503" y="323" type="curve"/>
      <point x="503" y="215"/>
      <point x="503" y="109"/>
      <point x="503" y="0" type="curve"/>
      <point x="581" y="0"/>
      <point x="503" y="0"/>
      <point x="581" y="0" type="curve"/>
      <point x="581" y="111"/>
      <point x="581" y="222"/>
      <point x="581" y="333" type="curve"/>
      <point x="581" y="464"/>
      <point x="515" y="537"/>
      <point x="384" y="537" type="curve"/>
      <point x="274" y="537"/>
      <point x="179" y="464"/>
      <point x="143" y="355" type="curve"/>
      <point x="176" y="323"/>
      <point x="141" y="355"/>
    </contour>
    <contour>
      <point x="192" y="0" type="curve"/>
      <point x="192" y="267"/>
      <point x="192" y="533"/>
      <point x="192" y="800" type="curve"/>
      <point x="114" y="800"/>
      <point x="192" y="800"/>
      <point x="114" y="800" type="curve"/>
      <point x="114" y="533"/>
      <point x="114" y="267"/>
      <point x="114" y="0" type="curve"/>
      <point x="192" y="0"/>
      <point x="114" y="0"/>
    </contour>
  </outline>
</glyph>
<glyph name="i" format="1">
  <advance width="332"/>
  <unicode hex="0069"/>
  <outline>
    <contour>
      <point x="179" y="61" type="curve"/>
      <point x="23" y="61"/>
      <point x="188" y="61"/>
      <point x="33" y="61" type="curve"/>
      <point x="32" y="0"/>
      <point x="33" y="61"/>
      <point x="32" y="0" type="curve"/>
      <point x="84" y="0"/>
      <point x="127" y="0"/>
      <point x="179" y="0" type="curve"/>
      <point x="179" y="61"/>
      <point x="179" y="0"/>
    </contour>
    <contour>
      <point x="179" y="0" type="curve"/>
      <point x="227" y="0"/>
      <point x="268" y="0"/>
      <point x="317" y="0" type="curve"/>
      <point x="317" y="61"/>
      <point x="317" y="0"/>
      <point x="317" y="61" type="curve"/>
      <point x="172" y="61"/>
      <point x="324" y="61"/>
      <point x="179" y="61" type="curve"/>
      <point x="179" y="0"/>
      <point x="179" y="61"/>
    </contour>
    <contour>
      <point x="179" y="533" type="curve"/>
      <point x="127" y="533"/>
      <point x="84" y="533"/>
      <point x="33" y="533" type="curve"/>
      <point x="32" y="472"/>
      <point x="33" y="533"/>
      <point x="32" y="472" type="curve"/>
      <point x="188" y="472"/>
      <point x="23" y="472"/>
      <point x="179" y="472" type="curve"/>
      <point x="179" y="533"/>
      <point x="179" y="472"/>
    </contour>
    <contour>
      <point x="220" y="0" type="curve"/>
      <point x="220" y="178"/>
      <point x="220" y="355"/>
      <point x="220" y="533" type="curve"/>
      <point x="138" y="533"/>
      <point x="220" y="533"/>
      <point x="138" y="533" type="curve"/>
      <point x="138" y="355"/>
      <point x="138" y="178"/>
      <point x="138" y="0" type="curve"/>
      <point x="220" y="0"/>
      <point x="138" y="0"/>
    </contour>
    <contour>
      <point x="224" y="684" type="curve"/>
      <point x="224" y="711"/>
      <point x="204" y="725"/>
      <point x="176" y="725" type="curve"/>
      <point x="149" y="725"/>
      <point x="131" y="710"/>
      <point x="131" y="684" type="curve"/>
      <point x="216" y="684"/>
      <point x="138" y="684"/>
      <point x="224" y="684" type="curve"/>
      <point x="224" y="656"/>
      <point x="204" y="643"/>
      <point x="176" y="643" type="curve"/>
      <point x="149" y="643"/>
      <point x="131" y="657"/>
      <point x="131" y="684" type="curve"/>
      <point x="216" y="684"/>
      <point x="138" y="684"/>
    </contour>
    <contour>
      <point x="177" y="645" type="move" name="top"/>
    </contour>
    <contour>
      <point x="215" y="4" type="move" name="bottom"/>
    </contour>
  </outline>
</glyph>
<glyph name="j" format="1">
  <advance width="318"/>
  <unicode hex="006A"/>
  <outline>
    <contour>
      <point x="183" y="533" type="curve"/>
      <point x="131" y="533"/>
      <point x="82" y="533"/>
      <point x="30" y="533" type="curve"/>
      <point x="30" y="472"/>
      <point x="30" y="533"/>
      <point x="30" y="472" type="curve"/>
      <point x="186" y="472"/>
      <point x="28" y="472"/>
      <point x="183" y="472" type="curve"/>
      <point x="183" y="533"/>
      <point x="183" y="472"/>
    </contour>
    <contour>
      <point x="-4" y="-302" type="curve"/>
      <point x="5" y="-303"/>
      <point x="17" y="-304"/>
      <point x="30" y="-304" type="curve"/>
      <point x="141" y="-304"/>
      <point x="223" y="-241"/>
      <point x="223" y="-132" type="curve"/>
      <point x="223" y="90"/>
      <point x="223" y="311"/>
      <point x="223" y="533" type="curve"/>
      <point x="145" y="533"/>
      <point x="223" y="533"/>
      <point x="145" y="533" type="curve"/>
      <point x="145" y="311"/>
      <point x="145" y="90"/>
      <point x="145" y="-132" type="curve"/>
      <point x="145" y="-199"/>
      <point x="100" y="-245"/>
      <point x="33" y="-245" type="curve"/>
      <point x="24" y="-245"/>
      <point x="14" y="-244"/>
      <point x="8" y="-243" type="curve"/>
      <point x="-3" y="-301"/>
      <point x="7" y="-244"/>
    </contour>
    <contour>
      <point x="231" y="682" type="curve"/>
      <point x="231" y="709"/>
      <point x="212" y="723"/>
      <point x="184" y="723" type="curve"/>
      <point x="157" y="723"/>
      <point x="139" y="708"/>
      <point x="139" y="682" type="curve"/>
      <point x="224" y="682"/>
      <point x="146" y="682"/>
      <point x="231" y="682" type="curve"/>
      <point x="231" y="654"/>
      <point x="212" y="641"/>
      <point x="184" y="641" type="curve"/>
      <point x="156" y="641"/>
      <point x="139" y="655"/>
      <point x="139" y="682" type="curve"/>
      <point x="224" y="682"/>
      <point x="146" y="682"/>
    </contour>
  </outline>
</glyph>
<glyph name="k" format="1">
  <advance width="634"/>
  <unicode hex="006B"/>
  <outline>
    <contour>
      <point x="153" y="60" type="curve"/>
      <point x="-2" y="61"/>
      <point x="162" y="60"/>
      <point x="7" y="61" type="curve"/>
      <point x="7" y="0"/>
      <point x="7" y="61"/>
      <point x="7" y="0" type="curve"/>
      <point x="58" y="0"/>
      <point x="101" y="0"/>
      <point x="153" y="0" type="curve"/>
      <point x="153" y="60"/>
      <point x="153" y="0"/>
    </contour>
    <contour>
      <point x="475" y="0" type="curve"/>
      <point x="526" y="0"/>
      <point x="565" y="0"/>
      <point x="617" y="0" type="curve"/>
      <point x="617" y="61"/>
      <point x="617" y="0"/>
      <point x="617" y="61" type="curve"/>
      <point x="462" y="60"/>
      <point x="630" y="61"/>
      <point x="475" y="60" type="curve"/>
      <point x="475" y="0"/>
      <point x="475" y="60"/>
    </contour>
    <contour>
      <point x="463" y="472" type="curve"/>
      <point x="597" y="472"/>
      <point x="449" y="472"/>
      <point x="584" y="472" type="curve"/>
      <point x="584" y="533"/>
      <point x="584" y="472"/>
      <point x="584" y="533" type="curve"/>
      <point x="539" y="533"/>
      <point x="507" y="533"/>
      <point x="463" y="533" type="curve"/>
      <point x="463" y="472"/>
      <point x="463" y="533"/>
    </contour>
    <contour>
      <point x="153" y="0" type="curve"/>
      <point x="196" y="0"/>
      <point x="151" y="0"/>
      <point x="281" y="0" type="curve"/>
      <point x="281" y="61"/>
      <point x="281" y="0"/>
      <point x="281" y="61" type="curve"/>
      <point x="151" y="60"/>
      <point x="283" y="61"/>
      <point x="153" y="60" type="curve"/>
      <point x="153" y="0"/>
      <point x="153" y="60"/>
    </contour>
    <contour>
      <point x="473" y="533" type="curve"/>
      <point x="414" y="533"/>
      <point x="359" y="533"/>
      <point x="300" y="533" type="curve"/>
      <point x="300" y="472"/>
      <point x="300" y="533"/>
      <point x="300" y="472" type="curve"/>
      <point x="478" y="472"/>
      <point x="295" y="472"/>
      <point x="473" y="472" type="curve"/>
      <point x="473" y="533"/>
      <point x="473" y="472"/>
    </contour>
    <contour>
      <point x="155" y="800" type="curve"/>
      <point x="103" y="800"/>
      <point x="61" y="800"/>
      <point x="9" y="800" type="curve"/>
      <point x="9" y="739"/>
      <point x="9" y="800"/>
      <point x="9" y="739" type="curve"/>
      <point x="164" y="739"/>
      <point x="-1" y="739"/>
      <point x="155" y="739" type="curve"/>
      <point x="155" y="800"/>
      <point x="155" y="739"/>
    </contour>
    <contour>
      <point x="193" y="0" type="curve"/>
      <point x="193" y="800" type="line"/>
      <point x="115" y="800"/>
      <point x="193" y="800"/>
      <point x="115" y="800" type="curve"/>
      <point x="115" y="533"/>
      <point x="115" y="267"/>
      <point x="115" y="0" type="curve"/>
      <point x="193" y="0"/>
      <point x="115" y="0"/>
    </contour>
    <contour>
      <point x="444" y="533" type="curve"/>
      <point x="171" y="275" type="line"/>
      <point x="265" y="275"/>
      <point x="170" y="275"/>
      <point x="263" y="275" type="curve"/>
      <point x="525" y="513" type="line"/>
      <point x="429" y="513"/>
      <point x="540" y="533"/>
    </contour>
    <contour>
      <point x="547" y="27" type="curve"/>
      <point x="263" y="275" type="line"/>
      <point x="170" y="275"/>
      <point x="264" y="275"/>
      <point x="171" y="275" type="curve"/>
      <point x="469" y="0" type="line"/>
      <point x="565" y="0"/>
      <point x="452" y="27"/>
    </contour>
    <contour>
      <point x="377" y="-22" type="move" name="bottom"/>
    </contour>
  </outline>
</glyph>
<glyph name="l" format="1">
  <advance width="338"/>
  <unicode hex="006C"/>
  <outline>
    <contour>
      <point x="169" y="60" type="curve"/>
      <point x="14" y="61"/>
      <point x="169" y="60"/>
      <point x="14" y="61" type="curve"/>
      <point x="14" y="0"/>
      <point x="14" y="61"/>
      <point x="14" y="0" type="curve"/>
      <point x="66" y="0"/>
      <point x="117" y="0"/>
      <point x="169" y="0" type="curve"/>
      <point x="169" y="60"/>
      <point x="169" y="0"/>
    </contour>
    <contour>
      <point x="171" y="800" type="curve"/>
      <point x="119" y="800"/>
      <point x="68" y="800"/>
      <point x="16" y="800" type="curve"/>
      <point x="16" y="739"/>
      <point x="16" y="800"/>
      <point x="16" y="739" type="curve"/>
      <point x="171" y="739"/>
      <point x="16" y="739"/>
      <point x="171" y="739" type="curve"/>
      <point x="171" y="800"/>
      <point x="171" y="739"/>
    </contour>
    <contour>
      <point x="169" y="0" type="curve"/>
      <point x="221" y="0"/>
      <point x="273" y="0"/>
      <point x="325" y="0" type="curve"/>
      <point x="325" y="61"/>
      <point x="325" y="0"/>
      <point x="325" y="61" type="curve"/>
      <point x="169" y="60"/>
      <point x="325" y="61"/>
      <point x="169" y="60" type="curve"/>
      <point x="169" y="0"/>
      <point x="169" y="60"/>
    </contour>
    <contour>
      <point x="207" y="0" type="curve"/>
      <point x="207" y="267"/>
      <point x="207" y="533"/>
      <point x="207" y="800" type="curve"/>
      <point x="129" y="800"/>
      <point x="207" y="800"/>
      <point x="129" y="800" type="curve"/>
      <point x="129" y="533"/>
      <point x="129" y="267"/>
      <point x="129" y="0" type="curve"/>
      <point x="207" y="0"/>
      <point x="129" y="0"/>
    </contour>
    <contour>
      <point x="169" y="893" type="move" name="top"/>
    </contour>
    <contour>
      <point x="197" y="-18" type="move" name="bottom"/>
    </contour>
  </outline>
</glyph>
<glyph name="m" format="1">
  <advance width="1043"/>
  <unicode hex="006D"/>
  <outline>
    <contour>
      <point x="536" y="0" type="curve"/>
      <point x="661" y="0"/>
      <point x="536" y="0"/>
      <point x="661" y="0" type="curve"/>
      <point x="661" y="61"/>
      <point x="661" y="0"/>
      <point x="661" y="61" type="curve"/>
      <point x="536" y="61"/>
      <point x="661" y="61"/>
      <point x="536" y="61" type="curve"/>
      <point x="536" y="0"/>
      <point x="536" y="61"/>
    </contour>
    <contour>
      <point x="884" y="0" type="curve"/>
      <point x="931" y="0"/>
      <point x="976" y="0"/>
      <point x="1023" y="0" type="curve"/>
      <point x="1023" y="61"/>
      <point x="1023" y="0"/>
      <point x="1023" y="61" type="curve"/>
      <point x="881" y="61"/>
      <point x="1025" y="61"/>
      <point x="884" y="61" type="curve"/>
      <point x="884" y="0"/>
      <point x="884" y="61"/>
    </contour>
    <contour>
      <point x="190" y="61" type="curve"/>
      <point x="41" y="61"/>
      <point x="192" y="61"/>
      <point x="44" y="61" type="curve"/>
      <point x="43" y="0"/>
      <point x="44" y="61"/>
      <point x="43" y="0" type="curve"/>
      <point x="93" y="0"/>
      <point x="140" y="0"/>
      <point x="190" y="0" type="curve"/>
      <point x="190" y="61"/>
      <point x="190" y="0"/>
    </contour>
    <contour>
      <point x="190" y="0" type="curve"/>
      <point x="232" y="0"/>
      <point x="185" y="0"/>
      <point x="312" y="0" type="curve"/>
      <point x="312" y="61"/>
      <point x="312" y="0"/>
      <point x="312" y="61" type="curve"/>
      <point x="185" y="61"/>
      <point x="317" y="61"/>
      <point x="190" y="61" type="curve"/>
      <point x="190" y="0"/>
      <point x="190" y="61"/>
    </contour>
    <contour>
      <point x="190" y="533" type="curve"/>
      <point x="140" y="533"/>
      <point x="93" y="533"/>
      <point x="44" y="533" type="curve"/>
      <point x="43" y="472"/>
      <point x="44" y="533"/>
      <point x="43" y="472" type="curve"/>
      <point x="192" y="472"/>
      <point x="41" y="472"/>
      <point x="190" y="472" type="curve"/>
      <point x="190" y="533"/>
      <point x="190" y="472"/>
    </contour>
    <contour>
      <point x="557" y="316" type="curve"/>
      <point x="593" y="405"/>
      <point x="644" y="476"/>
      <point x="728" y="476" type="curve"/>
      <point x="818" y="476"/>
      <point x="843" y="422"/>
      <point x="843" y="326" type="curve"/>
      <point x="843" y="218"/>
      <point x="843" y="109"/>
      <point x="843" y="0" type="curve"/>
      <point x="921" y="0"/>
      <point x="843" y="0"/>
      <point x="921" y="0" type="curve"/>
      <point x="921" y="111"/>
      <point x="921" y="222"/>
      <point x="921" y="333" type="curve"/>
      <point x="921" y="467"/>
      <point x="878" y="538"/>
      <point x="748" y="538" type="curve"/>
      <point x="638" y="538"/>
      <point x="567" y="462"/>
      <point x="525" y="348" type="curve"/>
      <point x="558" y="316"/>
      <point x="524" y="348"/>
    </contour>
    <contour>
      <point x="211" y="317" type="curve"/>
      <point x="246" y="406"/>
      <point x="296" y="476"/>
      <point x="381" y="476" type="curve"/>
      <point x="471" y="476"/>
      <point x="497" y="422"/>
      <point x="497" y="326" type="curve"/>
      <point x="497" y="218"/>
      <point x="497" y="109"/>
      <point x="497" y="0" type="curve"/>
      <point x="575" y="0"/>
      <point x="497" y="0"/>
      <point x="575" y="0" type="curve"/>
      <point x="575" y="111"/>
      <point x="575" y="222"/>
      <point x="575" y="333" type="curve"/>
      <point x="575" y="467"/>
      <point x="532" y="538"/>
      <point x="402" y="538" type="curve"/>
      <point x="290" y="538"/>
      <point x="225" y="465"/>
      <point x="178" y="349" type="curve"/>
      <point x="212" y="318"/>
      <point x="177" y="349"/>
    </contour>
    <contour>
      <point x="228" y="0" type="curve"/>
      <point x="228" y="178"/>
      <point x="228" y="355"/>
      <point x="228" y="533" type="curve"/>
      <point x="150" y="533"/>
      <point x="228" y="533"/>
      <point x="150" y="533" type="curve"/>
      <point x="150" y="355"/>
      <point x="150" y="178"/>
      <point x="150" y="0" type="curve"/>
      <point x="228" y="0"/>
      <point x="150" y="0"/>
    </contour>
  </outline>
</glyph>
<glyph name="n" format="1">
  <advance width="716"/>
  <unicode hex="006E"/>
  <outline>
    <contour>
      <point x="200" y="308" type="curve"/>
      <point x="229" y="405"/>
      <point x="300" y="475"/>
      <point x="390" y="475" type="curve"/>
      <point x="481" y="475"/>
      <point x="527" y="419"/>
      <point x="527" y="326" type="curve"/>
      <point x="527" y="216"/>
      <point x="527" y="111"/>
      <point x="527" y="0" type="curve"/>
      <point x="582" y="0"/>
      <point x="550" y="0"/>
      <point x="605" y="0" type="curve"/>
      <point x="605" y="113"/>
      <point x="605" y="220"/>
      <point x="605" y="333" type="curve"/>
      <point x="605" y="463"/>
      <point x="541" y="538"/>
      <point x="411" y="538" type="curve"/>
      <point x="295" y="538"/>
      <point x="201" y="465"/>
      <point x="167" y="340" type="curve"/>
      <point x="189" y="316"/>
      <point x="178" y="332"/>
    </contour>
    <contour>
      <point x="565" y="0" type="curve"/>
      <point x="616" y="0"/>
      <point x="659" y="0"/>
      <point x="711" y="0" type="curve"/>
      <point x="711" y="61"/>
      <point x="711" y="0"/>
      <point x="711" y="61" type="curve"/>
      <point x="556" y="61"/>
      <point x="720" y="61"/>
      <point x="565" y="61" type="curve"/>
      <point x="565" y="0"/>
      <point x="565" y="61"/>
    </contour>
    <contour>
      <point x="178" y="61" type="curve"/>
      <point x="23" y="61"/>
      <point x="187" y="61"/>
      <point x="32" y="61" type="curve"/>
      <point x="32" y="0"/>
      <point x="32" y="61"/>
      <point x="32" y="0" type="curve"/>
      <point x="84" y="0"/>
      <point x="127" y="0"/>
      <point x="178" y="0" type="curve"/>
      <point x="178" y="61"/>
      <point x="178" y="0"/>
    </contour>
    <contour>
      <point x="178" y="0" type="curve"/>
      <point x="225" y="0"/>
      <point x="167" y="0"/>
      <point x="309" y="0" type="curve"/>
      <point x="309" y="61"/>
      <point x="309" y="0"/>
      <point x="309" y="61" type="curve"/>
      <point x="167" y="61"/>
      <point x="320" y="61"/>
      <point x="178" y="61" type="curve"/>
      <point x="178" y="0"/>
      <point x="178" y="61"/>
    </contour>
    <contour>
      <point x="217" y="0" type="curve"/>
      <point x="217" y="178"/>
      <point x="217" y="355"/>
      <point x="217" y="533" type="curve"/>
      <point x="139" y="533"/>
      <point x="217" y="533"/>
      <point x="139" y="533" type="curve"/>
      <point x="139" y="355"/>
      <point x="139" y="178"/>
      <point x="139" y="0" type="curve"/>
      <point x="217" y="0"/>
      <point x="139" y="0"/>
    </contour>
    <contour>
      <point x="178" y="533" type="curve"/>
      <point x="127" y="533"/>
      <point x="84" y="533"/>
      <point x="32" y="533" type="curve"/>
      <point x="32" y="472"/>
      <point x="32" y="533"/>
      <point x="32" y="472" type="curve"/>
      <point x="187" y="472"/>
      <point x="23" y="472"/>
      <point x="178" y="472" type="curve"/>
      <point x="178" y="533"/>
      <point x="178" y="472"/>
    </contour>
    <contour>
      <point x="380" y="645" type="move" name="top"/>
    </contour>
    <contour>
      <point x="402" y="-12" type="move" name="bottom"/>
    </contour>
  </outline>
</glyph>
<glyph name="p" format="1">
  <advance width="689"/>
  <unicode hex="0070"/>
  <outline>
    <contour>
      <point x="155" y="-239" type="curve"/>
      <point x="-3" y="-239"/>
      <point x="164" y="-239"/>
      <point x="6" y="-239" type="curve"/>
      <point x="6" y="-300"/>
      <point x="6" y="-239"/>
      <point x="6" y="-300" type="curve"/>
      <point x="59" y="-300"/>
      <point x="103" y="-300"/>
      <point x="155" y="-300" type="curve"/>
      <point x="155" y="-239"/>
      <point x="155" y="-300"/>
    </contour>
    <contour>
      <point x="155" y="-300" type="curve"/>
      <point x="205" y="-300"/>
      <point x="245" y="-300"/>
      <point x="294" y="-300" type="curve"/>
      <point x="294" y="-239"/>
      <point x="294" y="-300"/>
      <point x="294" y="-239" type="curve"/>
      <point x="146" y="-240"/>
      <point x="303" y="-239"/>
      <point x="155" y="-240" type="curve"/>
      <point x="155" y="-300"/>
      <point x="155" y="-240"/>
    </contour>
    <contour>
      <point x="157" y="533" type="curve"/>
      <point x="104" y="533"/>
      <point x="60" y="533"/>
      <point x="8" y="533" type="curve"/>
      <point x="8" y="472"/>
      <point x="8" y="533"/>
      <point x="8" y="472" type="curve"/>
      <point x="166" y="473"/>
      <point x="-2" y="472"/>
      <point x="157" y="473" type="curve"/>
      <point x="157" y="533"/>
      <point x="157" y="473"/>
    </contour>
    <contour>
      <point x="172" y="361" type="curve"/>
      <point x="214" y="424"/>
      <point x="286" y="478"/>
      <point x="376" y="478" type="curve"/>
      <point x="495" y="478"/>
      <point x="556" y="391"/>
      <point x="556" y="270" type="curve"/>
      <point x="558" y="145"/>
      <point x="495" y="55"/>
      <point x="376" y="56" type="curve"/>
      <point x="293" y="56"/>
      <point x="233" y="91"/>
      <point x="175" y="147" type="curve"/>
      <point x="148" y="123"/>
      <point x="166" y="133"/>
      <point x="139" y="110" type="curve"/>
      <point x="206" y="37"/>
      <point x="282" y="-5"/>
      <point x="386" y="-5" type="curve"/>
      <point x="547" y="-5"/>
      <point x="634" y="111"/>
      <point x="633" y="274" type="curve"/>
      <point x="633" y="429"/>
      <point x="546" y="539"/>
      <point x="390" y="539" type="curve"/>
      <point x="280" y="539"/>
      <point x="196" y="482"/>
      <point x="144" y="408" type="curve"/>
      <point x="166" y="373"/>
      <point x="151" y="396"/>
    </contour>
    <contour>
      <point x="195" y="-300" type="curve"/>
      <point x="195" y="-22"/>
      <point x="195" y="255"/>
      <point x="195" y="533" type="curve"/>
      <point x="117" y="533"/>
      <point x="195" y="533"/>
      <point x="117" y="533" type="curve"/>
      <point x="117" y="255"/>
      <point x="117" y="-22"/>
      <point x="117" y="-300" type="curve"/>
      <point x="195" y="-300"/>
      <point x="117" y="-300"/>
    </contour>
  </outline>
</glyph>
<glyph name="t" format="1">
  <advance width="441"/>
  <unicode hex="0074"/>
  <outline>
    <contour>
      <point x="18" y="472" type="curve"/>
      <point x="414" y="472" type="line"/>
      <point x="414" y="533"/>
      <point x="414" y="472"/>
      <point x="414" y="533" type="curve"/>
      <point x="18" y="533" type="line"/>
      <point x="18" y="472"/>
      <point x="18" y="533"/>
    </contour>
    <contour>
      <point x="389" y="81" type="curve"/>
      <point x="359" y="66"/>
      <point x="336" y="58"/>
      <point x="303" y="58" type="curve"/>
      <point x="243" y="58"/>
      <point x="217" y="93"/>
      <point x="217" y="158" type="curve"/>
      <point x="217" y="681" type="line"/>
      <point x="182" y="659"/>
      <point x="175" y="655"/>
      <point x="139" y="633" type="curve"/>
      <point x="139" y="155" type="line"/>
      <point x="139" y="50"/>
      <point x="193" y="-5"/>
      <point x="294" y="-5" type="curve"/>
      <point x="343" y="-5"/>
      <point x="376" y="8"/>
      <point x="416" y="27" type="curve"/>
      <point x="389" y="81"/>
      <point x="416" y="27"/>
    </contour>
    <contour>
      <point x="311" y="-18" type="move" name="bottom"/>
    </contour>
  </outline>
</glyph>
<glyph name="v" format="1">
  <advance width="703"/>
  <unicode hex="0076"/>
  <outline>
    <contour>
      <point x="143" y="533" type="curve"/>
      <point x="98" y="533"/>
      <point x="55" y="533"/>
      <point x="10" y="533" type="curve"/>
      <point x="10" y="472"/>
      <point x="10" y="533"/>
      <point x="10" y="472" type="curve"/>
      <point x="146" y="472"/>
      <point x="8" y="472"/>
      <point x="143" y="472" type="curve"/>
      <point x="143" y="533"/>
      <point x="143" y="472"/>
    </contour>
    <contour>
      <point x="143" y="472" type="curve"/>
      <point x="284" y="472"/>
      <point x="141" y="472"/>
      <point x="281" y="472" type="curve"/>
      <point x="281" y="533"/>
      <point x="281" y="472"/>
      <point x="281" y="533" type="curve"/>
      <point x="235" y="533"/>
      <point x="190" y="533"/>
      <point x="143" y="533" type="curve"/>
      <point x="143" y="472"/>
      <point x="143" y="533"/>
    </contour>
    <contour>
      <point x="565" y="533" type="curve"/>
      <point x="518" y="533"/>
      <point x="472" y="533"/>
      <point x="425" y="533" type="curve"/>
      <point x="425" y="472"/>
      <point x="425" y="533"/>
      <point x="425" y="472" type="curve"/>
      <point x="568" y="472"/>
      <point x="422" y="472"/>
      <point x="565" y="472" type="curve"/>
      <point x="565" y="533"/>
      <point x="565" y="472"/>
    </contour>
    <contour>
      <point x="565" y="472" type="curve"/>
      <point x="700" y="472"/>
      <point x="563" y="472"/>
      <point x="698" y="472" type="curve"/>
      <point x="698" y="533"/>
      <point x="698" y="472"/>
      <point x="698" y="533" type="curve"/>
      <point x="653" y="533"/>
      <point x="610" y="533"/>
      <point x="565" y="533" type="curve"/>
      <point x="565" y="472"/>
      <point x="565" y="533"/>
    </contour>
    <contour>
      <point x="88" y="533" type="curve"/>
      <point x="161" y="355"/>
      <point x="233" y="178"/>
      <point x="305" y="0" type="curve"/>
      <point x="382" y="0"/>
      <point x="305" y="0"/>
      <point x="382" y="0" type="curve"/>
      <point x="310" y="178"/>
      <point x="240" y="355"/>
      <point x="169" y="533" type="curve"/>
      <point x="88" y="533"/>
      <point x="169" y="533"/>
    </contour>
    <contour>
      <point x="541" y="533" type="curve"/>
      <point x="316" y="0" type="line"/>
      <point x="393" y="0"/>
      <point x="316" y="0"/>
      <point x="393" y="0" type="curve"/>
      <point x="469" y="178"/>
      <point x="544" y="355"/>
      <point x="620" y="533" type="curve"/>
      <point x="541" y="533"/>
      <point x="620" y="533"/>
    </contour>
  </outline>
</glyph>
<glyph name="w" format="1">
  <advance width="1045"/>
  <unicode hex="0077"/>
  <outline>
    <contour>
      <point x="898" y="472" type="curve"/>
      <point x="1040" y="472"/>
      <point x="895" y="472"/>
      <point x="1037" y="472" type="curve"/>
      <point x="1037" y="533"/>
      <point x="1037" y="472"/>
      <point x="1037" y="533" type="curve"/>
      <point x="990" y="533"/>
      <point x="945" y="533"/>
      <point x="898" y="533" type="curve"/>
      <point x="898" y="472"/>
      <point x="898" y="533"/>
    </contour>
    <contour>
      <point x="898" y="533" type="curve"/>
      <point x="850" y="533"/>
      <point x="809" y="533"/>
      <point x="762" y="533" type="curve"/>
      <point x="762" y="472"/>
      <point x="762" y="533"/>
      <point x="762" y="472" type="curve"/>
      <point x="905" y="472"/>
      <point x="755" y="472"/>
      <point x="898" y="472" type="curve"/>
      <point x="898" y="533"/>
      <point x="898" y="472"/>
    </contour>
    <contour>
      <point x="148" y="533" type="curve"/>
      <point x="101" y="533"/>
      <point x="56" y="533"/>
      <point x="8" y="533" type="curve"/>
      <point x="8" y="472"/>
      <point x="8" y="533"/>
      <point x="8" y="472" type="curve"/>
      <point x="151" y="472"/>
      <point x="6" y="472"/>
      <point x="148" y="472" type="curve"/>
      <point x="148" y="533"/>
      <point x="148" y="472"/>
    </contour>
    <contour>
      <point x="148" y="472" type="curve"/>
      <point x="290" y="472"/>
      <point x="143" y="472"/>
      <point x="285" y="472" type="curve"/>
      <point x="285" y="533"/>
      <point x="285" y="472"/>
      <point x="285" y="533" type="curve"/>
      <point x="238" y="533"/>
      <point x="195" y="533"/>
      <point x="148" y="533" type="curve"/>
      <point x="148" y="472"/>
      <point x="148" y="533"/>
    </contour>
    <contour>
      <point x="353" y="0" type="curve"/>
      <point x="424" y="178"/>
      <point x="494" y="355"/>
      <point x="564" y="533" type="curve"/>
      <point x="489" y="533"/>
      <point x="564" y="533"/>
      <point x="489" y="533" type="curve"/>
      <point x="419" y="355"/>
      <point x="349" y="178"/>
      <point x="280" y="0" type="curve"/>
      <point x="353" y="0"/>
      <point x="280" y="0"/>
    </contour>
    <contour>
      <point x="882" y="533" type="curve"/>
      <point x="817" y="355"/>
      <point x="752" y="178"/>
      <point x="687" y="0" type="curve"/>
      <point x="759" y="0"/>
      <point x="687" y="0"/>
      <point x="759" y="0" type="curve"/>
      <point x="826" y="178"/>
      <point x="892" y="355"/>
      <point x="958" y="533" type="curve"/>
      <point x="882" y="533"/>
      <point x="958" y="533"/>
    </contour>
    <contour>
      <point x="495" y="533" type="curve"/>
      <point x="559" y="355"/>
      <point x="622" y="178"/>
      <point x="685" y="0" type="curve"/>
      <point x="758" y="0"/>
      <point x="685" y="0"/>
      <point x="758" y="0" type="curve"/>
      <point x="696" y="178"/>
      <point x="632" y="355"/>
      <point x="570" y="533" type="curve"/>
      <point x="495" y="533"/>
      <point x="570" y="533"/>
    </contour>
    <contour>
      <point x="89" y="533" type="curve"/>
      <point x="152" y="355"/>
      <point x="216" y="178"/>
      <point x="279" y="0" type="curve"/>
      <point x="352" y="0"/>
      <point x="279" y="0"/>
      <point x="352" y="0" type="curve"/>
      <point x="289" y="178"/>
      <point x="227" y="355"/>
      <point x="164" y="533" type="curve"/>
      <point x="89" y="533"/>
      <point x="164" y="533"/>
    </contour>
  </outline>
</glyph>
<glyph name="x" format="1">
  <advance width="701"/>
  <unicode hex="0078"/>
  <outline>
    <contour>
      <point x="135" y="61" type="curve"/>
      <point x="-2" y="61"/>
      <point x="149" y="61"/>
      <point x="12" y="61" type="curve"/>
      <point x="12" y="0"/>
      <point x="12" y="61"/>
      <point x="12" y="0" type="curve"/>
      <point x="57" y="0"/>
      <point x="89" y="0"/>
      <point x="135" y="0" type="curve"/>
      <point x="135" y="61"/>
      <point x="135" y="0"/>
    </contour>
    <contour>
      <point x="569" y="61" type="curve"/>
      <point x="406" y="61"/>
      <point x="575" y="60"/>
      <point x="412" y="60" type="curve"/>
      <point x="412" y="0"/>
      <point x="412" y="60"/>
      <point x="412" y="0" type="curve"/>
      <point x="466" y="0"/>
      <point x="514" y="0"/>
      <point x="569" y="0" type="curve"/>
      <point x="569" y="61"/>
      <point x="569" y="0"/>
    </contour>
    <contour>
      <point x="565" y="0" type="curve"/>
      <point x="610" y="0"/>
      <point x="649" y="0"/>
      <point x="694" y="0" type="curve"/>
      <point x="694" y="61"/>
      <point x="694" y="0"/>
      <point x="694" y="61" type="curve"/>
      <point x="559" y="61"/>
      <point x="700" y="61"/>
      <point x="565" y="61" type="curve"/>
      <point x="565" y="0"/>
      <point x="565" y="61"/>
    </contour>
    <contour>
      <point x="131" y="0" type="curve"/>
      <point x="185" y="0"/>
      <point x="126" y="0"/>
      <point x="290" y="0" type="curve"/>
      <point x="290" y="61"/>
      <point x="290" y="0"/>
      <point x="290" y="61" type="curve"/>
      <point x="126" y="61"/>
      <point x="295" y="61"/>
      <point x="131" y="61" type="curve"/>
      <point x="131" y="0"/>
      <point x="131" y="61"/>
    </contour>
    <contour>
      <point x="548" y="472" type="curve"/>
      <point x="687" y="472"/>
      <point x="542" y="472"/>
      <point x="680" y="472" type="curve"/>
      <point x="680" y="533"/>
      <point x="680" y="472"/>
      <point x="680" y="533" type="curve"/>
      <point x="634" y="533"/>
      <point x="594" y="533"/>
      <point x="548" y="533" type="curve"/>
      <point x="548" y="472"/>
      <point x="548" y="533"/>
    </contour>
    <contour>
      <point x="167" y="533" type="curve"/>
      <point x="120" y="533"/>
      <point x="81" y="533"/>
      <point x="34" y="533" type="curve"/>
      <point x="34" y="472"/>
      <point x="34" y="533"/>
      <point x="34" y="472" type="curve"/>
      <point x="175" y="472"/>
      <point x="26" y="472"/>
      <point x="167" y="472" type="curve"/>
      <point x="167" y="533"/>
      <point x="167" y="472"/>
    </contour>
    <contour>
      <point x="154" y="472" type="curve"/>
      <point x="312" y="472"/>
      <point x="144" y="472"/>
      <point x="302" y="472" type="curve"/>
      <point x="302" y="533"/>
      <point x="302" y="472"/>
      <point x="302" y="533" type="curve"/>
      <point x="250" y="533"/>
      <point x="207" y="533"/>
      <point x="154" y="533" type="curve"/>
      <point x="154" y="472"/>
      <point x="154" y="533"/>
    </contour>
    <contour>
      <point x="554" y="533" type="curve"/>
      <point x="503" y="533"/>
      <point x="460" y="533"/>
      <point x="409" y="533" type="curve"/>
      <point x="409" y="472"/>
      <point x="409" y="533"/>
      <point x="409" y="472" type="curve"/>
      <point x="563" y="472"/>
      <point x="400" y="472"/>
      <point x="554" y="472" type="curve"/>
      <point x="554" y="533"/>
      <point x="554" y="472"/>
    </contour>
    <contour>
      <point x="615" y="20" type="curve"/>
      <point x="531" y="124"/>
      <point x="258" y="430"/>
      <point x="173" y="533" type="curve"/>
      <point x="102" y="533"/>
      <point x="180" y="511"/>
      <point x="108" y="511" type="curve"/>
      <point x="192" y="408"/>
      <point x="460" y="104"/>
      <point x="543" y="1" type="curve"/>
      <point x="621" y="1"/>
      <point x="537" y="20"/>
    </contour>
    <contour>
      <point x="544" y="533" type="curve"/>
      <point x="459" y="430"/>
      <point x="173" y="125"/>
      <point x="88" y="22" type="curve"/>
      <point x="166" y="22"/>
      <point x="80" y="0"/>
      <point x="158" y="0" type="curve"/>
      <point x="242" y="103"/>
      <point x="520" y="407"/>
      <point x="605" y="510" type="curve"/>
      <point x="533" y="510"/>
      <point x="615" y="533"/>
    </contour>
  </outline>
</glyph>
<glyph name="y" format="1">
  <advance width="755"/>
  <unicode hex="0079"/>
  <outline>
    <contour>
      <point x="239" y="-239" type="curve"/>
      <point x="106" y="-239"/>
      <point x="241" y="-239"/>
      <point x="109" y="-239" type="curve"/>
      <point x="109" y="-300"/>
      <point x="109" y="-239"/>
      <point x="109" y="-300" type="curve"/>
      <point x="153" y="-300"/>
      <point x="194" y="-300"/>
      <point x="239" y="-300" type="curve"/>
      <point x="239" y="-239"/>
      <point x="239" y="-300"/>
    </contour>
    <contour>
      <point x="154" y="533" type="curve"/>
      <point x="106" y="533"/>
      <point x="60" y="533"/>
      <point x="12" y="533" type="curve"/>
      <point x="12" y="472"/>
      <point x="12" y="533"/>
      <point x="12" y="472" type="curve"/>
      <point x="156" y="473"/>
      <point x="9" y="472"/>
      <point x="154" y="473" type="curve"/>
      <point x="154" y="533"/>
      <point x="154" y="473"/>
    </contour>
    <contour>
      <point x="154" y="473" type="curve"/>
      <point x="302" y="472"/>
      <point x="151" y="473"/>
      <point x="299" y="472" type="curve"/>
      <point x="299" y="533"/>
      <point x="299" y="472"/>
      <point x="299" y="533" type="curve"/>
      <point x="250" y="533"/>
      <point x="204" y="533"/>
      <point x="154" y="533" type="curve"/>
      <point x="154" y="473"/>
      <point x="154" y="533"/>
    </contour>
    <contour>
      <point x="611" y="533" type="curve"/>
      <point x="561" y="533"/>
      <point x="513" y="533"/>
      <point x="463" y="533" type="curve"/>
      <point x="463" y="472"/>
      <point x="463" y="533"/>
      <point x="463" y="472" type="curve"/>
      <point x="613" y="473"/>
      <point x="461" y="472"/>
      <point x="611" y="473" type="curve"/>
      <point x="611" y="533"/>
      <point x="611" y="473"/>
    </contour>
    <contour>
      <point x="611" y="473" type="curve"/>
      <point x="750" y="472"/>
      <point x="608" y="473"/>
      <point x="747" y="472" type="curve"/>
      <point x="747" y="533"/>
      <point x="747" y="472"/>
      <point x="747" y="533" type="curve"/>
      <point x="701" y="533"/>
      <point x="657" y="533"/>
      <point x="611" y="533" type="curve"/>
      <point x="611" y="473"/>
      <point x="611" y="533"/>
    </contour>
    <contour>
      <point x="405" y="-2" type="curve"/>
      <point x="360" y="89"/>
      <point x="217" y="442"/>
      <point x="172" y="533" type="curve"/>
      <point x="91" y="533"/>
      <point x="172" y="533"/>
      <point x="91" y="533" type="curve"/>
      <point x="138" y="442"/>
      <point x="288" y="81"/>
      <point x="334" y="-9" type="curve"/>
      <point x="405" y="-9"/>
      <point x="334" y="-2"/>
    </contour>
    <contour>
      <point x="268" y="-300" type="curve"/>
      <point x="344" y="-160"/>
      <point x="594" y="393"/>
      <point x="670" y="533" type="curve"/>
      <point x="590" y="533"/>
      <point x="670" y="533"/>
      <point x="590" y="533" type="curve"/>
      <point x="513" y="393"/>
      <point x="262" y="-160"/>
      <point x="186" y="-300" type="curve"/>
      <point x="268" y="-300"/>
      <point x="186" y="-300"/>
    </contour>
    <contour>
      <point x="380" y="645" type="move" name="top"/>
    </contour>
  </outline>
</glyph>
<glyph name="braceleft" format="1">
  <advance width="330"/>
  <unicode hex="007B"/>
  <outline>
    <contour>
      <point x="280" y="-57" type="curve"/>
      <point x="221" y="-57"/>
      <point x="195" y="-16"/>
      <point x="195" y="43" type="curve"/>
      <point x="195" y="99"/>
      <point x="195" y="154"/>
      <point x="195" y="210" type="curve"/>
      <point x="195" y="308"/>
      <point x="137" y="371"/>
      <point x="39" y="371" type="curve"/>
      <point x="39" y="308"/>
      <point x="39" y="371"/>
      <point x="39" y="308" type="curve"/>
      <point x="95" y="308"/>
      <point x="124" y="272"/>
      <point x="124" y="216" type="curve"/>
      <point x="124" y="159"/>
      <point x="124" y="103"/>
      <point x="124" y="47" type="curve"/>
      <point x="124" y="-54"/>
      <point x="181" y="-117"/>
      <point x="280" y="-117" type="curve"/>
      <point x="280" y="-57"/>
      <point x="280" y="-117"/>
    </contour>
    <contour>
      <point x="280" y="796" type="curve"/>
      <point x="181" y="796"/>
      <point x="124" y="734"/>
      <point x="124" y="634" type="curve"/>
      <point x="124" y="577"/>
      <point x="124" y="519"/>
      <point x="124" y="461" type="curve"/>
      <point x="124" y="405"/>
      <point x="94" y="371"/>
      <point x="39" y="371" type="curve"/>
      <point x="39" y="308"/>
      <point x="39" y="371"/>
      <point x="39" y="308" type="curve"/>
      <point x="137" y="308"/>
      <point x="194" y="370"/>
      <point x="194" y="470" type="curve"/>
      <point x="194" y="525"/>
      <point x="194" y="579"/>
      <point x="194" y="634" type="curve"/>
      <point x="194" y="694"/>
      <point x="221" y="735"/>
      <point x="280" y="735" type="curve"/>
      <point x="280" y="796"/>
      <point x="280" y="735"/>
    </contour>
  </outline>
</glyph>
<glyph name="braceright" format="1">
  <advance width="330"/>
  <unicode hex="007D"/>
  <outline>
    <contour>
      <point x="50" y="-117" type="curve"/>
      <point x="149" y="-117"/>
      <point x="206" y="-54"/>
      <point x="206" y="47" type="curve"/>
      <point x="206" y="103"/>
      <point x="206" y="159"/>
      <point x="206" y="216" type="curve"/>
      <point x="206" y="272"/>
      <point x="236" y="308"/>
      <point x="291" y="308" type="curve"/>
      <point x="291" y="371"/>
      <point x="291" y="308"/>
      <point x="291" y="371" type="curve"/>
      <point x="194" y="371"/>
      <point x="136" y="308"/>
      <point x="136" y="210" type="curve"/>
      <point x="136" y="154"/>
      <point x="136" y="99"/>
      <point x="136" y="43" type="curve"/>
      <point x="136" y="-16"/>
      <point x="109" y="-57"/>
      <point x="50" y="-57" type="curve"/>
      <point x="50" y="-117"/>
      <point x="50" y="-57"/>
    </contour>
    <contour>
      <point x="50" y="735" type="curve"/>
      <point x="109" y="735"/>
      <point x="135" y="694"/>
      <point x="135" y="634" type="curve"/>
      <point x="135" y="579"/>
      <point x="135" y="525"/>
      <point x="135" y="470" type="curve"/>
      <point x="135" y="370"/>
      <point x="193" y="308"/>
      <point x="291" y="308" type="curve"/>
      <point x="291" y="371"/>
      <point x="291" y="308"/>
      <point x="291" y="371" type="curve"/>
      <point x="236" y="371"/>
      <point x="206" y="405"/>
      <point x="206" y="461" type="curve"/>
      <point x="206" y="519"/>
      <point x="206" y="577"/>
      <point x="206" y="634" type="curve"/>
      <point x="206" y="734"/>
      <point x="149" y="795"/>
      <point x="50" y="795" type="curve"/>
      <point x="50" y="735"/>
      <point x="50" y="795"/>
    </contour>
  </outline>
</glyph>
<glyph name="asciitilde" format="1">
  <advance width="717"/>
  <unicode hex="007E"/>
  <outline>
    <contour>
      <point x="577" y="359" type="curve"/>
      <point x="560" y="313"/>
      <point x="539" y="269"/>
      <point x="488" y="269" type="curve"/>
      <point x="443" y="269"/>
      <point x="416" y="282"/>
      <point x="380" y="309" type="curve"/>
      <point x="333" y="345"/>
      <point x="298" y="366"/>
      <point x="238" y="366" type="curve"/>
      <point x="147" y="366"/>
      <point x="104" y="319"/>
      <point x="78" y="234" type="curve"/>
      <point x="108" y="223"/>
      <point x="107" y="222"/>
      <point x="137" y="211" type="curve"/>
      <point x="153" y="264"/>
      <point x="179" y="304"/>
      <point x="235" y="304" type="curve"/>
      <point x="275" y="304"/>
      <point x="298" y="292"/>
      <point x="329" y="268" type="curve"/>
      <point x="381" y="229"/>
      <point x="418" y="209"/>
      <point x="484" y="208" type="curve"/>
      <point x="571" y="208"/>
      <point x="609" y="258"/>
      <point x="639" y="337" type="curve"/>
      <point x="608" y="348"/>
      <point x="609" y="349"/>
    </contour>
  </outline>
</glyph>
<glyph name="cent" format="1">
  <advance width="681"/>
  <unicode hex="00A2"/>
  <outline>
    <contour>
      <point x="397" y="-53" type="curve"/>
      <point x="397" y="-13"/>
      <point x="397" y="27"/>
      <point x="397" y="67" type="curve"/>
      <point x="319" y="67"/>
      <point x="397" y="67"/>
      <point x="319" y="67" type="curve"/>
      <point x="319" y="27"/>
      <point x="319" y="-13"/>
      <point x="319" y="-53" type="curve"/>
      <point x="397" y="-53"/>
      <point x="319" y="-53"/>
    </contour>
    <contour>
      <point x="340" y="778" type="curve"/>
      <point x="340" y="742"/>
      <point x="340" y="706"/>
      <point x="340" y="670" type="curve"/>
      <point x="418" y="670"/>
      <point x="340" y="670"/>
      <point x="418" y="670" type="curve"/>
      <point x="418" y="706"/>
      <point x="418" y="742"/>
      <point x="418" y="778" type="curve"/>
      <point x="340" y="778"/>
      <point x="418" y="778"/>
    </contour>
    <contour>
      <point x="622" y="610" type="curve"/>
      <point x="543" y="662"/>
      <point x="479" y="682"/>
      <point x="386" y="682" type="curve"/>
      <point x="184" y="682"/>
      <point x="57" y="565"/>
      <point x="57" y="365" type="curve"/>
      <point x="57" y="174"/>
      <point x="164" y="50"/>
      <point x="353" y="50" type="curve"/>
      <point x="460" y="50"/>
      <point x="535" y="79"/>
      <point x="621" y="144" type="curve"/>
      <point x="576" y="193"/>
      <point x="621" y="144"/>
      <point x="576" y="193" type="curve"/>
      <point x="504" y="140"/>
      <point x="446" y="113"/>
      <point x="360" y="113" type="curve"/>
      <point x="213" y="113"/>
      <point x="134" y="216"/>
      <point x="134" y="368" type="curve"/>
      <point x="134" y="523"/>
      <point x="227" y="619"/>
      <point x="379" y="619" type="curve"/>
      <point x="458" y="619"/>
      <point x="513" y="601"/>
      <point x="582" y="558" type="curve"/>
      <point x="622" y="610"/>
      <point x="582" y="558"/>
    </contour>
    <contour>
      <point x="560" y="610" type="curve"/>
      <point x="560" y="488"/>
      <point x="560" y="599"/>
      <point x="560" y="477" type="curve"/>
      <point x="622" y="477"/>
      <point x="560" y="477"/>
      <point x="622" y="477" type="curve"/>
      <point x="622" y="599"/>
      <point x="622" y="488"/>
      <point x="622" y="610" type="curve"/>
      <point x="560" y="610"/>
      <point x="622" y="610"/>
    </contour>
  </outline>
</glyph>
<glyph name="sterling" format="1">
  <advance width="543"/>
  <unicode hex="00A3"/>
  <outline>
    <contour>
      <point x="471" y="61" type="curve"/>
      <point x="330" y="61"/>
      <point x="189" y="61"/>
      <point x="49" y="61" type="curve"/>
      <point x="49" y="0"/>
      <point x="49" y="61"/>
      <point x="49" y="0" type="curve"/>
      <point x="189" y="0"/>
      <point x="331" y="0"/>
      <point x="471" y="0" type="curve"/>
      <point x="471" y="61"/>
      <point x="471" y="0"/>
    </contour>
    <contour>
      <point x="421" y="406" type="curve"/>
      <point x="309" y="406"/>
      <point x="195" y="406"/>
      <point x="84" y="406" type="curve"/>
      <point x="84" y="346"/>
      <point x="84" y="406"/>
      <point x="84" y="346" type="curve"/>
      <point x="195" y="346"/>
      <point x="309" y="346"/>
      <point x="421" y="346" type="curve"/>
      <point x="421" y="406"/>
      <point x="421" y="346"/>
    </contour>
    <contour>
      <point x="493" y="669" type="curve"/>
      <point x="443" y="707"/>
      <point x="402" y="722"/>
      <point x="342" y="722" type="curve"/>
      <point x="175" y="722"/>
      <point x="117" y="562"/>
      <point x="161" y="370" type="curve"/>
      <point x="197" y="207"/>
      <point x="174" y="61"/>
      <point x="49" y="61" type="curve"/>
      <point x="49" y="0"/>
      <point x="49" y="61"/>
      <point x="49" y="0" type="curve"/>
      <point x="232" y="0"/>
      <point x="280" y="177"/>
      <point x="235" y="382" type="curve"/>
      <point x="203" y="531"/>
      <point x="230" y="664"/>
      <point x="338" y="664" type="curve"/>
      <point x="385" y="664"/>
      <point x="416" y="650"/>
      <point x="454" y="624" type="curve"/>
      <point x="493" y="669"/>
      <point x="454" y="624"/>
    </contour>
  </outline>
</glyph>
<glyph name="currency" format="1">
  <advance width="676"/>
  <unicode hex="00A4"/>
  <outline>
    <contour>
      <point x="222" y="313" type="curve"/>
      <point x="222" y="385"/>
      <point x="265" y="433"/>
      <point x="338" y="433" type="curve"/>
      <point x="412" y="433"/>
      <point x="453" y="387"/>
      <point x="453" y="313" type="curve"/>
      <point x="453" y="239"/>
      <point x="415" y="187"/>
      <point x="343" y="187" type="curve"/>
      <point x="265" y="187"/>
      <point x="222" y="236"/>
      <point x="222" y="313" type="curve"/>
      <point x="144" y="313"/>
      <point x="224" y="313"/>
      <point x="146" y="313" type="curve"/>
      <point x="146" y="196"/>
      <point x="222" y="127"/>
      <point x="341" y="127" type="curve"/>
      <point x="458" y="127"/>
      <point x="530" y="199"/>
      <point x="530" y="315" type="curve"/>
      <point x="530" y="426"/>
      <point x="457" y="493"/>
      <point x="345" y="493" type="curve"/>
      <point x="225" y="493"/>
      <point x="146" y="428"/>
      <point x="146" y="313" type="curve"/>
      <point x="224" y="313"/>
      <point x="144" y="313"/>
    </contour>
    <contour>
      <point x="463" y="373" type="line"/>
      <point x="612" y="513" type="line"/>
      <point x="552" y="574" type="line"/>
      <point x="411" y="425" type="line"/>
    </contour>
    <contour>
      <point x="412" y="201" type="line"/>
      <point x="553" y="52" type="line"/>
      <point x="613" y="113" type="line"/>
      <point x="465" y="253" type="line"/>
    </contour>
    <contour>
      <point x="210" y="254" type="line"/>
      <point x="62" y="113" type="line"/>
      <point x="122" y="53" type="line"/>
      <point x="263" y="201" type="line"/>
    </contour>
    <contour>
      <point x="265" y="426" type="line"/>
      <point x="125" y="575" type="line"/>
      <point x="64" y="514" type="line"/>
      <point x="213" y="374" type="line"/>
    </contour>
  </outline>
</glyph>
<glyph name="section" format="1">
  <advance width="541"/>
  <unicode hex="00A7"/>
  <outline>
    <contour>
      <point x="436" y="705" type="curve"/>
      <point x="380" y="735"/>
      <point x="337" y="750"/>
      <point x="274" y="750" type="curve"/>
      <point x="170" y="750"/>
      <point x="98" y="704"/>
      <point x="98" y="612" type="curve"/>
      <point x="98" y="528"/>
      <point x="157" y="487"/>
      <point x="241" y="459" type="curve"/>
      <point x="319" y="434"/>
      <point x="404" y="428"/>
      <point x="404" y="359" type="curve"/>
      <point x="404" y="295"/>
      <point x="356" y="264"/>
      <point x="286" y="251" type="curve"/>
      <point x="332" y="203"/>
      <point x="286" y="251"/>
      <point x="332" y="203" type="curve"/>
      <point x="423" y="224"/>
      <point x="482" y="272"/>
      <point x="482" y="361" type="curve"/>
      <point x="481" y="465"/>
      <point x="385" y="485"/>
      <point x="279" y="516" type="curve"/>
      <point x="222" y="534"/>
      <point x="174" y="557"/>
      <point x="174" y="612" type="curve"/>
      <point x="174" y="664"/>
      <point x="212" y="690"/>
      <point x="269" y="690" type="curve"/>
      <point x="321" y="690"/>
      <point x="355" y="679"/>
      <point x="403" y="656" type="curve"/>
      <point x="436" y="705"/>
      <point x="403" y="656"/>
    </contour>
    <contour>
      <point x="207" y="520" type="curve"/>
      <point x="122" y="495"/>
      <point x="63" y="452"/>
      <point x="63" y="367" type="curve"/>
      <point x="63" y="268"/>
      <point x="146" y="238"/>
      <point x="246" y="209" type="curve"/>
      <point x="311" y="187"/>
      <point x="375" y="172"/>
      <point x="375" y="113" type="curve"/>
      <point x="375" y="60"/>
      <point x="332" y="32"/>
      <point x="273" y="32" type="curve"/>
      <point x="214" y="32"/>
      <point x="177" y="48"/>
      <point x="124" y="78" type="curve"/>
      <point x="84" y="32"/>
      <point x="124" y="78"/>
      <point x="84" y="32" type="curve"/>
      <point x="146" y="-10"/>
      <point x="197" y="-28"/>
      <point x="271" y="-28" type="curve"/>
      <point x="375" y="-28"/>
      <point x="452" y="16"/>
      <point x="452" y="114" type="curve"/>
      <point x="450" y="202"/>
      <point x="384" y="240"/>
      <point x="295" y="265" type="curve"/>
      <point x="219" y="290"/>
      <point x="141" y="301"/>
      <point x="141" y="369" type="curve"/>
      <point x="141" y="429"/>
      <point x="184" y="456"/>
      <point x="246" y="475" type="curve"/>
      <point x="207" y="520"/>
      <point x="246" y="475"/>
    </contour>
    <contour>
      <point x="146" y="32" type="curve"/>
      <point x="146" y="152"/>
      <point x="146" y="33"/>
      <point x="146" y="153" type="curve"/>
      <point x="84" y="153"/>
      <point x="146" y="153"/>
      <point x="84" y="153" type="curve"/>
      <point x="84" y="33"/>
      <point x="84" y="152"/>
      <point x="84" y="32" type="curve"/>
      <point x="146" y="32"/>
      <point x="84" y="32"/>
    </contour>
    <contour>
      <point x="436" y="584" type="curve"/>
      <point x="436" y="704"/>
      <point x="436" y="585"/>
      <point x="436" y="705" type="curve"/>
      <point x="374" y="705"/>
      <point x="436" y="705"/>
      <point x="374" y="705" type="curve"/>
      <point x="374" y="585"/>
      <point x="374" y="704"/>
      <point x="374" y="584" type="curve"/>
      <point x="436" y="584"/>
      <point x="374" y="584"/>
    </contour>
  </outline>
</glyph>
<glyph name="dieresis" format="1">
  <advance width="395"/>
  <unicode hex="00A8"/>
  <outline>
    <contour>
      <point x="135" y="647" type="curve"/>
      <point x="135" y="674"/>
      <point x="115" y="688"/>
      <point x="88" y="688" type="curve"/>
      <point x="60" y="688"/>
      <point x="42" y="673"/>
      <point x="42" y="647" type="curve"/>
      <point x="127" y="647"/>
      <point x="50" y="647"/>
      <point x="135" y="647" type="curve"/>
      <point x="135" y="619"/>
      <point x="115" y="606"/>
      <point x="87" y="606" type="curve"/>
      <point x="60" y="606"/>
      <point x="42" y="620"/>
      <point x="42" y="647" type="curve"/>
      <point x="127" y="647"/>
      <point x="50" y="647"/>
    </contour>
    <contour>
      <point x="301" y="647" type="curve"/>
      <point x="301" y="674"/>
      <point x="281" y="688"/>
      <point x="253" y="688" type="curve"/>
      <point x="226" y="688"/>
      <point x="208" y="673"/>
      <point x="208" y="647" type="curve"/>
      <point x="293" y="647"/>
      <point x="215" y="647"/>
      <point x="301" y="647" type="curve"/>
      <point x="301" y="619"/>
      <point x="281" y="606"/>
      <point x="253" y="606" type="curve"/>
      <point x="226" y="606"/>
      <point x="208" y="620"/>
      <point x="208" y="647" type="curve"/>
      <point x="293" y="647"/>
      <point x="215" y="647"/>
    </contour>
    <contour>
      <point x="172" y="609" type="move" name="_top"/>
    </contour>
  </outline>
</glyph>
<glyph name="copyright" format="1">
  <advance width="820"/>
  <unicode hex="00A9"/>
  <outline>
    <contour>
      <point x="127" y="321" type="curve"/>
      <point x="127" y="489"/>
      <point x="244" y="595"/>
      <point x="414" y="595" type="curve"/>
      <point x="581" y="595"/>
      <point x="694" y="487"/>
      <point x="694" y="320" type="curve"/>
      <point x="694" y="157"/>
      <point x="584" y="51"/>
      <point x="421" y="51" type="curve"/>
      <point x="250" y="51"/>
      <point x="127" y="153"/>
      <point x="127" y="321" type="curve"/>
      <point x="62" y="321"/>
      <point x="128" y="321"/>
      <point x="62" y="321" type="curve"/>
      <point x="62" y="122"/>
      <point x="212" y="0"/>
      <point x="418" y="0" type="curve"/>
      <point x="618" y="0"/>
      <point x="758" y="125"/>
      <point x="758" y="322" type="curve"/>
      <point x="758" y="521"/>
      <point x="616" y="645"/>
      <point x="414" y="645" type="curve"/>
      <point x="209" y="645"/>
      <point x="62" y="522"/>
      <point x="62" y="321" type="curve"/>
      <point x="128" y="321"/>
      <point x="62" y="321"/>
    </contour>
    <contour>
      <point x="495" y="436" type="curve"/>
      <point x="495" y="418"/>
      <point x="495" y="398"/>
      <point x="495" y="378" type="curve"/>
      <point x="554" y="378"/>
      <point x="496" y="378"/>
      <point x="555" y="378" type="curve"/>
      <point x="555" y="407"/>
      <point x="555" y="438"/>
      <point x="555" y="465" type="curve"/>
      <point x="496" y="438"/>
      <point x="554" y="463"/>
    </contour>
    <contour>
      <point x="555" y="465" type="curve"/>
      <point x="513" y="492"/>
      <point x="473" y="504"/>
      <point x="420" y="504" type="curve"/>
      <point x="303" y="504"/>
      <point x="230" y="435"/>
      <point x="230" y="321" type="curve"/>
      <point x="230" y="210"/>
      <point x="295" y="143"/>
      <point x="405" y="143" type="curve"/>
      <point x="468" y="143"/>
      <point x="512" y="154"/>
      <point x="563" y="194" type="curve"/>
      <point x="526" y="230"/>
      <point x="563" y="194"/>
      <point x="526" y="230" type="curve"/>
      <point x="485" y="203"/>
      <point x="454" y="193"/>
      <point x="408" y="193" type="curve"/>
      <point x="332" y="193"/>
      <point x="293" y="245"/>
      <point x="293" y="323" type="curve"/>
      <point x="293" y="403"/>
      <point x="337" y="453"/>
      <point x="417" y="453" type="curve"/>
      <point x="450" y="453"/>
      <point x="472" y="447"/>
      <point x="496" y="436" type="curve"/>
      <point x="555" y="463"/>
      <point x="496" y="438"/>
    </contour>
  </outline>
</glyph>
<glyph name="ordfeminine" format="1">
  <advance width="478"/>
  <unicode hex="00AA"/>
  <outline>
    <contour>
      <point x="84" y="721" type="curve"/>
      <point x="84" y="675"/>
      <point x="84" y="697"/>
      <point x="84" y="651" type="curve"/>
      <point x="122" y="651"/>
      <point x="92" y="651"/>
      <point x="129" y="651" type="curve"/>
      <point x="129" y="697"/>
      <point x="129" y="675"/>
      <point x="129" y="721" type="curve"/>
      <point x="92" y="721"/>
      <point x="122" y="721"/>
    </contour>
    <contour>
      <point x="360" y="427" type="curve"/>
      <point x="360" y="515"/>
      <point x="360" y="586"/>
      <point x="360" y="675" type="curve"/>
      <point x="360" y="747"/>
      <point x="300" y="771"/>
      <point x="222" y="771" type="curve"/>
      <point x="164" y="771"/>
      <point x="118" y="751"/>
      <point x="84" y="721" type="curve"/>
      <point x="102" y="691"/>
      <point x="90" y="714"/>
      <point x="108" y="683" type="curve"/>
      <point x="132" y="705"/>
      <point x="168" y="726"/>
      <point x="214" y="726" type="curve"/>
      <point x="264" y="726"/>
      <point x="304" y="711"/>
      <point x="304" y="664" type="curve"/>
      <point x="304" y="580"/>
      <point x="304" y="511"/>
      <point x="304" y="427" type="curve"/>
      <point x="351" y="427"/>
      <point x="313" y="427"/>
    </contour>
    <contour>
      <point x="333" y="427" type="curve"/>
      <point x="361" y="427"/>
      <point x="383" y="427"/>
      <point x="410" y="427" type="curve"/>
      <point x="410" y="463"/>
      <point x="410" y="435"/>
      <point x="410" y="471" type="curve"/>
      <point x="357" y="471"/>
      <point x="387" y="471"/>
      <point x="333" y="471" type="curve"/>
      <point x="333" y="435"/>
      <point x="333" y="463"/>
    </contour>
    <contour>
      <point x="330" y="641" type="curve"/>
      <point x="278" y="635"/>
      <point x="245" y="633"/>
      <point x="193" y="627" type="curve"/>
      <point x="121" y="618"/>
      <point x="67" y="592"/>
      <point x="67" y="524" type="curve"/>
      <point x="67" y="455"/>
      <point x="116" y="422"/>
      <point x="190" y="422" type="curve"/>
      <point x="262" y="422"/>
      <point x="302" y="465"/>
      <point x="345" y="520" type="curve"/>
      <point x="322" y="539"/>
      <point x="340" y="524"/>
      <point x="317" y="543" type="curve"/>
      <point x="287" y="501"/>
      <point x="254" y="466"/>
      <point x="200" y="466" type="curve"/>
      <point x="154" y="466"/>
      <point x="123" y="485"/>
      <point x="123" y="526" type="curve"/>
      <point x="123" y="564"/>
      <point x="153" y="582"/>
      <point x="192" y="587" type="curve"/>
      <point x="245" y="594"/>
      <point x="279" y="597"/>
      <point x="332" y="603" type="curve"/>
      <point x="331" y="634"/>
      <point x="332" y="610"/>
    </contour>
  </outline>
</glyph>
<glyph name="guillemotleft" format="1">
  <advance width="627"/>
  <unicode hex="00AB"/>
  <outline>
    <contour>
      <point x="298" y="435" type="curve"/>
      <point x="273" y="420"/>
      <point x="90" y="331"/>
      <point x="65" y="316" type="curve"/>
      <point x="65" y="250"/>
      <point x="65" y="312"/>
      <point x="65" y="246" type="curve"/>
      <point x="90" y="260"/>
      <point x="273" y="352"/>
      <point x="298" y="367" type="curve"/>
      <point x="298" y="433"/>
      <point x="298" y="369"/>
    </contour>
    <contour>
      <point x="298" y="196" type="curve"/>
      <point x="274" y="211"/>
      <point x="90" y="301"/>
      <point x="65" y="316" type="curve"/>
      <point x="65" y="250"/>
      <point x="65" y="312"/>
      <point x="65" y="246" type="curve"/>
      <point x="90" y="231"/>
      <point x="274" y="143"/>
      <point x="298" y="128" type="curve"/>
      <point x="298" y="194"/>
      <point x="298" y="130"/>
    </contour>
    <contour>
      <point x="540" y="435" type="curve"/>
      <point x="515" y="420"/>
      <point x="331" y="331"/>
      <point x="306" y="316" type="curve"/>
      <point x="306" y="250"/>
      <point x="306" y="312"/>
      <point x="306" y="246" type="curve"/>
      <point x="331" y="260"/>
      <point x="515" y="352"/>
      <point x="540" y="367" type="curve"/>
      <point x="540" y="433"/>
      <point x="540" y="369"/>
    </contour>
    <contour>
      <point x="540" y="196" type="curve"/>
      <point x="515" y="211"/>
      <point x="331" y="301"/>
      <point x="306" y="316" type="curve"/>
      <point x="306" y="250"/>
      <point x="306" y="312"/>
      <point x="306" y="246" type="curve"/>
      <point x="331" y="231"/>
      <point x="515" y="143"/>
      <point x="540" y="128" type="curve"/>
      <point x="540" y="194"/>
      <point x="540" y="130"/>
    </contour>
  </outline>
</glyph>
<glyph name="logicalnot" format="1">
  <advance width="709"/>
  <unicode hex="00AC"/>
  <outline>
    <contour>
      <point x="98" y="278" type="curve"/>
      <point x="626" y="278" type="line"/>
      <point x="626" y="344"/>
      <point x="626" y="278"/>
      <point x="626" y="344" type="curve"/>
      <point x="98" y="344" type="line"/>
      <point x="98" y="278"/>
      <point x="98" y="344"/>
    </contour>
    <contour>
      <point x="626" y="147" type="curve"/>
      <point x="626" y="344" type="line"/>
      <point x="549" y="344"/>
      <point x="629" y="344"/>
      <point x="551" y="344" type="curve"/>
      <point x="551" y="147" type="line"/>
      <point x="629" y="147"/>
      <point x="549" y="147"/>
    </contour>
  </outline>
</glyph>
<glyph name="registered" format="1">
  <advance width="825"/>
  <unicode hex="00AE"/>
  <outline>
    <contour>
      <point x="122" y="321" type="curve"/>
      <point x="122" y="495"/>
      <point x="239" y="599"/>
      <point x="416" y="599" type="curve"/>
      <point x="590" y="599"/>
      <point x="704" y="492"/>
      <point x="704" y="319" type="curve"/>
      <point x="704" y="151"/>
      <point x="593" y="46"/>
      <point x="423" y="46" type="curve"/>
      <point x="245" y="46"/>
      <point x="122" y="147"/>
      <point x="122" y="321" type="curve"/>
      <point x="91" y="321"/>
      <point x="93" y="321"/>
      <point x="63" y="321" type="curve"/>
      <point x="63" y="117"/>
      <point x="209" y="0"/>
      <point x="421" y="0" type="curve"/>
      <point x="625" y="0"/>
      <point x="762" y="121"/>
      <point x="762" y="322" type="curve"/>
      <point x="762" y="524"/>
      <point x="623" y="645"/>
      <point x="416" y="645" type="curve"/>
      <point x="207" y="645"/>
      <point x="63" y="526"/>
      <point x="63" y="321" type="curve"/>
      <point x="93" y="321"/>
      <point x="91" y="321"/>
    </contour>
    <contour>
      <point x="507" y="145" type="curve"/>
      <point x="539" y="145"/>
      <point x="560" y="145"/>
      <point x="591" y="145" type="curve"/>
      <point x="591" y="196"/>
      <point x="591" y="145"/>
      <point x="591" y="196" type="curve"/>
      <point x="575" y="196"/>
      <point x="565" y="196"/>
      <point x="550" y="196" type="curve"/>
      <point x="510" y="168"/>
      <point x="539" y="201"/>
    </contour>
    <contour>
      <point x="369" y="499" type="curve"/>
      <point x="330" y="499"/>
      <point x="294" y="499"/>
      <point x="255" y="499" type="curve"/>
      <point x="255" y="448"/>
      <point x="255" y="499"/>
      <point x="255" y="448" type="curve"/>
      <point x="272" y="448"/>
      <point x="287" y="448"/>
      <point x="304" y="448" type="curve"/>
      <point x="369" y="499"/>
      <point x="304" y="448"/>
    </contour>
    <contour>
      <point x="369" y="196" type="curve"/>
      <point x="330" y="196"/>
      <point x="294" y="196"/>
      <point x="255" y="196" type="curve"/>
      <point x="255" y="145"/>
      <point x="255" y="196"/>
      <point x="255" y="145" type="curve"/>
      <point x="272" y="145"/>
      <point x="287" y="145"/>
      <point x="304" y="145" type="curve"/>
      <point x="369" y="196"/>
      <point x="304" y="145"/>
    </contour>
    <contour>
      <point x="304" y="145" type="curve"/>
      <point x="340" y="145"/>
      <point x="372" y="145"/>
      <point x="408" y="145" type="curve"/>
      <point x="408" y="196"/>
      <point x="408" y="145"/>
      <point x="408" y="196" type="curve"/>
      <point x="394" y="196"/>
      <point x="383" y="196"/>
      <point x="369" y="196" type="curve"/>
      <point x="304" y="145"/>
      <point x="369" y="196"/>
    </contour>
    <contour>
      <point x="405" y="313" type="curve"/>
      <point x="433" y="269"/>
      <point x="479" y="189"/>
      <point x="507" y="145" type="curve"/>
      <point x="551" y="184"/>
      <point x="518" y="152"/>
      <point x="550" y="196" type="curve"/>
      <point x="476" y="312" type="line"/>
      <point x="398" y="311"/>
      <point x="484" y="313"/>
    </contour>
    <contour>
      <point x="367" y="196" type="curve"/>
      <point x="367" y="297"/>
      <point x="367" y="398"/>
      <point x="367" y="499" type="curve"/>
      <point x="302" y="448"/>
      <point x="369" y="499"/>
      <point x="304" y="448" type="curve"/>
      <point x="304" y="347"/>
      <point x="304" y="246"/>
      <point x="304" y="145" type="curve"/>
      <point x="369" y="196"/>
      <point x="302" y="145"/>
    </contour>
    <contour>
      <point x="339" y="284" type="curve"/>
      <point x="359" y="284"/>
      <point x="381" y="284"/>
      <point x="401" y="284" type="curve"/>
      <point x="485" y="284"/>
      <point x="544" y="311"/>
      <point x="544" y="392" type="curve"/>
      <point x="544" y="463"/>
      <point x="491" y="499"/>
      <point x="417" y="499" type="curve"/>
      <point x="401" y="499"/>
      <point x="385" y="499"/>
      <point x="369" y="499" type="curve"/>
      <point x="304" y="448"/>
      <point x="369" y="499"/>
      <point x="304" y="448" type="curve"/>
      <point x="338" y="448"/>
      <point x="371" y="448"/>
      <point x="405" y="448" type="curve"/>
      <point x="450" y="448"/>
      <point x="483" y="431"/>
      <point x="483" y="389" type="curve"/>
      <point x="483" y="348"/>
      <point x="453" y="334"/>
      <point x="410" y="334" type="curve"/>
      <point x="387" y="334"/>
      <point x="362" y="334"/>
      <point x="339" y="334" type="curve"/>
      <point x="339" y="284"/>
      <point x="339" y="334"/>
    </contour>
  </outline>
</glyph>
<glyph name="macron" format="1">
  <advance width="344"/>
  <unicode hex="00AF"/>
  <outline>
    <contour>
      <point x="263" y="676" type="curve"/>
      <point x="185" y="676"/>
      <point x="106" y="676"/>
      <point x="28" y="676" type="curve"/>
      <point x="28" y="616"/>
      <point x="28" y="676"/>
      <point x="28" y="616" type="curve"/>
      <point x="106" y="616"/>
      <point x="185" y="616"/>
      <point x="263" y="616" type="curve"/>
      <point x="263" y="676"/>
      <point x="263" y="616"/>
    </contour>
    <contour>
      <point x="148" y="616" type="move" name="_top"/>
    </contour>
  </outline>
</glyph>
<glyph name="degree" format="1">
  <advance width="511"/>
  <unicode hex="00B0"/>
  <outline>
    <contour>
      <point x="445" y="481" type="curve"/>
      <point x="445" y="603"/>
      <point x="375" y="682"/>
      <point x="255" y="682" type="curve"/>
      <point x="135" y="682"/>
      <point x="66" y="604"/>
      <point x="66" y="483" type="curve"/>
      <point x="119" y="483"/>
      <point x="80" y="483"/>
      <point x="134" y="483" type="curve"/>
      <point x="134" y="566"/>
      <point x="172" y="625"/>
      <point x="253" y="625" type="curve"/>
      <point x="334" y="625"/>
      <point x="376" y="566"/>
      <point x="376" y="481" type="curve"/>
      <point x="376" y="394"/>
      <point x="338" y="332"/>
      <point x="255" y="332" type="curve"/>
      <point x="172" y="332"/>
      <point x="134" y="395"/>
      <point x="134" y="483" type="curve"/>
      <point x="80" y="483"/>
      <point x="119" y="483"/>
      <point x="66" y="483" type="curve"/>
      <point x="66" y="358"/>
      <point x="132" y="274"/>
      <point x="254" y="274" type="curve"/>
      <point x="376" y="274"/>
      <point x="445" y="356"/>
    </contour>
  </outline>
</glyph>
<glyph name="plusminus" format="1">
  <advance width="708"/>
  <unicode hex="00B1"/>
  <outline>
    <contour>
      <point x="69" y="25" type="line"/>
      <point x="639" y="25" type="line"/>
      <point x="639" y="92" type="line"/>
      <point x="69" y="92" type="line"/>
    </contour>
    <contour>
      <point x="69" y="278" type="curve"/>
      <point x="639" y="278" type="line"/>
      <point x="639" y="344"/>
      <point x="639" y="278"/>
      <point x="639" y="344" type="curve"/>
      <point x="69" y="344" type="line"/>
      <point x="69" y="278"/>
      <point x="69" y="344"/>
    </contour>
    <contour>
      <point x="390" y="26" type="curve"/>
      <point x="390" y="586" type="line"/>
      <point x="312" y="586"/>
      <point x="394" y="586"/>
      <point x="317" y="586" type="curve"/>
      <point x="317" y="26" type="line"/>
      <point x="394" y="26"/>
      <point x="312" y="26"/>
    </contour>
  </outline>
</glyph>
<glyph name="twosuperior" format="1">
  <advance width="510"/>
  <unicode hex="00B2"/>
  <outline>
    <contour>
      <point x="437" y="302" type="curve"/>
      <point x="437" y="342"/>
      <point x="437" y="375"/>
      <point x="437" y="416" type="curve"/>
      <point x="378" y="416"/>
      <point x="441" y="416"/>
      <point x="382" y="416" type="curve"/>
      <point x="382" y="394"/>
      <point x="382" y="380"/>
      <point x="382" y="357" type="curve"/>
      <point x="443" y="305"/>
      <point x="375" y="354"/>
    </contour>
    <contour>
      <point x="75" y="302" type="curve"/>
      <point x="208" y="302"/>
      <point x="326" y="302"/>
      <point x="437" y="302" type="curve"/>
      <point x="375" y="354"/>
      <point x="443" y="305"/>
      <point x="382" y="357" type="curve"/>
      <point x="281" y="357"/>
      <point x="176" y="357"/>
      <point x="75" y="357" type="curve"/>
      <point x="75" y="302"/>
      <point x="75" y="357"/>
    </contour>
    <contour>
      <point x="147" y="608" type="curve"/>
      <point x="175" y="648"/>
      <point x="205" y="673"/>
      <point x="254" y="673" type="curve"/>
      <point x="308" y="673"/>
      <point x="344" y="647"/>
      <point x="344" y="597" type="curve"/>
      <point x="344" y="550"/>
      <point x="311" y="529"/>
      <point x="275" y="499" type="curve"/>
      <point x="208" y="451"/>
      <point x="141" y="404"/>
      <point x="75" y="357" type="curve"/>
      <point x="81" y="303"/>
      <point x="76" y="357"/>
      <point x="82" y="303" type="curve"/>
      <point x="166" y="357"/>
      <point x="246" y="405"/>
      <point x="315" y="455" type="curve"/>
      <point x="369" y="499"/>
      <point x="414" y="532"/>
      <point x="414" y="600" type="curve"/>
      <point x="414" y="685"/>
      <point x="350" y="728"/>
      <point x="260" y="728" type="curve"/>
      <point x="185" y="728"/>
      <point x="131" y="702"/>
      <point x="97" y="636" type="curve"/>
      <point x="147" y="608"/>
      <point x="97" y="636"/>
    </contour>
    <contour>
      <point x="264" y="728" type="move" name="_top"/>
    </contour>
    <contour>
      <point x="251" y="301" type="move" name="_bottom"/>
    </contour>
  </outline>
</glyph>
<glyph name="threesuperior" format="1">
  <advance width="456"/>
  <unicode hex="00B3"/>
  <outline>
    <contour>
      <point x="113" y="633" type="curve"/>
      <point x="141" y="657"/>
      <point x="173" y="673"/>
      <point x="207" y="673" type="curve"/>
      <point x="260" y="673"/>
      <point x="298" y="655"/>
      <point x="298" y="607" type="curve"/>
      <point x="298" y="552"/>
      <point x="230" y="543"/>
      <point x="163" y="539" type="curve"/>
      <point x="163" y="492"/>
      <point x="163" y="539"/>
      <point x="163" y="492" type="curve"/>
      <point x="274" y="494"/>
      <point x="370" y="515"/>
      <point x="370" y="612" type="curve"/>
      <point x="370" y="695"/>
      <point x="304" y="727"/>
      <point x="215" y="727" type="curve"/>
      <point x="161" y="727"/>
      <point x="112" y="705"/>
      <point x="76" y="671" type="curve"/>
      <point x="113" y="633"/>
      <point x="76" y="671"/>
    </contour>
    <contour>
      <point x="72" y="331" type="curve"/>
      <point x="112" y="308"/>
      <point x="153" y="296"/>
      <point x="199" y="296" type="curve"/>
      <point x="306" y="293"/>
      <point x="389" y="325"/>
      <point x="387" y="420" type="curve"/>
      <point x="387" y="523"/>
      <point x="279" y="528"/>
      <point x="163" y="531" type="curve"/>
      <point x="163" y="490"/>
      <point x="163" y="531"/>
      <point x="163" y="490" type="curve"/>
      <point x="243" y="486"/>
      <point x="314" y="478"/>
      <point x="314" y="419" type="curve"/>
      <point x="314" y="365"/>
      <point x="267" y="347"/>
      <point x="206" y="349" type="curve"/>
      <point x="171" y="349"/>
      <point x="139" y="357"/>
      <point x="103" y="374" type="curve"/>
      <point x="72" y="331"/>
      <point x="103" y="374"/>
    </contour>
    <contour>
      <point x="228" y="727" type="move" name="_top"/>
    </contour>
    <contour>
      <point x="218" y="295" type="move" name="_bottom"/>
    </contour>
  </outline>
</glyph>
<glyph name="acute" format="1">
  <advance width="367"/>
  <unicode hex="00B4"/>
  <outline>
    <contour>
      <point x="105" y="590" type="line"/>
      <point x="254" y="756" type="line"/>
      <point x="152" y="756" type="line"/>
      <point x="28" y="590" type="line"/>
    </contour>
    <contour>
      <point x="71" y="590" type="move" name="_top"/>
    </contour>
  </outline>
</glyph>
<glyph name="paragraph" format="1">
  <advance width="779"/>
  <unicode hex="00B6"/>
  <outline>
    <contour>
      <point x="460" y="661" type="curve"/>
      <point x="627" y="661"/>
      <point x="460" y="661"/>
      <point x="627" y="661" type="curve"/>
      <point x="627" y="722"/>
      <point x="627" y="661"/>
      <point x="627" y="722" type="curve"/>
      <point x="572" y="722"/>
      <point x="515" y="722"/>
      <point x="460" y="722" type="curve"/>
      <point x="460" y="661"/>
      <point x="460" y="722"/>
    </contour>
    <contour>
      <point x="460" y="0" type="curve"/>
      <point x="515" y="0"/>
      <point x="572" y="0"/>
      <point x="627" y="0" type="curve"/>
      <point x="627" y="61"/>
      <point x="627" y="0"/>
      <point x="627" y="61" type="curve"/>
      <point x="460" y="61"/>
      <point x="627" y="61"/>
      <point x="460" y="61" type="curve"/>
      <point x="460" y="0"/>
      <point x="460" y="61"/>
    </contour>
    <contour>
      <point x="460" y="61" type="curve"/>
      <point x="301" y="61"/>
      <point x="460" y="61"/>
      <point x="301" y="61" type="curve"/>
      <point x="301" y="0"/>
      <point x="301" y="61"/>
      <point x="301" y="0" type="curve"/>
      <point x="460" y="0"/>
      <point x="407" y="0"/>
      <point x="460" y="0" type="curve"/>
      <point x="460" y="61"/>
      <point x="460" y="0"/>
    </contour>
    <contour>
      <point x="446" y="365" type="curve"/>
      <point x="393" y="340"/>
      <point x="353" y="326"/>
      <point x="294" y="326" type="curve"/>
      <point x="191" y="326"/>
      <point x="121" y="383"/>
      <point x="121" y="485" type="curve"/>
      <point x="121" y="601"/>
      <point x="208" y="661"/>
      <point x="330" y="661" type="curve"/>
      <point x="372" y="661"/>
      <point x="415" y="661"/>
      <point x="457" y="661" type="curve"/>
      <point x="457" y="722"/>
      <point x="457" y="661"/>
      <point x="457" y="722" type="curve"/>
      <point x="411" y="722"/>
      <point x="365" y="722"/>
      <point x="320" y="722" type="curve"/>
      <point x="159" y="722"/>
      <point x="43" y="640"/>
      <point x="43" y="487" type="curve"/>
      <point x="43" y="342"/>
      <point x="150" y="269"/>
      <point x="301" y="266" type="curve"/>
      <point x="363" y="266"/>
      <point x="415" y="286"/>
      <point x="471" y="312" type="curve"/>
      <point x="446" y="364"/>
      <point x="470" y="312"/>
    </contour>
    <contour>
      <point x="500" y="0" type="curve"/>
      <point x="500" y="241"/>
      <point x="500" y="481"/>
      <point x="500" y="722" type="curve"/>
      <point x="422" y="722"/>
      <point x="500" y="722"/>
      <point x="422" y="722" type="curve"/>
      <point x="422" y="481"/>
      <point x="422" y="241"/>
      <point x="422" y="0" type="curve"/>
      <point x="500" y="0"/>
      <point x="422" y="0"/>
    </contour>
    <contour>
      <point x="694" y="0" type="curve"/>
      <point x="694" y="241"/>
      <point x="694" y="481"/>
      <point x="694" y="722" type="curve"/>
      <point x="616" y="722"/>
      <point x="694" y="722"/>
      <point x="616" y="722" type="curve"/>
      <point x="616" y="481"/>
      <point x="616" y="241"/>
      <point x="616" y="0" type="curve"/>
      <point x="694" y="0"/>
      <point x="616" y="0"/>
    </contour>
  </outline>
</glyph>
<glyph name="periodcentered" format="1">
  <advance width="243"/>
  <unicode hex="00B7"/>
  <outline>
    <contour>
      <point x="168" y="440" type="curve"/>
      <point x="168" y="467"/>
      <point x="148" y="481"/>
      <point x="120" y="481" type="curve"/>
      <point x="93" y="481"/>
      <point x="75" y="466"/>
      <point x="75" y="440" type="curve"/>
      <point x="160" y="440"/>
      <point x="83" y="440"/>
      <point x="168" y="440" type="curve"/>
      <point x="168" y="412"/>
      <point x="148" y="399"/>
      <point x="120" y="399" type="curve"/>
      <point x="93" y="399"/>
      <point x="75" y="413"/>
      <point x="75" y="440" type="curve"/>
      <point x="160" y="440"/>
      <point x="83" y="440"/>
    </contour>
  </outline>
</glyph>
<glyph name="cedilla" format="1">
  <advance width="374"/>
  <unicode hex="00B8"/>
  <outline>
    <contour>
      <point x="147" y="83" type="curve"/>
      <point x="132" y="59"/>
      <point x="96" y="1"/>
      <point x="82" y="-24" type="curve"/>
      <point x="135" y="-72"/>
      <point x="82" y="-24"/>
      <point x="135" y="-72" type="curve"/>
      <point x="151" y="-45"/>
      <point x="190" y="15"/>
      <point x="206" y="42" type="curve"/>
      <point x="147" y="83"/>
      <point x="206" y="42"/>
    </contour>
    <contour>
      <point x="135" y="-72" type="curve"/>
      <point x="146" y="-65"/>
      <point x="155" y="-62"/>
      <point x="169" y="-62" type="curve"/>
      <point x="192" y="-62"/>
      <point x="206" y="-75"/>
      <point x="206" y="-100" type="curve"/>
      <point x="206" y="-127"/>
      <point x="184" y="-138"/>
      <point x="155" y="-138" type="curve"/>
      <point x="129" y="-138"/>
      <point x="109" y="-134"/>
      <point x="83" y="-120" type="curve"/>
      <point x="57" y="-166"/>
      <point x="83" y="-120"/>
      <point x="57" y="-166" type="curve"/>
      <point x="89" y="-183"/>
      <point x="115" y="-190"/>
      <point x="151" y="-190" type="curve"/>
      <point x="220" y="-190"/>
      <point x="271" y="-163"/>
      <point x="271" y="-98" type="curve"/>
      <point x="271" y="-38"/>
      <point x="230" y="-4"/>
      <point x="169" y="-4" type="curve"/>
      <point x="136" y="-4"/>
      <point x="112" y="-10"/>
      <point x="82" y="-24" type="curve"/>
      <point x="135" y="-72"/>
      <point x="82" y="-24"/>
    </contour>
    <contour>
      <point x="197" y="42" type="move" name="_bottom"/>
    </contour>
  </outline>
</glyph>
<glyph name="onesuperior" format="1">
  <advance width="397"/>
  <unicode hex="00B9"/>
  <outline>
    <contour>
      <point x="193" y="302" type="curve"/>
      <point x="241" y="302"/>
      <point x="285" y="302"/>
      <point x="332" y="302" type="curve"/>
      <point x="332" y="358"/>
      <point x="332" y="300"/>
      <point x="332" y="356" type="curve"/>
      <point x="308" y="356"/>
      <point x="289" y="356"/>
      <point x="265" y="356" type="curve"/>
      <point x="193" y="300"/>
      <point x="265" y="358"/>
    </contour>
    <contour>
      <point x="265" y="356" type="curve"/>
      <point x="216" y="356"/>
      <point x="171" y="356"/>
      <point x="122" y="356" type="curve"/>
      <point x="122" y="300"/>
      <point x="122" y="358"/>
      <point x="122" y="302" type="curve"/>
      <point x="147" y="302"/>
      <point x="168" y="302"/>
      <point x="193" y="302" type="curve"/>
      <point x="265" y="358"/>
      <point x="193" y="300"/>
    </contour>
    <contour>
      <point x="100" y="573" type="line"/>
      <point x="265" y="714" type="line"/>
      <point x="193" y="720" type="line"/>
      <point x="64" y="614" type="line"/>
    </contour>
    <contour>
      <point x="265" y="356" type="curve"/>
      <point x="265" y="720" type="line"/>
      <point x="193" y="720" type="line"/>
      <point x="193" y="302" type="line"/>
      <point x="265" y="358"/>
      <point x="193" y="300"/>
    </contour>
    <contour>
      <point x="225" y="718" type="move" name="_top"/>
    </contour>
    <contour>
      <point x="230" y="303" type="move" name="_bottom"/>
    </contour>
  </outline>
</glyph>
<glyph name="ordmasculine" format="1">
  <advance width="471"/>
  <unicode hex="00BA"/>
  <outline>
    <contour>
      <point x="120" y="602" type="curve"/>
      <point x="120" y="678"/>
      <point x="159" y="728"/>
      <point x="234" y="728" type="curve"/>
      <point x="310" y="728"/>
      <point x="350" y="677"/>
      <point x="350" y="600" type="curve"/>
      <point x="350" y="519"/>
      <point x="312" y="466"/>
      <point x="240" y="466" type="curve"/>
      <point x="160" y="466"/>
      <point x="120" y="519"/>
      <point x="120" y="602" type="curve"/>
      <point x="86" y="602"/>
      <point x="98" y="602"/>
      <point x="64" y="602" type="curve"/>
      <point x="64" y="489"/>
      <point x="127" y="420"/>
      <point x="237" y="420" type="curve"/>
      <point x="344" y="420"/>
      <point x="407" y="489"/>
      <point x="407" y="600" type="curve"/>
      <point x="407" y="707"/>
      <point x="344" y="773"/>
      <point x="237" y="773" type="curve"/>
      <point x="128" y="773"/>
      <point x="64" y="707"/>
      <point x="64" y="602" type="curve"/>
      <point x="98" y="602"/>
      <point x="86" y="602"/>
    </contour>
  </outline>
</glyph>
<glyph name="guillemotright" format="1">
  <advance width="628"/>
  <unicode hex="00BB"/>
  <outline>
    <contour>
      <point x="329" y="435" type="curve"/>
      <point x="354" y="420"/>
      <point x="538" y="331"/>
      <point x="563" y="316" type="curve"/>
      <point x="563" y="250"/>
      <point x="563" y="312"/>
      <point x="563" y="246" type="curve"/>
      <point x="538" y="260"/>
      <point x="354" y="352"/>
      <point x="329" y="367" type="curve"/>
      <point x="329" y="433"/>
      <point x="329" y="369"/>
    </contour>
    <contour>
      <point x="329" y="196" type="curve"/>
      <point x="354" y="211"/>
      <point x="538" y="301"/>
      <point x="563" y="316" type="curve"/>
      <point x="563" y="250"/>
      <point x="563" y="312"/>
      <point x="563" y="246" type="curve"/>
      <point x="538" y="231"/>
      <point x="354" y="143"/>
      <point x="329" y="128" type="curve"/>
      <point x="329" y="194"/>
      <point x="329" y="130"/>
    </contour>
    <contour>
      <point x="88" y="435" type="curve"/>
      <point x="112" y="420"/>
      <point x="296" y="331"/>
      <point x="321" y="316" type="curve"/>
      <point x="321" y="250"/>
      <point x="321" y="312"/>
      <point x="321" y="246" type="curve"/>
      <point x="296" y="260"/>
      <point x="112" y="352"/>
      <point x="88" y="367" type="curve"/>
      <point x="88" y="433"/>
      <point x="88" y="369"/>
    </contour>
    <contour>
      <point x="87" y="196" type="curve"/>
      <point x="112" y="211"/>
      <point x="296" y="301"/>
      <point x="321" y="316" type="curve"/>
      <point x="321" y="250"/>
      <point x="321" y="312"/>
      <point x="321" y="246" type="curve"/>
      <point x="296" y="231"/>
      <point x="112" y="143"/>
      <point x="87" y="128" type="curve"/>
      <point x="87" y="194"/>
      <point x="87" y="130"/>
    </contour>
  </outline>
</glyph>
<glyph name="onequarter" format="1">
  <advance width="1018"/>
  <unicode hex="00BC"/>
  <outline>
    <contour>
      <point x="336" y="-68" type="line"/>
      <point x="781" y="735" type="line"/>
      <point x="707" y="735" type="line"/>
      <point x="262" y="-68" type="line"/>
    </contour>
    <contour>
      <point x="170" y="319" type="curve"/>
      <point x="218" y="319"/>
      <point x="261" y="319"/>
      <point x="309" y="319" type="curve"/>
      <point x="309" y="376"/>
      <point x="309" y="317"/>
      <point x="309" y="373" type="curve"/>
      <point x="285" y="373"/>
      <point x="266" y="373"/>
      <point x="242" y="373" type="curve"/>
      <point x="170" y="317"/>
      <point x="242" y="376"/>
    </contour>
    <contour>
      <point x="242" y="373" type="curve"/>
      <point x="193" y="373"/>
      <point x="148" y="373"/>
      <point x="99" y="373" type="curve"/>
      <point x="99" y="317"/>
      <point x="99" y="376"/>
      <point x="99" y="319" type="curve"/>
      <point x="124" y="319"/>
      <point x="145" y="319"/>
      <point x="170" y="319" type="curve"/>
      <point x="242" y="376"/>
      <point x="170" y="317"/>
    </contour>
    <contour>
      <point x="77" y="591" type="line"/>
      <point x="242" y="732" type="line"/>
      <point x="170" y="738" type="line"/>
      <point x="41" y="632" type="line"/>
    </contour>
    <contour>
      <point x="242" y="373" type="curve"/>
      <point x="242" y="738" type="line"/>
      <point x="170" y="738" type="line"/>
      <point x="170" y="319" type="line"/>
      <point x="242" y="376"/>
      <point x="170" y="317"/>
    </contour>
    <contour>
      <point x="985" y="103" type="line"/>
      <point x="595" y="103" type="line"/>
      <point x="595" y="49" type="line"/>
      <point x="985" y="49" type="line"/>
    </contour>
    <contour>
      <point x="618" y="55" type="line"/>
      <point x="876" y="356" type="line"/>
      <point x="818" y="368" type="line"/>
      <point x="595" y="103" type="line"/>
    </contour>
    <contour>
      <point x="890" y="-72" type="line"/>
      <point x="890" y="368" type="line"/>
      <point x="818" y="368" type="line"/>
      <point x="818" y="-72" type="line"/>
    </contour>
    <contour>
      <point x="854" y="-21" type="line"/>
      <point x="746" y="-21" type="line"/>
      <point x="746" y="-72" type="line"/>
      <point x="854" y="-72" type="line"/>
    </contour>
    <contour>
      <point x="854" y="-72" type="line"/>
      <point x="960" y="-72" type="line"/>
      <point x="960" y="-21" type="line"/>
      <point x="854" y="-21" type="line"/>
    </contour>
  </outline>
</glyph>
<glyph name="onehalf" format="1">
  <advance width="1077"/>
  <unicode hex="00BD"/>
  <outline>
    <contour>
      <point x="346" y="-68" type="line"/>
      <point x="791" y="735" type="line"/>
      <point x="717" y="735" type="line"/>
      <point x="272" y="-68" type="line"/>
    </contour>
    <contour>
      <point x="168" y="319" type="curve"/>
      <point x="216" y="319"/>
      <point x="260" y="319"/>
      <point x="308" y="319" type="curve"/>
      <point x="308" y="376"/>
      <point x="308" y="317"/>
      <point x="308" y="373" type="curve"/>
      <point x="284" y="373"/>
      <point x="264" y="373"/>
      <point x="240" y="373" type="curve"/>
      <point x="168" y="317"/>
      <point x="240" y="376"/>
    </contour>
    <contour>
      <point x="241" y="373" type="curve"/>
      <point x="192" y="373"/>
      <point x="147" y="373"/>
      <point x="97" y="373" type="curve"/>
      <point x="97" y="317"/>
      <point x="97" y="376"/>
      <point x="97" y="319" type="curve"/>
      <point x="123" y="319"/>
      <point x="143" y="319"/>
      <point x="169" y="319" type="curve"/>
      <point x="241" y="376"/>
      <point x="169" y="317"/>
    </contour>
    <contour>
      <point x="75" y="591" type="line"/>
      <point x="240" y="732" type="line"/>
      <point x="169" y="738" type="line"/>
      <point x="39" y="632" type="line"/>
    </contour>
    <contour>
      <point x="241" y="373" type="curve"/>
      <point x="241" y="738" type="line"/>
      <point x="169" y="738" type="line"/>
      <point x="169" y="319" type="line"/>
      <point x="241" y="376"/>
      <point x="169" y="317"/>
    </contour>
    <contour>
      <point x="1036" y="-70" type="curve"/>
      <point x="1036" y="-29"/>
      <point x="1036" y="4"/>
      <point x="1036" y="45" type="curve"/>
      <point x="978" y="45"/>
      <point x="1040" y="45"/>
      <point x="982" y="45" type="curve"/>
      <point x="982" y="23"/>
      <point x="982" y="8"/>
      <point x="982" y="-14" type="curve"/>
      <point x="1043" y="-66"/>
      <point x="975" y="-17"/>
    </contour>
    <contour>
      <point x="674" y="-70" type="curve"/>
      <point x="807" y="-70"/>
      <point x="925" y="-70"/>
      <point x="1036" y="-70" type="curve"/>
      <point x="975" y="-17"/>
      <point x="1043" y="-66"/>
      <point x="982" y="-14" type="curve"/>
      <point x="881" y="-14"/>
      <point x="775" y="-14"/>
      <point x="674" y="-14" type="curve"/>
      <point x="674" y="-69"/>
      <point x="674" y="-14"/>
    </contour>
    <contour>
      <point x="747" y="237" type="curve"/>
      <point x="774" y="277"/>
      <point x="804" y="302"/>
      <point x="854" y="302" type="curve"/>
      <point x="907" y="302"/>
      <point x="943" y="275"/>
      <point x="943" y="226" type="curve"/>
      <point x="943" y="179"/>
      <point x="910" y="158"/>
      <point x="874" y="128" type="curve"/>
      <point x="807" y="80"/>
      <point x="741" y="33"/>
      <point x="674" y="-14" type="curve"/>
      <point x="680" y="-68"/>
      <point x="675" y="-14"/>
      <point x="681" y="-68" type="curve"/>
      <point x="765" y="-14"/>
      <point x="845" y="34"/>
      <point x="915" y="84" type="curve"/>
      <point x="969" y="128"/>
      <point x="1014" y="161"/>
      <point x="1014" y="229" type="curve"/>
      <point x="1014" y="314"/>
      <point x="950" y="357"/>
      <point x="860" y="357" type="curve"/>
      <point x="785" y="357"/>
      <point x="731" y="330"/>
      <point x="696" y="265" type="curve"/>
      <point x="747" y="237"/>
      <point x="696" y="265"/>
    </contour>
  </outline>
</glyph>
